{
.appVersion = "3258";
.formatVersion = 3;
axes = (
{
name = Weight;
tag = wght;
}
);
customParameters = (
{
name = "Use Typo Metrics";
value = 1;
}
);
date = "2024-02-26 13:56:12 +0000";
familyName = "Ring Link";
featurePrefixes = (
{
automatic = 1;
code = "languagesystem DFLT dflt;

languagesystem cyrl dflt;
languagesystem cyrl BGR;

languagesystem latn dflt;
languagesystem latn NLD;
";
name = Languagesystems;
}
);
features = (
{
automatic = 1;
code = "feature locl;
feature sups;
feature ordn;
";
tag = aalt;
},
{
automatic = 1;
code = "lookup ccmp_Other_1 {
	@CombiningTopAccents = [acutecomb circumflexcomb dieresiscomb dotaccentcomb gravecomb ringcomb tildecomb];
	@CombiningNonTopAccents = [cedillacomb];
	sub [i j]' @CombiningTopAccents by [idotless jdotless];
	sub [i j]' @CombiningNonTopAccents @CombiningTopAccents by [idotless jdotless];
} ccmp_Other_1;
";
tag = ccmp;
},
{
automatic = 1;
code = "sub one by onesuperior;
sub two by twosuperior;
sub three by threesuperior;
";
tag = sups;
},
{
automatic = 1;
code = "sub [zero one two three four five six seven eight nine] [A a]' by ordfeminine;
sub [zero one two three four five six seven eight nine] [O o]' by ordmasculine;
";
tag = ordn;
}
);
fontMaster = (
{
customParameters = (
{
name = hheaAscender;
value = 1980;
},
{
name = hheaDescender;
value = -490;
},
{
name = hheaLineGap;
value = 310;
},
{
name = typoAscender;
value = 1980;
},
{
name = typoDescender;
value = -490;
},
{
name = typoLineGap;
value = 310;
},
{
name = winDescent;
value = 490;
}
);
iconName = Light;
id = "229FC374-6BB7-493E-A0DB-CDCFAB367F2C";
metricValues = (
{
pos = 1589;
},
{
pos = 1462;
},
{
pos = 984;
},
{
},
{
pos = -459;
}
);
name = Light;
}
);
glyphs = (
{
glyphname = A;
kernLeft = "20";
kernRight = "20";
lastChange = "2024-04-18 14:55:36 +0000";
layers = (
{
anchors = (
{
name = top;
pos = (227,1546);
}
);
hints = (
{
name = _corner.serif;
origin = (1,3);
type = Corner;
},
{
name = _corner.serif;
options = 1;
origin = (3,0);
scale = (-1,1);
type = Corner;
}
);
layerId = "229FC374-6BB7-493E-A0DB-CDCFAB367F2C";
shapes = (
{
closed = 1;
nodes = (
(116,426,l),
(116,484,o),
(166,534,o),
(227,534,cs),
(285,534,o),
(335,484,o),
(335,426,c),
(395,426,l),
(395,519,o),
(319,594,o),
(227,594,cs),
(131,594,o),
(56,519,o),
(56,426,c)
);
},
{
closed = 1;
nodes = (
(116,0,l),
(116,1293,l),
(56,1293,l),
(56,0,l)
);
},
{
closed = 1;
nodes = (
(116,1293,l),
(116,1352,o),
(166,1401,o),
(227,1401,cs),
(285,1401,o),
(335,1352,o),
(335,1293,c),
(395,1293,l),
(395,1386,o),
(319,1461,o),
(227,1461,cs),
(131,1461,o),
(56,1386,o),
(56,1293,c)
);
},
{
closed = 1;
nodes = (
(395,0,l),
(395,1293,l),
(335,1293,l),
(335,0,l)
);
}
);
width = 451;
}
);
unicode = 65;
},
{
glyphname = AE;
kernLeft = "20";
kernRight = "20";
lastChange = "2024-04-18 14:55:36 +0000";
layers = (
{
hints = (
{
name = _corner.serif;
origin = (0,42);
type = Corner;
}
);
layerId = "229FC374-6BB7-493E-A0DB-CDCFAB367F2C";
shapes = (
{
closed = 1;
nodes = (
(116,0,l),
(116,426,ls),
(116,484,o),
(166,534,o),
(227,534,cs),
(285,534,o),
(335,484,o),
(335,426,cs),
(335,0,l),
(505,0,ls),
(598,0,o),
(673,75,o),
(673,168,c),
(613,168,l),
(613,109,o),
(564,60,o),
(505,60,cs),
(395,60,l),
(395,701,l),
(517,701,l),
(517,761,l),
(395,761,l),
(395,1293,ls),
(395,1352,o),
(444,1401,o),
(505,1401,cs),
(564,1401,o),
(613,1352,o),
(613,1293,c),
(673,1293,l),
(673,1386,o),
(598,1461,o),
(505,1461,cs),
(446,1461,o),
(394,1429,o),
(365,1384,c),
(336,1429,o),
(285,1461,o),
(227,1461,cs),
(131,1461,o),
(56,1386,o),
(56,1293,cs),
(56,0,l)
);
},
{
closed = 1;
nodes = (
(116,1293,ls),
(116,1352,o),
(166,1401,o),
(227,1401,cs),
(285,1401,o),
(335,1352,o),
(335,1293,cs),
(335,547,l),
(307,575,o),
(269,594,o),
(227,594,cs),
(182,594,o),
(144,575,o),
(116,547,c)
);
}
);
width = 706;
}
);
unicode = 198;
},
{
glyphname = B;
kernLeft = "20";
kernRight = "20";
lastChange = "2024-04-18 14:55:36 +0000";
layers = (
{
hints = (
{
name = _corner.serif;
origin = (0,17);
type = Corner;
}
);
layerId = "229FC374-6BB7-493E-A0DB-CDCFAB367F2C";
shapes = (
{
closed = 1;
nodes = (
(227,0,ls),
(319,0,o),
(395,75,o),
(395,168,cs),
(395,1018,ls),
(395,1075,o),
(363,1127,o),
(318,1156,c),
(363,1185,o),
(395,1236,o),
(395,1293,cs),
(395,1386,o),
(319,1461,o),
(227,1461,cs),
(131,1461,o),
(56,1386,o),
(56,1293,cs),
(56,0,l)
);
},
{
closed = 1;
nodes = (
(116,1293,ls),
(116,1352,o),
(166,1401,o),
(227,1401,cs),
(285,1401,o),
(335,1352,o),
(335,1293,cs),
(335,1235,o),
(285,1186,o),
(227,1186,c),
(227,1126,l),
(285,1126,o),
(335,1076,o),
(335,1018,cs),
(335,168,ls),
(335,109,o),
(285,60,o),
(227,60,cs),
(116,60,l)
);
}
);
width = 427;
}
);
unicode = 66;
},
{
glyphname = C;
kernLeft = "20";
kernRight = "20";
lastChange = "2024-04-18 14:55:36 +0000";
layers = (
{
anchors = (
{
name = bottom;
pos = (244,20);
}
);
hints = (
{
name = _corner.serif;
origin = (0,23);
type = Corner;
}
);
layerId = "229FC374-6BB7-493E-A0DB-CDCFAB367F2C";
shapes = (
{
closed = 1;
nodes = (
(227,0,ls),
(319,0,o),
(395,75,o),
(395,168,c),
(335,168,l),
(335,109,o),
(285,60,o),
(227,60,cs),
(116,60,l),
(116,1293,ls),
(116,1352,o),
(166,1401,o),
(227,1401,cs),
(285,1401,o),
(335,1352,o),
(335,1293,c),
(395,1293,l),
(395,1386,o),
(319,1461,o),
(227,1461,cs),
(131,1461,o),
(56,1386,o),
(56,1293,cs),
(56,0,l)
);
}
);
width = 427;
}
);
unicode = 67;
},
{
glyphname = D;
kernLeft = "20";
kernRight = "20";
lastChange = "2024-04-18 14:55:36 +0000";
layers = (
{
hints = (
{
name = _corner.serif;
origin = (0,23);
type = Corner;
}
);
layerId = "229FC374-6BB7-493E-A0DB-CDCFAB367F2C";
shapes = (
{
closed = 1;
nodes = (
(116,0,l),
(116,1293,ls),
(116,1352,o),
(166,1401,o),
(227,1401,cs),
(285,1401,o),
(335,1352,o),
(335,1293,cs),
(335,168,ls),
(335,109,o),
(285,60,o),
(227,60,c),
(227,0,l),
(319,0,o),
(395,75,o),
(395,168,cs),
(395,1293,ls),
(395,1386,o),
(319,1461,o),
(227,1461,cs),
(131,1461,o),
(56,1386,o),
(56,1293,cs),
(56,0,l)
);
}
);
width = 427;
}
);
unicode = 68;
},
{
glyphname = Eth;
lastChange = "2024-04-18 14:55:36 +0000";
layers = (
{
hints = (
{
horizontal = 1;
origin = (0,31);
target = (0,15);
type = Stem;
},
{
horizontal = 1;
origin = (0,29);
target = (0,28);
type = Stem;
},
{
horizontal = 1;
origin = (0,23);
target = (0,8);
type = Stem;
},
{
origin = (0,31);
target = (0,0);
type = Stem;
},
{
origin = (0,12);
target = (0,19);
type = Stem;
},
{
name = _corner.serif;
origin = (0,31);
type = Corner;
}
);
layerId = "229FC374-6BB7-493E-A0DB-CDCFAB367F2C";
shapes = (
{
closed = 1;
nodes = (
(185,0,l),
(185,701,l),
(273,701,l),
(273,761,l),
(185,761,l),
(185,1293,ls),
(185,1352,o),
(234,1401,o),
(295,1401,cs),
(354,1401,o),
(403,1352,o),
(403,1293,cs),
(403,168,ls),
(403,109,o),
(354,60,o),
(295,60,c),
(295,0,l),
(388,0,o),
(464,75,o),
(464,168,cs),
(464,1293,ls),
(464,1386,o),
(388,1461,o),
(295,1461,cs),
(200,1461,o),
(125,1386,o),
(125,1293,cs),
(125,761,l),
(33,761,l),
(33,701,l),
(125,701,l),
(125,0,l)
);
}
);
width = 496;
}
);
unicode = 208;
},
{
glyphname = E;
kernLeft = "20";
kernRight = "20";
lastChange = "2024-04-18 14:55:36 +0000";
layers = (
{
anchors = (
{
name = top;
pos = (227,1546);
}
);
hints = (
{
name = _corner.serif;
origin = (0,27);
type = Corner;
}
);
layerId = "229FC374-6BB7-493E-A0DB-CDCFAB367F2C";
shapes = (
{
closed = 1;
nodes = (
(227,0,ls),
(319,0,o),
(395,75,o),
(395,168,c),
(335,168,l),
(335,109,o),
(285,60,o),
(227,60,cs),
(116,60,l),
(116,701,l),
(239,701,l),
(239,761,l),
(116,761,l),
(116,1293,ls),
(116,1352,o),
(166,1401,o),
(227,1401,cs),
(285,1401,o),
(335,1352,o),
(335,1293,c),
(395,1293,l),
(395,1386,o),
(319,1461,o),
(227,1461,cs),
(131,1461,o),
(56,1386,o),
(56,1293,cs),
(56,0,l)
);
}
);
width = 427;
}
);
unicode = 69;
},
{
glyphname = F;
kernLeft = "20";
kernRight = "20";
lastChange = "2024-04-18 14:55:36 +0000";
layers = (
{
hints = (
{
name = _corner.serif;
origin = (0,19);
type = Corner;
}
);
layerId = "229FC374-6BB7-493E-A0DB-CDCFAB367F2C";
shapes = (
{
closed = 1;
nodes = (
(116,0,l),
(116,462,l),
(227,462,l),
(227,522,l),
(116,522,l),
(116,1293,ls),
(116,1352,o),
(166,1401,o),
(227,1401,cs),
(285,1401,o),
(335,1352,o),
(335,1293,c),
(395,1293,l),
(395,1386,o),
(319,1461,o),
(227,1461,cs),
(131,1461,o),
(56,1386,o),
(56,1293,cs),
(56,0,l)
);
}
);
width = 427;
}
);
unicode = 70;
userData = {
KernOnName = F;
};
},
{
glyphname = G;
kernLeft = "20";
kernRight = "20";
lastChange = "2024-04-18 14:55:36 +0000";
layers = (
{
hints = (
{
name = _corner.serif;
origin = (0,29);
type = Corner;
}
);
layerId = "229FC374-6BB7-493E-A0DB-CDCFAB367F2C";
shapes = (
{
closed = 1;
nodes = (
(227,0,ls),
(270,0,o),
(308,18,o),
(335,47,c),
(335,0,l),
(395,0,l),
(395,552,l),
(227,552,l),
(227,492,l),
(335,492,l),
(335,168,ls),
(335,109,o),
(285,60,o),
(227,60,cs),
(116,60,l),
(116,1293,ls),
(116,1352,o),
(166,1401,o),
(227,1401,cs),
(285,1401,o),
(335,1352,o),
(335,1293,c),
(395,1293,l),
(395,1386,o),
(319,1461,o),
(227,1461,cs),
(131,1461,o),
(56,1386,o),
(56,1293,cs),
(56,0,l)
);
}
);
width = 427;
}
);
unicode = 71;
},
{
glyphname = H;
kernLeft = "20";
kernRight = "20";
lastChange = "2024-04-18 14:55:36 +0000";
layers = (
{
hints = (
{
name = _corner.serif;
origin = (0,12);
type = Corner;
},
{
name = _corner.serif;
options = 1;
origin = (0,0);
scale = (-1,1);
type = Corner;
}
);
layerId = "229FC374-6BB7-493E-A0DB-CDCFAB367F2C";
shapes = (
{
closed = 1;
nodes = (
(395,0,l),
(395,1461,l),
(335,1461,l),
(335,546,l),
(308,575,o),
(269,594,o),
(227,594,cs),
(183,594,o),
(143,575,o),
(116,546,c),
(116,1461,l),
(56,1461,l),
(56,0,l),
(116,0,l),
(116,426,ls),
(116,484,o),
(166,534,o),
(227,534,cs),
(285,534,o),
(335,484,o),
(335,426,cs),
(335,0,l)
);
}
);
width = 451;
}
);
unicode = 72;
userData = {
KernOnName = H;
};
},
{
glyphname = I;
kernLeft = "20";
kernRight = "20";
lastChange = "2024-04-18 14:55:36 +0000";
layers = (
{
anchors = (
{
name = top;
pos = (86,1546);
}
);
hints = (
{
name = _corner.serif;
options = 1;
origin = (0,0);
scale = (-1,1);
type = Corner;
},
{
name = _corner.serif;
options = 2;
origin = (0,1);
type = Corner;
},
{
name = _corner.serif;
options = 1;
origin = (0,2);
scale = (-1,1);
type = Corner;
},
{
name = _corner.serif;
options = 2;
origin = (0,3);
type = Corner;
}
);
layerId = "229FC374-6BB7-493E-A0DB-CDCFAB367F2C";
shapes = (
{
closed = 1;
nodes = (
(116,0,l),
(116,1461,l),
(56,1461,l),
(56,0,l)
);
}
);
width = 172;
}
);
unicode = 73;
userData = {
KernOnName = I;
};
},
{
glyphname = IJ;
lastChange = "2024-04-18 14:55:36 +0000";
layers = (
{
hints = (
{
name = _corner.serif;
options = 1;
origin = (0,2);
scale = (-1,1);
type = Corner;
},
{
name = _corner.serif;
origin = (1,1);
type = Corner;
}
);
layerId = "229FC374-6BB7-493E-A0DB-CDCFAB367F2C";
shapes = (
{
closed = 1;
nodes = (
(116,601,l),
(116,1461,l),
(56,1461,l),
(56,601,l)
);
},
{
closed = 1;
nodes = (
(392,168,l),
(392,1461,l),
(332,1461,l),
(332,168,l)
);
},
{
closed = 1;
nodes = (
(224,60,l),
(166,60,o),
(116,109,o),
(116,168,c),
(56,168,l),
(56,75,o),
(131,0,o),
(224,0,c)
);
},
{
closed = 1;
nodes = (
(317,0,o),
(392,75,o),
(392,168,c),
(332,168,l),
(332,109,o),
(283,60,o),
(224,60,c),
(224,0,l)
);
}
);
width = 449;
}
);
unicode = 306;
},
{
glyphname = J;
kernLeft = "20";
kernRight = "20";
lastChange = "2024-04-18 14:55:36 +0000";
layers = (
{
anchors = (
{
name = top;
pos = (265,1546);
}
);
hints = (
{
name = _corner.serif;
origin = (0,1);
type = Corner;
}
);
layerId = "229FC374-6BB7-493E-A0DB-CDCFAB367F2C";
shapes = (
{
closed = 1;
nodes = (
(369,168,l),
(369,1461,l),
(309,1461,l),
(309,168,l)
);
},
{
closed = 1;
nodes = (
(201,60,l),
(142,60,o),
(93,109,o),
(93,168,c),
(33,168,l),
(33,75,o),
(108,0,o),
(201,0,c)
);
},
{
closed = 1;
nodes = (
(294,0,o),
(369,75,o),
(369,168,c),
(309,168,l),
(309,109,o),
(260,60,o),
(201,60,c),
(201,0,l)
);
}
);
width = 425;
}
);
unicode = 74;
},
{
glyphname = K;
kernLeft = "20";
kernRight = "20";
lastChange = "2024-04-18 14:55:36 +0000";
layers = (
{
hints = (
{
name = _corner.serif;
origin = (0,28);
type = Corner;
},
{
name = _corner.serif;
options = 1;
origin = (0,9);
scale = (-1,1);
type = Corner;
}
);
layerId = "229FC374-6BB7-493E-A0DB-CDCFAB367F2C";
shapes = (
{
closed = 1;
nodes = (
(116,0,l),
(116,426,ls),
(116,484,o),
(166,534,o),
(227,534,cs),
(285,534,o),
(335,484,o),
(335,426,cs),
(335,0,l),
(395,0,l),
(395,426,ls),
(395,485,o),
(363,535,o),
(318,564,c),
(363,592,o),
(395,643,o),
(395,701,cs),
(395,1461,l),
(335,1461,l),
(335,701,ls),
(335,643,o),
(285,594,o),
(227,594,cs),
(183,594,o),
(143,575,o),
(116,546,c),
(116,1461,l),
(56,1461,l),
(56,0,l)
);
}
);
width = 451;
}
);
unicode = 75;
},
{
glyphname = L;
kernLeft = "20";
kernRight = "20";
lastChange = "2024-04-18 14:55:36 +0000";
layers = (
{
hints = (
{
name = _corner.serif;
origin = (0,3);
type = Corner;
}
);
layerId = "229FC374-6BB7-493E-A0DB-CDCFAB367F2C";
shapes = (
{
closed = 1;
nodes = (
(116,0,l),
(116,1461,l),
(56,1461,l),
(56,0,l)
);
},
{
closed = 1;
nodes = (
(344,0,l),
(344,60,l),
(77,60,l),
(77,0,l)
);
}
);
width = 377;
}
);
unicode = 76;
},
{
glyphname = M;
kernLeft = "20";
kernRight = "20";
lastChange = "2024-04-18 14:55:36 +0000";
layers = (
{
hints = (
{
name = _corner.serif;
origin = (0,32);
type = Corner;
},
{
name = _corner.serif;
options = 1;
origin = (0,18);
scale = (-1,1);
type = Corner;
}
);
layerId = "229FC374-6BB7-493E-A0DB-CDCFAB367F2C";
shapes = (
{
closed = 1;
nodes = (
(116,0,l),
(116,1293,ls),
(116,1352,o),
(166,1401,o),
(227,1401,cs),
(285,1401,o),
(335,1352,o),
(335,1293,cs),
(335,0,l),
(395,0,l),
(395,1293,ls),
(395,1352,o),
(444,1401,o),
(505,1401,cs),
(564,1401,o),
(613,1352,o),
(613,1293,cs),
(613,0,l),
(673,0,l),
(673,1293,ls),
(673,1386,o),
(598,1461,o),
(505,1461,cs),
(446,1461,o),
(394,1429,o),
(365,1384,c),
(336,1429,o),
(285,1461,o),
(227,1461,cs),
(131,1461,o),
(56,1386,o),
(56,1293,cs),
(56,0,l)
);
}
);
width = 729;
}
);
unicode = 77;
},
{
glyphname = N;
kernLeft = "20";
kernRight = "20";
lastChange = "2024-04-18 14:55:36 +0000";
layers = (
{
anchors = (
{
name = top;
pos = (224,1546);
}
);
hints = (
{
name = _corner.serif;
origin = (0,17);
type = Corner;
},
{
name = _corner.serif;
options = 1;
origin = (0,9);
scale = (-1,1);
type = Corner;
}
);
layerId = "229FC374-6BB7-493E-A0DB-CDCFAB367F2C";
shapes = (
{
closed = 1;
nodes = (
(116,0,l),
(116,1293,ls),
(116,1352,o),
(166,1401,o),
(227,1401,cs),
(285,1401,o),
(335,1352,o),
(335,1293,cs),
(335,0,l),
(395,0,l),
(395,1293,ls),
(395,1386,o),
(319,1461,o),
(227,1461,cs),
(131,1461,o),
(56,1386,o),
(56,1293,cs),
(56,0,l)
);
}
);
width = 451;
}
);
unicode = 78;
},
{
glyphname = O;
kernLeft = "20";
kernRight = "20";
lastChange = "2024-04-18 14:55:36 +0000";
layers = (
{
anchors = (
{
name = top;
pos = (200,1546);
}
);
layerId = "229FC374-6BB7-493E-A0DB-CDCFAB367F2C";
shapes = (
{
closed = 1;
nodes = (
(93,1293,l),
(93,1352,o),
(142,1401,o),
(203,1401,cs),
(262,1401,o),
(311,1352,o),
(311,1293,c),
(371,1293,l),
(371,1386,o),
(296,1461,o),
(203,1461,cs),
(108,1461,o),
(33,1386,o),
(33,1293,c)
);
},
{
closed = 1;
nodes = (
(296,0,o),
(371,75,o),
(371,168,c),
(311,168,l),
(311,109,o),
(262,60,o),
(203,60,cs),
(142,60,o),
(93,109,o),
(93,168,c),
(33,168,l),
(33,75,o),
(108,0,o),
(203,0,cs)
);
},
{
closed = 1;
nodes = (
(93,168,l),
(93,1293,l),
(33,1293,l),
(33,168,l)
);
},
{
closed = 1;
nodes = (
(371,168,l),
(371,1293,l),
(311,1293,l),
(311,168,l)
);
}
);
width = 404;
}
);
unicode = 79;
userData = {
KernOnName = O;
};
},
{
glyphname = Oslash;
kernLeft = "20";
kernRight = "20";
lastChange = "2024-04-18 14:55:36 +0000";
layers = (
{
layerId = "229FC374-6BB7-493E-A0DB-CDCFAB367F2C";
shapes = (
{
closed = 1;
nodes = (
(95,0,l),
(102,36,l),
(129,13,o),
(164,0,o),
(203,0,cs),
(296,0,o),
(371,75,o),
(371,168,cs),
(371,1293,ls),
(371,1321,o),
(363,1348,o),
(353,1371,c),
(371,1461,l),
(309,1461,l),
(303,1424,l),
(275,1448,o),
(241,1461,o),
(203,1461,cs),
(108,1461,o),
(33,1386,o),
(33,1293,cs),
(33,168,ls),
(33,140,o),
(41,113,o),
(51,90,c),
(33,0,l)
);
},
{
closed = 1;
nodes = (
(168,60,o),
(137,78,o),
(121,105,c),
(311,1213,l),
(311,168,ls),
(311,109,o),
(262,60,o),
(203,60,cs)
);
},
{
closed = 1;
nodes = (
(93,1293,ls),
(93,1352,o),
(142,1401,o),
(203,1401,cs),
(237,1401,o),
(267,1383,o),
(283,1357,c),
(93,249,l)
);
}
);
width = 404;
}
);
unicode = 216;
},
{
glyphname = OE;
kernLeft = "20";
kernRight = "20";
lastChange = "2024-04-18 14:55:36 +0000";
layers = (
{
layerId = "229FC374-6BB7-493E-A0DB-CDCFAB367F2C";
shapes = (
{
closed = 1;
nodes = (
(246,0,o),
(284,18,o),
(311,47,c),
(311,0,l),
(482,0,ls),
(574,0,o),
(650,75,o),
(650,168,c),
(590,168,l),
(590,109,o),
(540,60,o),
(482,60,cs),
(371,60,l),
(371,701,l),
(494,701,l),
(494,761,l),
(371,761,l),
(371,1293,ls),
(371,1352,o),
(421,1401,o),
(482,1401,cs),
(540,1401,o),
(590,1352,o),
(590,1293,c),
(650,1293,l),
(650,1386,o),
(574,1461,o),
(482,1461,cs),
(422,1461,o),
(371,1429,o),
(341,1384,c),
(313,1429,o),
(261,1461,o),
(203,1461,cs),
(108,1461,o),
(33,1386,o),
(33,1293,cs),
(33,168,ls),
(33,75,o),
(108,0,o),
(203,0,cs)
);
},
{
closed = 1;
nodes = (
(142,60,o),
(93,109,o),
(93,168,cs),
(93,1293,ls),
(93,1352,o),
(142,1401,o),
(203,1401,cs),
(262,1401,o),
(311,1352,o),
(311,1293,cs),
(311,168,ls),
(311,109,o),
(262,60,o),
(203,60,cs)
);
}
);
width = 682;
}
);
unicode = 338;
},
{
glyphname = P;
kernLeft = "20";
kernRight = "20";
lastChange = "2024-04-18 14:55:36 +0000";
layers = (
{
hints = (
{
name = _corner.serif;
origin = (0,15);
type = Corner;
}
);
layerId = "229FC374-6BB7-493E-A0DB-CDCFAB367F2C";
shapes = (
{
closed = 1;
nodes = (
(116,0,l),
(116,581,l),
(144,552,o),
(182,534,o),
(227,534,cs),
(319,534,o),
(395,609,o),
(395,701,cs),
(395,1293,ls),
(395,1386,o),
(319,1461,o),
(227,1461,cs),
(131,1461,o),
(56,1386,o),
(56,1293,cs),
(56,0,l)
);
},
{
closed = 1;
nodes = (
(166,594,o),
(116,643,o),
(116,701,cs),
(116,1293,ls),
(116,1352,o),
(166,1401,o),
(227,1401,cs),
(285,1401,o),
(335,1352,o),
(335,1293,cs),
(335,701,ls),
(335,643,o),
(285,594,o),
(227,594,cs)
);
}
);
width = 427;
}
);
unicode = 80;
},
{
glyphname = Thorn;
lastChange = "2024-04-18 14:55:36 +0000";
layers = (
{
hints = (
{
name = _corner.serif;
options = 1;
origin = (0,16);
scale = (-1,1);
type = Corner;
},
{
name = _corner.serif;
options = 2;
origin = (0,17);
type = Corner;
}
);
layerId = "229FC374-6BB7-493E-A0DB-CDCFAB367F2C";
shapes = (
{
closed = 1;
nodes = (
(116,0,l),
(116,581,l),
(144,552,o),
(182,534,o),
(227,534,cs),
(319,534,o),
(395,609,o),
(395,701,cs),
(395,1293,ls),
(395,1386,o),
(319,1461,o),
(227,1461,cs),
(182,1461,o),
(144,1443,o),
(116,1415,c),
(116,1461,l),
(56,1461,l),
(56,0,l)
);
},
{
closed = 1;
nodes = (
(166,594,o),
(116,643,o),
(116,701,cs),
(116,1293,ls),
(116,1352,o),
(166,1401,o),
(227,1401,cs),
(285,1401,o),
(335,1352,o),
(335,1293,cs),
(335,701,ls),
(335,643,o),
(285,594,o),
(227,594,cs)
);
}
);
width = 427;
}
);
unicode = 222;
},
{
glyphname = Q;
kernLeft = "20";
kernRight = "20";
lastChange = "2024-04-18 14:55:36 +0000";
layers = (
{
layerId = "229FC374-6BB7-493E-A0DB-CDCFAB367F2C";
shapes = (
{
closed = 1;
nodes = (
(93,1293,l),
(93,1352,o),
(142,1401,o),
(203,1401,cs),
(262,1401,o),
(311,1352,o),
(311,1293,c),
(371,1293,l),
(371,1386,o),
(296,1461,o),
(203,1461,cs),
(108,1461,o),
(33,1386,o),
(33,1293,c)
);
},
{
closed = 1;
nodes = (
(296,0,o),
(371,75,o),
(371,168,c),
(311,168,l),
(311,109,o),
(262,60,o),
(203,60,cs),
(142,60,o),
(93,109,o),
(93,168,c),
(33,168,l),
(33,75,o),
(108,0,o),
(203,0,cs)
);
},
{
closed = 1;
nodes = (
(371,-48,l),
(310,-48,o),
(260,2,o),
(260,60,c),
(200,60,l),
(200,-33,o),
(276,-108,o),
(371,-108,c)
);
},
{
closed = 1;
nodes = (
(93,168,l),
(93,1293,l),
(33,1293,l),
(33,168,l)
);
},
{
closed = 1;
nodes = (
(371,168,l),
(371,1293,l),
(311,1293,l),
(311,168,l)
);
}
);
width = 404;
}
);
unicode = 81;
},
{
glyphname = R;
kernLeft = "20";
kernRight = "20";
lastChange = "2024-04-18 14:55:36 +0000";
layers = (
{
hints = (
{
name = _corner.serif;
origin = (0,32);
type = Corner;
},
{
name = _corner.serif;
options = 1;
origin = (0,17);
scale = (-1,1);
type = Corner;
}
);
layerId = "229FC374-6BB7-493E-A0DB-CDCFAB367F2C";
shapes = (
{
closed = 1;
nodes = (
(116,0,l),
(116,1293,ls),
(116,1352,o),
(166,1401,o),
(227,1401,cs),
(285,1401,o),
(335,1352,o),
(335,1293,cs),
(335,701,ls),
(335,643,o),
(285,594,o),
(227,594,c),
(227,534,l),
(285,534,o),
(335,484,o),
(335,426,cs),
(335,0,l),
(395,0,l),
(395,426,ls),
(395,484,o),
(363,535,o),
(318,564,c),
(363,593,o),
(395,644,o),
(395,701,cs),
(395,1293,ls),
(395,1386,o),
(319,1461,o),
(227,1461,cs),
(131,1461,o),
(56,1386,o),
(56,1293,cs),
(56,0,l)
);
}
);
width = 451;
}
);
unicode = 82;
userData = {
KernOnName = R;
};
},
{
glyphname = S;
kernLeft = "20";
kernRight = "20";
lastChange = "2024-04-18 14:55:36 +0000";
layers = (
{
anchors = (
{
name = top;
pos = (200,1546);
}
);
hints = (
{
name = _corner.serif;
origin = (0,36);
type = Corner;
}
);
layerId = "229FC374-6BB7-493E-A0DB-CDCFAB367F2C";
shapes = (
{
closed = 1;
nodes = (
(296,0,o),
(371,75,o),
(371,168,cs),
(371,1018,ls),
(371,1110,o),
(296,1186,o),
(203,1186,cs),
(142,1186,o),
(93,1235,o),
(93,1293,cs),
(93,1352,o),
(142,1401,o),
(203,1401,cs),
(262,1401,o),
(311,1352,o),
(311,1293,c),
(371,1293,l),
(371,1386,o),
(296,1461,o),
(203,1461,cs),
(108,1461,o),
(33,1386,o),
(33,1293,cs),
(33,1201,o),
(108,1126,o),
(203,1126,cs),
(262,1126,o),
(311,1076,o),
(311,1018,cs),
(311,168,ls),
(311,109,o),
(262,60,o),
(203,60,cs),
(142,60,o),
(93,109,o),
(93,168,cs),
(93,1018,l),
(33,1018,l),
(33,168,ls),
(33,75,o),
(108,0,o),
(203,0,cs)
);
}
);
width = 404;
}
);
unicode = 83;
},
{
glyphname = Germandbls;
lastChange = "2024-04-18 14:55:36 +0000";
layers = (
{
hints = (
{
name = _corner.serif;
options = 1;
origin = (0,2);
scale = (-1,1);
type = Corner;
},
{
name = _corner.serif;
origin = (0,3);
type = Corner;
}
);
layerId = "229FC374-6BB7-493E-A0DB-CDCFAB367F2C";
shapes = (
{
closed = 1;
nodes = (
(116,0,l),
(116,1461,l),
(56,1461,l),
(56,0,l)
);
},
{
closed = 1;
nodes = (
(319,0,o),
(395,75,o),
(395,168,c),
(335,168,l),
(335,109,o),
(285,60,o),
(227,60,c),
(227,0,l)
);
},
{
closed = 1;
nodes = (
(395,168,l),
(395,1018,l),
(335,1018,l),
(335,168,l)
);
},
{
closed = 1;
nodes = (
(395,1018,l),
(395,1110,o),
(319,1186,o),
(227,1186,c),
(227,1126,l),
(285,1126,o),
(335,1076,o),
(335,1018,c)
);
},
{
closed = 1;
nodes = (
(319,1126,o),
(395,1201,o),
(395,1293,c),
(335,1293,l),
(335,1235,o),
(285,1186,o),
(227,1186,c),
(227,1126,l)
);
},
{
closed = 1;
nodes = (
(394,1401,l),
(394,1461,l),
(69,1461,l),
(69,1401,l)
);
},
{
closed = 1;
nodes = (
(395,1293,l),
(395,1461,l),
(335,1461,l),
(335,1293,l)
);
}
);
width = 427;
}
);
unicode = 7838;
},
{
glyphname = T;
kernLeft = "20";
kernRight = "20";
lastChange = "2024-04-18 14:55:36 +0000";
layers = (
{
hints = (
{
name = _corner.serif;
options = 1;
origin = (0,8);
scale = (-1,1);
type = Corner;
},
{
name = _corner.serif;
options = 1;
origin = (0,0);
scale = (-1,1);
type = Corner;
},
{
name = _corner.serif;
origin = (0,13);
type = Corner;
}
);
layerId = "229FC374-6BB7-493E-A0DB-CDCFAB367F2C";
shapes = (
{
closed = 1;
nodes = (
(252,0,l),
(252,1293,ls),
(252,1352,o),
(302,1401,o),
(363,1401,cs),
(410,1401,l),
(410,1461,l),
(33,1461,l),
(33,1401,l),
(239,1401,l),
(210,1375,o),
(192,1336,o),
(192,1293,cs),
(192,0,l)
);
}
);
width = 443;
}
);
unicode = 84;
},
{
glyphname = U;
kernLeft = "20";
kernRight = "20";
lastChange = "2024-04-18 14:55:36 +0000";
layers = (
{
anchors = (
{
name = top;
pos = (224,1546);
}
);
hints = (
{
name = _corner.serif;
options = 1;
origin = (2,2);
scale = (-1,1);
type = Corner;
},
{
name = _corner.serif;
origin = (0,1);
type = Corner;
}
);
layerId = "229FC374-6BB7-493E-A0DB-CDCFAB367F2C";
shapes = (
{
closed = 1;
nodes = (
(395,168,l),
(395,1461,l),
(335,1461,l),
(335,168,l)
);
},
{
closed = 1;
nodes = (
(319,0,o),
(395,75,o),
(395,168,c),
(335,168,l),
(335,109,o),
(285,60,o),
(227,60,cs),
(166,60,o),
(116,109,o),
(116,168,c),
(56,168,l),
(56,75,o),
(131,0,o),
(227,0,cs)
);
},
{
closed = 1;
nodes = (
(116,168,l),
(116,1461,l),
(56,1461,l),
(56,168,l)
);
}
);
width = 451;
}
);
unicode = 85;
},
{
glyphname = V;
kernLeft = "20";
kernRight = "20";
lastChange = "2024-04-18 14:55:36 +0000";
layers = (
{
hints = (
{
name = _corner.serif;
options = 1;
origin = (0,10);
scale = (-1,1);
type = Corner;
},
{
name = _corner.serif;
origin = (0,3);
type = Corner;
}
);
layerId = "229FC374-6BB7-493E-A0DB-CDCFAB367F2C";
shapes = (
{
closed = 1;
nodes = (
(137,-36,o),
(305,-36,o),
(315,96,cs),
(389,1461,l),
(329,1461,l),
(256,109,ls),
(254,42,o),
(189,42,o),
(186,109,cs),
(111,1461,l),
(51,1461,l),
(128,96,ls)
);
}
);
width = 440;
}
);
unicode = 86;
},
{
glyphname = W;
kernLeft = "20";
kernRight = "20";
lastChange = "2024-04-18 14:55:36 +0000";
layers = (
{
anchors = (
{
name = top;
pos = (364,1546);
}
);
hints = (
{
name = _corner.serif;
options = 1;
origin = (0,28);
scale = (-1,1);
type = Corner;
},
{
name = _corner.serif;
origin = (0,9);
type = Corner;
}
);
layerId = "229FC374-6BB7-493E-A0DB-CDCFAB367F2C";
shapes = (
{
closed = 1;
nodes = (
(285,0,o),
(336,32,o),
(365,77,c),
(394,32,o),
(446,0,o),
(505,0,cs),
(598,0,o),
(673,75,o),
(673,168,cs),
(673,1461,l),
(613,1461,l),
(613,168,ls),
(613,109,o),
(564,60,o),
(505,60,cs),
(444,60,o),
(395,109,o),
(395,168,cs),
(395,1461,l),
(335,1461,l),
(335,168,ls),
(335,109,o),
(285,60,o),
(227,60,cs),
(166,60,o),
(116,109,o),
(116,168,cs),
(116,1461,l),
(56,1461,l),
(56,168,ls),
(56,75,o),
(131,0,o),
(227,0,cs)
);
}
);
width = 729;
}
);
unicode = 87;
},
{
glyphname = X;
kernLeft = "20";
kernRight = "20";
lastChange = "2024-04-18 14:55:36 +0000";
layers = (
{
hints = (
{
name = _corner.serif;
options = 1;
origin = (5,1);
scale = (-1,1);
type = Corner;
},
{
name = _corner.serif;
origin = (4,0);
type = Corner;
}
);
layerId = "229FC374-6BB7-493E-A0DB-CDCFAB367F2C";
shapes = (
{
closed = 1;
nodes = (
(131,927,o),
(56,852,o),
(56,760,c),
(116,760,l),
(116,818,o),
(166,867,o),
(227,867,cs),
(285,867,o),
(335,818,o),
(335,760,c),
(395,760,l),
(395,852,o),
(319,927,o),
(227,927,cs)
);
},
{
closed = 1;
nodes = (
(56,1035,l),
(116,1035,l),
(116,1461,l),
(56,1461,l)
);
},
{
closed = 1;
nodes = (
(335,1035,l),
(395,1035,l),
(395,1461,l),
(335,1461,l)
);
},
{
closed = 1;
nodes = (
(56,942,o),
(131,867,o),
(227,867,cs),
(319,867,o),
(395,942,o),
(395,1035,c),
(335,1035,l),
(335,977,o),
(285,927,o),
(227,927,cs),
(166,927,o),
(116,977,o),
(116,1035,c),
(56,1035,l)
);
},
{
closed = 1;
nodes = (
(56,0,l),
(116,0,l),
(116,760,l),
(56,760,l)
);
},
{
closed = 1;
nodes = (
(335,0,l),
(395,0,l),
(395,760,l),
(335,760,l)
);
}
);
width = 451;
}
);
unicode = 88;
},
{
glyphname = Y;
kernLeft = "20";
kernRight = "20";
lastChange = "2024-04-18 14:55:36 +0000";
layers = (
{
anchors = (
{
name = top;
pos = (224,1546);
}
);
hints = (
{
name = _corner.serif;
options = 1;
origin = (2,2);
scale = (-1,1);
type = Corner;
},
{
name = _corner.serif;
origin = (3,1);
type = Corner;
},
{
name = _corner.serif;
options = 1;
origin = (1,0);
scale = (-1,1);
type = Corner;
},
{
name = _corner.serif;
origin = (1,3);
type = Corner;
}
);
layerId = "229FC374-6BB7-493E-A0DB-CDCFAB367F2C";
shapes = (
{
closed = 1;
nodes = (
(319,534,o),
(395,609,o),
(395,701,c),
(335,701,l),
(335,643,o),
(285,594,o),
(227,594,cs),
(166,594,o),
(116,643,o),
(116,701,c),
(56,701,l),
(56,609,o),
(131,534,o),
(227,534,cs)
);
},
{
closed = 1;
nodes = (
(254,0,l),
(254,565,l),
(194,565,l),
(194,0,l)
);
},
{
closed = 1;
nodes = (
(116,701,l),
(116,1461,l),
(56,1461,l),
(56,701,l)
);
},
{
closed = 1;
nodes = (
(395,701,l),
(395,1461,l),
(335,1461,l),
(335,701,l)
);
}
);
width = 451;
}
);
unicode = 89;
},
{
glyphname = Z;
kernLeft = "20";
kernRight = "20";
lastChange = "2024-04-18 14:55:36 +0000";
layers = (
{
anchors = (
{
name = top;
pos = (202,1546);
}
);
hints = (
{
name = _corner.serif;
options = 1;
origin = (0,7);
scale = (-1,1);
type = Corner;
}
);
layerId = "229FC374-6BB7-493E-A0DB-CDCFAB367F2C";
shapes = (
{
closed = 1;
nodes = (
(371,0,l),
(371,60,l),
(93,60,l),
(93,158,l),
(371,1289,l),
(371,1461,l),
(33,1461,l),
(33,1401,l),
(311,1401,l),
(311,1303,l),
(33,172,l),
(33,0,l)
);
}
);
width = 404;
}
);
unicode = 90;
},
{
glyphname = a;
kernLeft = "20";
kernRight = "20";
lastChange = "2024-04-18 14:55:36 +0000";
layers = (
{
anchors = (
{
name = top;
pos = (197,1068);
}
);
hints = (
{
name = _corner.serif;
options = 1;
origin = (3,0);
scale = (-1,1);
type = Corner;
}
);
layerId = "229FC374-6BB7-493E-A0DB-CDCFAB367F2C";
shapes = (
{
closed = 1;
nodes = (
(93,822,l),
(93,877,o),
(139,923,o),
(197,923,cs),
(251,923,o),
(298,877,o),
(298,822,c),
(358,822,l),
(358,911,o),
(286,984,o),
(197,984,cs),
(105,984,o),
(33,911,o),
(33,822,c)
);
},
{
closed = 1;
nodes = (
(197,60,l),
(139,60,o),
(93,107,o),
(93,161,c),
(33,161,l),
(33,72,o),
(105,0,o),
(197,0,c)
);
},
{
closed = 1;
nodes = (
(93,161,l),
(93,822,l),
(33,822,l),
(33,161,l)
);
},
{
closed = 1;
nodes = (
(358,0,l),
(358,822,l),
(298,822,l),
(298,0,l)
);
}
);
width = 414;
}
);
unicode = 97;
},
{
glyphname = ae;
kernLeft = "20";
kernRight = "20";
lastChange = "2024-04-18 14:55:36 +0000";
layers = (
{
layerId = "229FC374-6BB7-493E-A0DB-CDCFAB367F2C";
shapes = (
{
closed = 1;
nodes = (
(197,60,l),
(139,60,o),
(93,107,o),
(93,161,cs),
(93,822,ls),
(93,877,o),
(139,923,o),
(197,923,cs),
(251,923,o),
(298,877,o),
(298,822,cs),
(298,0,l),
(358,0,l),
(358,46,l),
(383,18,o),
(419,0,o),
(462,0,c),
(462,60,l),
(405,60,o),
(358,107,o),
(358,161,cs),
(358,822,ls),
(358,877,o),
(405,923,o),
(462,923,cs),
(517,923,o),
(563,877,o),
(563,822,c),
(463,822,l),
(463,762,l),
(623,762,l),
(623,822,ls),
(623,911,o),
(551,984,o),
(462,984,cs),
(405,984,o),
(356,953,o),
(328,910,c),
(301,953,o),
(252,984,o),
(197,984,cs),
(105,984,o),
(33,911,o),
(33,822,cs),
(33,161,ls),
(33,72,o),
(105,0,o),
(197,0,c)
);
}
);
width = 656;
}
);
unicode = 230;
},
{
glyphname = b;
kernLeft = "20";
kernRight = "20";
lastChange = "2024-04-18 14:55:36 +0000";
layers = (
{
hints = (
{
name = _corner.serif;
options = 1;
origin = (0,2);
scale = (-1,1);
type = Corner;
}
);
layerId = "229FC374-6BB7-493E-A0DB-CDCFAB367F2C";
shapes = (
{
closed = 1;
nodes = (
(116,161,l),
(116,1461,l),
(56,1461,l),
(56,161,l)
);
},
{
closed = 1;
nodes = (
(309,0,o),
(382,72,o),
(382,161,c),
(322,161,l),
(322,107,o),
(275,60,o),
(218,60,cs),
(163,60,o),
(116,107,o),
(116,161,c),
(56,161,l),
(56,72,o),
(128,0,o),
(218,0,cs)
);
},
{
closed = 1;
nodes = (
(382,161,l),
(382,822,l),
(322,822,l),
(322,161,l)
);
},
{
closed = 1;
nodes = (
(382,822,l),
(382,911,o),
(309,984,o),
(218,984,c),
(218,923,l),
(275,923,o),
(322,877,o),
(322,822,c)
);
}
);
width = 414;
}
);
unicode = 98;
userData = {
KernOnName = b;
};
},
{
glyphname = c;
kernLeft = "20";
kernRight = "20";
lastChange = "2024-04-18 14:55:36 +0000";
layers = (
{
anchors = (
{
name = bottom;
pos = (270,24);
}
);
layerId = "229FC374-6BB7-493E-A0DB-CDCFAB367F2C";
shapes = (
{
closed = 1;
nodes = (
(93,822,l),
(93,877,o),
(139,923,o),
(197,923,cs),
(251,923,o),
(298,877,o),
(298,822,c),
(358,822,l),
(358,911,o),
(286,984,o),
(197,984,cs),
(105,984,o),
(33,911,o),
(33,822,c)
);
},
{
closed = 1;
nodes = (
(286,0,o),
(358,72,o),
(358,161,c),
(298,161,l),
(298,107,o),
(251,60,o),
(197,60,cs),
(139,60,o),
(93,107,o),
(93,161,c),
(33,161,l),
(33,72,o),
(105,0,o),
(197,0,cs)
);
},
{
closed = 1;
nodes = (
(93,161,l),
(93,822,l),
(33,822,l),
(33,161,l)
);
}
);
width = 391;
}
);
unicode = 99;
},
{
glyphname = d;
kernLeft = "20";
kernRight = "20";
lastChange = "2024-04-18 14:55:36 +0000";
layers = (
{
hints = (
{
name = _corner.serif;
origin = (0,1);
type = Corner;
}
);
layerId = "229FC374-6BB7-493E-A0DB-CDCFAB367F2C";
shapes = (
{
closed = 1;
nodes = (
(358,161,l),
(358,1461,l),
(298,1461,l),
(298,161,l)
);
},
{
closed = 1;
nodes = (
(286,0,o),
(358,72,o),
(358,161,c),
(298,161,l),
(298,107,o),
(251,60,o),
(197,60,cs),
(139,60,o),
(93,107,o),
(93,161,c),
(33,161,l),
(33,72,o),
(105,0,o),
(197,0,cs)
);
},
{
closed = 1;
nodes = (
(93,161,l),
(93,822,l),
(33,822,l),
(33,161,l)
);
},
{
closed = 1;
nodes = (
(93,822,l),
(93,877,o),
(139,923,o),
(197,923,c),
(197,984,l),
(105,984,o),
(33,911,o),
(33,822,c)
);
}
);
width = 414;
}
);
unicode = 100;
},
{
glyphname = eth;
lastChange = "2024-04-18 14:55:36 +0000";
layers = (
{
layerId = "229FC374-6BB7-493E-A0DB-CDCFAB367F2C";
shapes = (
{
closed = 1;
nodes = (
(358,161,l),
(358,1461,l),
(298,1461,l),
(298,161,l)
);
},
{
closed = 1;
nodes = (
(286,0,o),
(358,72,o),
(358,161,c),
(298,161,l),
(298,107,o),
(251,60,o),
(197,60,cs),
(139,60,o),
(93,107,o),
(93,161,c),
(33,161,l),
(33,72,o),
(105,0,o),
(197,0,cs)
);
},
{
closed = 1;
nodes = (
(93,161,l),
(93,822,l),
(33,822,l),
(33,161,l)
);
},
{
closed = 1;
nodes = (
(93,822,l),
(93,877,o),
(139,923,o),
(197,923,c),
(197,984,l),
(105,984,o),
(33,911,o),
(33,822,c)
);
},
{
closed = 1;
nodes = (
(476,1086,l),
(476,1146,l),
(301,1146,l),
(301,1086,l)
);
}
);
width = 509;
}
);
unicode = 240;
},
{
glyphname = e;
kernLeft = "20";
kernRight = "20";
lastChange = "2024-04-18 14:55:36 +0000";
layers = (
{
anchors = (
{
name = top;
pos = (197,1068);
}
);
layerId = "229FC374-6BB7-493E-A0DB-CDCFAB367F2C";
shapes = (
{
closed = 1;
nodes = (
(93,822,l),
(93,877,o),
(139,923,o),
(197,923,cs),
(251,923,o),
(298,877,o),
(298,822,c),
(358,822,l),
(358,911,o),
(286,984,o),
(197,984,cs),
(105,984,o),
(33,911,o),
(33,822,c)
);
},
{
closed = 1;
nodes = (
(197,60,l),
(139,60,o),
(93,107,o),
(93,161,c),
(33,161,l),
(33,72,o),
(105,0,o),
(197,0,c)
);
},
{
closed = 1;
nodes = (
(93,161,l),
(93,822,l),
(33,822,l),
(33,161,l)
);
},
{
closed = 1;
nodes = (
(358,762,l),
(358,822,l),
(198,822,l),
(198,762,l)
);
}
);
width = 391;
}
);
unicode = 101;
userData = {
KernOnName = e;
};
},
{
glyphname = f;
kernLeft = "20";
kernRight = "20";
lastChange = "2024-04-18 14:55:36 +0000";
layers = (
{
hints = (
{
name = _corner.serif;
origin = (0,3);
type = Corner;
}
);
layerId = "229FC374-6BB7-493E-A0DB-CDCFAB367F2C";
shapes = (
{
closed = 1;
nodes = (
(116,0,l),
(116,1300,l),
(56,1300,l),
(56,0,l)
);
},
{
closed = 1;
nodes = (
(220,463,l),
(220,523,l),
(74,523,l),
(74,463,l)
);
},
{
closed = 1;
nodes = (
(116,1300,l),
(116,1354,o),
(163,1401,o),
(220,1401,c),
(220,1461,l),
(128,1461,o),
(56,1389,o),
(56,1300,c)
);
}
);
width = 253;
}
);
unicode = 102;
},
{
glyphname = g;
kernLeft = "0";
kernRight = "0";
lastChange = "2024-04-18 14:55:36 +0000";
layers = (
{
layerId = "229FC374-6BB7-493E-A0DB-CDCFAB367F2C";
shapes = (
{
closed = 1;
nodes = (
(286,-482,o),
(358,-410,o),
(358,-321,cs),
(358,161,l),
(298,161,l),
(298,107,o),
(251,60,o),
(197,60,cs),
(139,60,o),
(93,107,o),
(93,161,cs),
(93,822,ls),
(93,877,o),
(139,923,o),
(197,923,c),
(197,984,l),
(105,984,o),
(33,911,o),
(33,822,cs),
(33,161,ls),
(33,72,o),
(105,0,o),
(197,0,cs),
(237,0,o),
(273,18,o),
(298,46,c),
(298,-321,ls),
(298,-375,o),
(251,-422,o),
(194,-422,c),
(194,-482,l)
);
}
);
width = 391;
}
);
unicode = 103;
},
{
glyphname = h;
kernLeft = "20";
kernRight = "20";
lastChange = "2024-04-18 14:55:36 +0000";
layers = (
{
hints = (
{
name = _corner.serif;
origin = (0,19);
type = Corner;
},
{
name = _corner.serif;
options = 1;
origin = (0,9);
scale = (-1,1);
type = Corner;
},
{
name = _corner.serif;
options = 1;
origin = (0,18);
scale = (-1,1);
type = Corner;
}
);
layerId = "229FC374-6BB7-493E-A0DB-CDCFAB367F2C";
shapes = (
{
closed = 1;
nodes = (
(116,0,l),
(116,822,ls),
(116,877,o),
(163,923,o),
(220,923,cs),
(275,923,o),
(322,877,o),
(322,822,cs),
(322,0,l),
(382,0,l),
(382,822,ls),
(382,911,o),
(309,984,o),
(220,984,cs),
(177,984,o),
(142,966,o),
(116,938,c),
(116,1461,l),
(56,1461,l),
(56,0,l)
);
}
);
width = 438;
}
);
unicode = 104;
},
{
glyphname = i;
kernLeft = "20";
kernRight = "20";
lastChange = "2024-04-18 14:55:36 +0000";
layers = (
{
hints = (
{
name = _corner.serif;
options = 1;
origin = (0,2);
scale = (-1,1);
type = Corner;
},
{
name = _corner.serif;
options = 2;
origin = (0,3);
type = Corner;
}
);
layerId = "229FC374-6BB7-493E-A0DB-CDCFAB367F2C";
shapes = (
{
closed = 1;
nodes = (
(116,0,l),
(116,984,l),
(56,984,l),
(56,0,l)
);
},
{
closed = 1;
nodes = (
(103,1296,o),
(116,1309,o),
(116,1326,cs),
(116,1344,o),
(103,1356,o),
(86,1356,cs),
(69,1356,o),
(56,1344,o),
(56,1326,cs),
(56,1309,o),
(69,1296,o),
(86,1296,c)
);
}
);
width = 149;
}
);
unicode = 105;
userData = {
KernOnName = i;
};
},
{
glyphname = idotless;
kernLeft = "20";
kernRight = "20";
lastChange = "2024-04-18 14:55:36 +0000";
layers = (
{
anchors = (
{
name = top;
pos = (86,1068);
}
);
hints = (
{
name = _corner.serif;
options = 1;
origin = (0,2);
scale = (-1,1);
type = Corner;
},
{
name = _corner.serif;
options = 2;
origin = (0,3);
type = Corner;
}
);
layerId = "229FC374-6BB7-493E-A0DB-CDCFAB367F2C";
shapes = (
{
closed = 1;
nodes = (
(116,0,l),
(116,984,l),
(56,984,l),
(56,0,l)
);
}
);
width = 149;
}
);
unicode = 305;
},
{
glyphname = ij;
lastChange = "2024-04-18 14:55:36 +0000";
layers = (
{
hints = (
{
name = _corner.serif;
options = 1;
origin = (2,2);
scale = (-1,1);
type = Corner;
},
{
name = _corner.serif;
options = 2;
origin = (2,3);
type = Corner;
},
{
name = _corner.serif;
origin = (0,1);
type = Corner;
}
);
layerId = "229FC374-6BB7-493E-A0DB-CDCFAB367F2C";
shapes = (
{
closed = 1;
nodes = (
(280,-321,l),
(280,984,l),
(220,984,l),
(220,-321,l)
);
},
{
closed = 1;
nodes = (
(208,-482,o),
(280,-410,o),
(280,-321,c),
(220,-321,l),
(220,-375,o),
(173,-422,o),
(116,-422,c),
(116,-482,l)
);
},
{
closed = 1;
nodes = (
(116,0,l),
(116,984,l),
(56,984,l),
(56,0,l)
);
},
{
closed = 1;
nodes = (
(103,1296,o),
(116,1309,o),
(116,1326,cs),
(116,1344,o),
(103,1356,o),
(86,1356,cs),
(69,1356,o),
(56,1344,o),
(56,1326,cs),
(56,1309,o),
(69,1296,o),
(86,1296,c)
);
},
{
closed = 1;
nodes = (
(268,1299,o),
(280,1312,o),
(280,1329,cs),
(280,1347,o),
(268,1359,o),
(250,1359,cs),
(233,1359,o),
(220,1347,o),
(220,1329,cs),
(220,1312,o),
(233,1299,o),
(250,1299,c)
);
}
);
width = 336;
}
);
unicode = 307;
},
{
glyphname = j;
kernRight = "20";
lastChange = "2024-04-18 14:55:36 +0000";
layers = (
{
anchors = (
{
name = top;
pos = (181,1584);
}
);
hints = (
{
name = _corner.serif;
origin = (0,1);
type = Corner;
}
);
layerId = "229FC374-6BB7-493E-A0DB-CDCFAB367F2C";
shapes = (
{
closed = 1;
nodes = (
(197,-321,l),
(197,984,l),
(137,984,l),
(137,-321,l)
);
},
{
closed = 1;
nodes = (
(124,-482,o),
(197,-410,o),
(197,-321,c),
(137,-321,l),
(137,-375,o),
(90,-422,o),
(33,-422,c),
(33,-482,l)
);
},
{
closed = 1;
nodes = (
(184,1299,o),
(197,1312,o),
(197,1329,cs),
(197,1347,o),
(184,1359,o),
(167,1359,cs),
(150,1359,o),
(137,1347,o),
(137,1329,cs),
(137,1312,o),
(150,1299,o),
(167,1299,c)
);
}
);
width = 253;
}
);
unicode = 106;
userData = {
KernOnName = j;
};
},
{
glyphname = jdotless;
lastChange = "2024-04-18 14:55:36 +0000";
layers = (
{
hints = (
{
name = _corner.serif;
origin = (0,1);
type = Corner;
}
);
layerId = "229FC374-6BB7-493E-A0DB-CDCFAB367F2C";
shapes = (
{
closed = 1;
nodes = (
(197,-321,l),
(197,984,l),
(137,984,l),
(137,-321,l)
);
},
{
closed = 1;
nodes = (
(124,-482,o),
(197,-410,o),
(197,-321,c),
(137,-321,l),
(137,-375,o),
(90,-422,o),
(33,-422,c),
(33,-482,l)
);
}
);
width = 253;
}
);
unicode = 567;
},
{
glyphname = k;
kernLeft = "20";
kernRight = "20";
lastChange = "2024-04-18 14:55:36 +0000";
layers = (
{
hints = (
{
name = _corner.serif;
options = 1;
origin = (0,25);
scale = (-1,1);
type = Corner;
},
{
name = _corner.serif;
options = 2;
origin = (0,26);
type = Corner;
}
);
layerId = "229FC374-6BB7-493E-A0DB-CDCFAB367F2C";
shapes = (
{
closed = 1;
nodes = (
(116,0,l),
(116,149,l),
(142,121,o),
(177,104,o),
(220,104,cs),
(275,104,o),
(322,57,o),
(322,0,c),
(382,0,l),
(382,57,o),
(351,106,o),
(308,134,c),
(351,161,o),
(382,210,o),
(382,265,cs),
(382,984,l),
(322,984,l),
(322,265,ls),
(322,211,o),
(275,164,o),
(220,164,cs),
(163,164,o),
(116,211,o),
(116,265,cs),
(116,1461,l),
(56,1461,l),
(56,0,l)
);
}
);
width = 414;
}
);
unicode = 107;
userData = {
KernOnName = k;
};
},
{
glyphname = l;
kernLeft = "20";
kernRight = "20";
lastChange = "2024-04-18 14:55:36 +0000";
layers = (
{
hints = (
{
name = _corner.serif;
options = 1;
origin = (0,2);
scale = (-1,1);
type = Corner;
},
{
name = _corner.serif;
options = 2;
origin = (0,3);
type = Corner;
}
);
layerId = "229FC374-6BB7-493E-A0DB-CDCFAB367F2C";
shapes = (
{
closed = 1;
nodes = (
(117,0,l),
(117,1461,l),
(56,1461,l),
(56,0,l)
);
}
);
width = 149;
}
);
unicode = 108;
userData = {
KernOnName = l;
};
},
{
glyphname = m;
kernLeft = "20";
kernRight = "20";
lastChange = "2024-04-18 14:55:36 +0000";
layers = (
{
hints = (
{
name = _corner.serif;
origin = (0,32);
type = Corner;
},
{
name = _corner.serif;
options = 1;
origin = (0,18);
scale = (-1,1);
type = Corner;
}
);
layerId = "229FC374-6BB7-493E-A0DB-CDCFAB367F2C";
shapes = (
{
closed = 1;
nodes = (
(116,0,l),
(116,822,ls),
(116,877,o),
(163,923,o),
(220,923,cs),
(275,923,o),
(322,877,o),
(322,822,cs),
(322,0,l),
(382,0,l),
(382,822,ls),
(382,877,o),
(428,923,o),
(485,923,cs),
(540,923,o),
(587,877,o),
(587,822,cs),
(587,0,l),
(647,0,l),
(647,822,ls),
(647,911,o),
(575,984,o),
(485,984,cs),
(429,984,o),
(380,953,o),
(352,910,c),
(324,953,o),
(275,984,o),
(220,984,cs),
(128,984,o),
(56,911,o),
(56,822,cs),
(56,0,l)
);
}
);
width = 703;
}
);
unicode = 109;
},
{
glyphname = n;
kernLeft = "20";
kernRight = "20";
lastChange = "2024-04-18 14:55:36 +0000";
layers = (
{
anchors = (
{
name = top;
pos = (220,1068);
}
);
hints = (
{
name = _corner.serif;
origin = (1,3);
type = Corner;
},
{
name = _corner.serif;
options = 1;
origin = (2,0);
scale = (-1,1);
type = Corner;
}
);
layerId = "229FC374-6BB7-493E-A0DB-CDCFAB367F2C";
shapes = (
{
closed = 1;
nodes = (
(116,822,l),
(116,877,o),
(163,923,o),
(220,923,cs),
(275,923,o),
(322,877,o),
(322,822,c),
(382,822,l),
(382,911,o),
(309,984,o),
(220,984,cs),
(128,984,o),
(56,911,o),
(56,822,c)
);
},
{
closed = 1;
nodes = (
(116,0,l),
(116,822,l),
(56,822,l),
(56,0,l)
);
},
{
closed = 1;
nodes = (
(382,0,l),
(382,822,l),
(322,822,l),
(322,0,l)
);
}
);
width = 438;
}
);
unicode = 110;
userData = {
KernOnName = n;
};
},
{
glyphname = o;
kernLeft = "20";
kernRight = "20";
lastChange = "2024-04-18 14:55:36 +0000";
layers = (
{
anchors = (
{
name = top;
pos = (197,1068);
}
);
layerId = "229FC374-6BB7-493E-A0DB-CDCFAB367F2C";
shapes = (
{
closed = 1;
nodes = (
(93,822,l),
(93,877,o),
(139,923,o),
(197,923,cs),
(251,923,o),
(298,877,o),
(298,822,c),
(358,822,l),
(358,911,o),
(286,984,o),
(197,984,cs),
(105,984,o),
(33,911,o),
(33,822,c)
);
},
{
closed = 1;
nodes = (
(286,0,o),
(358,72,o),
(358,161,c),
(298,161,l),
(298,107,o),
(251,60,o),
(197,60,cs),
(139,60,o),
(93,107,o),
(93,161,c),
(33,161,l),
(33,72,o),
(105,0,o),
(197,0,cs)
);
},
{
closed = 1;
nodes = (
(93,161,l),
(93,822,l),
(33,822,l),
(33,161,l)
);
},
{
closed = 1;
nodes = (
(358,161,l),
(358,822,l),
(298,822,l),
(298,161,l)
);
}
);
width = 391;
}
);
unicode = 111;
userData = {
KernOnName = o;
};
},
{
glyphname = oslash;
kernLeft = "20";
kernRight = "20";
lastChange = "2024-04-18 14:55:36 +0000";
layers = (
{
anchors = (
{
name = top;
pos = (449,565);
}
);
layerId = "229FC374-6BB7-493E-A0DB-CDCFAB367F2C";
shapes = (
{
closed = 1;
nodes = (
(93,822,l),
(93,877,o),
(139,923,o),
(197,923,cs),
(251,923,o),
(298,877,o),
(298,822,c),
(358,822,l),
(358,911,o),
(286,984,o),
(197,984,cs),
(105,984,o),
(33,911,o),
(33,822,c)
);
},
{
closed = 1;
nodes = (
(99,0,l),
(137,63,l),
(85,90,l),
(33,0,l)
);
},
{
closed = 1;
nodes = (
(286,0,o),
(358,72,o),
(358,161,c),
(298,161,l),
(298,107,o),
(251,60,o),
(197,60,cs),
(139,60,o),
(93,107,o),
(93,161,c),
(33,161,l),
(33,72,o),
(105,0,o),
(197,0,cs)
);
},
{
closed = 1;
nodes = (
(93,161,l),
(93,822,l),
(33,822,l),
(33,161,l)
);
},
{
closed = 1;
nodes = (
(358,161,l),
(358,822,l),
(298,822,l),
(298,161,l)
);
},
{
closed = 1;
nodes = (
(358,984,l),
(291,984,l),
(258,929,l),
(309,898,l)
);
}
);
width = 391;
}
);
unicode = 248;
},
{
glyphname = oe;
kernLeft = "20";
kernRight = "20";
lastChange = "2024-04-18 14:55:36 +0000";
layers = (
{
layerId = "229FC374-6BB7-493E-A0DB-CDCFAB367F2C";
shapes = (
{
closed = 1;
nodes = (
(252,0,o),
(301,31,o),
(328,73,c),
(356,31,o),
(405,0,o),
(462,0,c),
(462,60,l),
(405,60,o),
(358,107,o),
(358,161,cs),
(358,822,ls),
(358,877,o),
(405,923,o),
(462,923,cs),
(517,923,o),
(563,877,o),
(563,822,c),
(463,822,l),
(463,762,l),
(623,762,l),
(623,822,ls),
(623,911,o),
(551,984,o),
(462,984,cs),
(405,984,o),
(356,953,o),
(328,910,c),
(301,953,o),
(252,984,o),
(197,984,cs),
(105,984,o),
(33,911,o),
(33,822,cs),
(33,161,ls),
(33,72,o),
(105,0,o),
(197,0,cs)
);
},
{
closed = 1;
nodes = (
(139,60,o),
(93,107,o),
(93,161,cs),
(93,822,ls),
(93,877,o),
(139,923,o),
(197,923,cs),
(251,923,o),
(298,877,o),
(298,822,cs),
(298,161,ls),
(298,107,o),
(251,60,o),
(197,60,cs)
);
}
);
width = 656;
}
);
unicode = 339;
},
{
glyphname = p;
kernLeft = "20";
kernRight = "20";
lastChange = "2024-04-18 14:55:36 +0000";
layers = (
{
hints = (
{
name = _corner.serif;
origin = (0,3);
type = Corner;
}
);
layerId = "229FC374-6BB7-493E-A0DB-CDCFAB367F2C";
shapes = (
{
closed = 1;
nodes = (
(116,-478,l),
(116,822,l),
(56,822,l),
(56,-478,l)
);
},
{
closed = 1;
nodes = (
(309,0,o),
(382,72,o),
(382,161,c),
(322,161,l),
(322,107,o),
(275,60,o),
(218,60,c),
(218,0,l)
);
},
{
closed = 1;
nodes = (
(382,161,l),
(382,822,l),
(322,822,l),
(322,161,l)
);
},
{
closed = 1;
nodes = (
(116,822,l),
(116,877,o),
(163,923,o),
(218,923,cs),
(275,923,o),
(322,877,o),
(322,822,c),
(382,822,l),
(382,911,o),
(309,984,o),
(218,984,cs),
(128,984,o),
(56,911,o),
(56,822,c)
);
}
);
width = 414;
}
);
unicode = 112;
userData = {
KernOnName = p;
};
},
{
glyphname = thorn;
lastChange = "2024-04-18 14:55:36 +0000";
layers = (
{
layerId = "229FC374-6BB7-493E-A0DB-CDCFAB367F2C";
shapes = (
{
closed = 1;
nodes = (
(93,-478,l),
(93,1461,l),
(33,1461,l),
(33,-478,l)
);
},
{
closed = 1;
nodes = (
(286,0,o),
(358,72,o),
(358,161,c),
(298,161,l),
(298,107,o),
(251,60,o),
(194,60,c),
(194,0,l)
);
},
{
closed = 1;
nodes = (
(358,161,l),
(358,822,l),
(298,822,l),
(298,161,l)
);
},
{
closed = 1;
nodes = (
(93,822,l),
(93,877,o),
(139,923,o),
(194,923,cs),
(251,923,o),
(298,877,o),
(298,822,c),
(358,822,l),
(358,911,o),
(286,984,o),
(194,984,cs),
(105,984,o),
(33,911,o),
(33,822,c)
);
}
);
width = 391;
}
);
unicode = 254;
},
{
glyphname = q;
kernLeft = "20";
kernRight = "20";
lastChange = "2024-04-18 14:55:36 +0000";
layers = (
{
layerId = "229FC374-6BB7-493E-A0DB-CDCFAB367F2C";
shapes = (
{
closed = 1;
nodes = (
(358,-101,l),
(358,-46,o),
(327,3,o),
(285,30,c),
(327,58,o),
(358,106,o),
(358,161,cs),
(358,822,ls),
(358,911,o),
(286,984,o),
(197,984,cs),
(105,984,o),
(33,911,o),
(33,822,cs),
(33,161,ls),
(33,72,o),
(105,0,o),
(197,0,cs),
(251,0,o),
(298,-47,o),
(298,-101,c)
);
},
{
closed = 1;
nodes = (
(139,60,o),
(93,107,o),
(93,161,cs),
(93,822,ls),
(93,877,o),
(139,923,o),
(197,923,cs),
(251,923,o),
(298,877,o),
(298,822,cs),
(298,161,ls),
(298,107,o),
(251,60,o),
(197,60,cs)
);
}
);
width = 391;
}
);
unicode = 113;
},
{
glyphname = r;
kernLeft = "20";
kernRight = "20";
lastChange = "2024-04-18 14:55:36 +0000";
layers = (
{
hints = (
{
name = _corner.serif;
origin = (0,3);
type = Corner;
}
);
layerId = "229FC374-6BB7-493E-A0DB-CDCFAB367F2C";
shapes = (
{
closed = 1;
nodes = (
(116,0,l),
(116,822,l),
(56,822,l),
(56,0,l)
);
},
{
closed = 1;
nodes = (
(116,822,l),
(116,877,o),
(163,923,o),
(220,923,c),
(220,984,l),
(128,984,o),
(56,911,o),
(56,822,c)
);
}
);
width = 253;
}
);
unicode = 114;
userData = {
KernOnName = r;
};
},
{
glyphname = s;
kernLeft = "20";
kernRight = "20";
lastChange = "2024-04-18 14:55:36 +0000";
layers = (
{
anchors = (
{
name = top;
pos = (197,1068);
}
);
layerId = "229FC374-6BB7-493E-A0DB-CDCFAB367F2C";
shapes = (
{
closed = 1;
nodes = (
(286,0,o),
(358,72,o),
(358,161,cs),
(358,522,l),
(93,522,l),
(93,822,ls),
(93,877,o),
(139,923,o),
(197,923,cs),
(224,923,o),
(249,912,o),
(268,893,c),
(310,936,l),
(282,964,o),
(241,984,o),
(197,984,cs),
(105,984,o),
(33,911,o),
(33,822,cs),
(33,462,l),
(298,462,l),
(298,161,ls),
(298,107,o),
(251,60,o),
(194,60,cs),
(167,60,o),
(142,71,o),
(123,90,c),
(81,48,l),
(109,20,o),
(150,0,o),
(194,0,cs)
);
}
);
width = 391;
}
);
unicode = 115;
},
{
glyphname = germandbls;
kernLeft = "20";
kernRight = "20";
lastChange = "2024-04-18 14:55:36 +0000";
layers = (
{
layerId = "229FC374-6BB7-493E-A0DB-CDCFAB367F2C";
shapes = (
{
closed = 1;
nodes = (
(93,0,l),
(93,1300,l),
(33,1300,l),
(33,0,l)
);
},
{
closed = 1;
nodes = (
(358,0,l),
(358,449,l),
(298,449,l),
(298,0,l)
);
},
{
closed = 1;
nodes = (
(358,449,l),
(358,538,o),
(286,611,o),
(197,611,c),
(197,551,l),
(251,551,o),
(298,504,o),
(298,449,c)
);
},
{
closed = 1;
nodes = (
(286,551,o),
(358,623,o),
(358,712,c),
(298,712,l),
(298,658,o),
(251,611,o),
(197,611,c),
(197,551,l)
);
},
{
closed = 1;
nodes = (
(358,712,l),
(358,1300,l),
(298,1300,l),
(298,712,l)
);
},
{
closed = 1;
nodes = (
(93,1300,l),
(93,1354,o),
(139,1401,o),
(197,1401,cs),
(251,1401,o),
(298,1354,o),
(298,1300,c),
(358,1300,l),
(358,1389,o),
(286,1461,o),
(197,1461,cs),
(105,1461,o),
(33,1389,o),
(33,1300,c)
);
}
);
width = 391;
}
);
unicode = 223;
},
{
glyphname = t;
kernLeft = "20";
kernRight = "20";
lastChange = "2024-04-18 14:55:36 +0000";
layers = (
{
hints = (
{
name = _corner.serif;
options = 1;
origin = (0,2);
scale = (-1,1);
type = Corner;
}
);
layerId = "229FC374-6BB7-493E-A0DB-CDCFAB367F2C";
shapes = (
{
closed = 1;
nodes = (
(116,161,l),
(116,1461,l),
(56,1461,l),
(56,161,l)
);
},
{
closed = 1;
nodes = (
(220,60,l),
(163,60,o),
(116,107,o),
(116,161,c),
(56,161,l),
(56,72,o),
(128,0,o),
(220,0,c)
);
},
{
closed = 1;
nodes = (
(220,923,l),
(220,984,l),
(74,984,l),
(74,923,l)
);
}
);
width = 253;
}
);
unicode = 116;
},
{
glyphname = u;
kernLeft = "20";
kernRight = "20";
lastChange = "2024-04-18 14:55:36 +0000";
layers = (
{
anchors = (
{
name = top;
pos = (220,1068);
}
);
hints = (
{
name = _corner.serif;
options = 1;
origin = (1,2);
scale = (-1,1);
type = Corner;
},
{
name = _corner.serif;
origin = (2,1);
type = Corner;
}
);
layerId = "229FC374-6BB7-493E-A0DB-CDCFAB367F2C";
shapes = (
{
closed = 1;
nodes = (
(309,0,o),
(382,72,o),
(382,161,c),
(322,161,l),
(322,107,o),
(275,60,o),
(220,60,cs),
(163,60,o),
(116,107,o),
(116,161,c),
(56,161,l),
(56,72,o),
(128,0,o),
(220,0,cs)
);
},
{
closed = 1;
nodes = (
(116,161,l),
(116,984,l),
(56,984,l),
(56,161,l)
);
},
{
closed = 1;
nodes = (
(382,161,l),
(382,984,l),
(322,984,l),
(322,161,l)
);
}
);
width = 438;
}
);
unicode = 117;
},
{
glyphname = v;
kernLeft = "20";
kernRight = "20";
lastChange = "2024-04-18 14:55:36 +0000";
layers = (
{
hints = (
{
name = _corner.serif;
options = 1;
origin = (0,1);
scale = (-1,1);
type = Corner;
},
{
name = _corner.serif;
origin = (0,6);
type = Corner;
}
);
layerId = "229FC374-6BB7-493E-A0DB-CDCFAB367F2C";
shapes = (
{
closed = 1;
nodes = (
(110,984,l),
(50,984,l),
(108,104,ls),
(118,-35,o),
(310,-35,o),
(320,104,cs),
(375,984,l),
(315,984,l),
(263,108,ls),
(260,42,o),
(170,42,o),
(166,108,cs)
);
}
);
width = 425;
}
);
unicode = 118;
},
{
glyphname = w;
kernLeft = "20";
kernRight = "20";
lastChange = "2024-04-18 14:55:36 +0000";
layers = (
{
anchors = (
{
name = top;
pos = (351,1068);
}
);
hints = (
{
name = _corner.serif;
options = 1;
origin = (2,2);
scale = (-1,1);
type = Corner;
},
{
name = _corner.serif;
origin = (4,1);
type = Corner;
}
);
layerId = "229FC374-6BB7-493E-A0DB-CDCFAB367F2C";
shapes = (
{
closed = 1;
nodes = (
(575,0,o),
(647,72,o),
(647,161,c),
(587,161,l),
(587,107,o),
(540,60,o),
(485,60,cs),
(428,60,o),
(382,107,o),
(382,161,c),
(322,161,l),
(322,72,o),
(394,0,o),
(485,0,cs)
);
},
{
closed = 1;
nodes = (
(309,0,o),
(382,72,o),
(382,161,c),
(322,161,l),
(322,107,o),
(275,60,o),
(220,60,cs),
(163,60,o),
(116,107,o),
(116,161,c),
(56,161,l),
(56,72,o),
(128,0,o),
(220,0,cs)
);
},
{
closed = 1;
nodes = (
(116,161,l),
(116,984,l),
(56,984,l),
(56,161,l)
);
},
{
closed = 1;
nodes = (
(382,161,l),
(382,984,l),
(322,984,l),
(322,161,l)
);
},
{
closed = 1;
nodes = (
(647,161,l),
(647,984,l),
(587,984,l),
(587,161,l)
);
}
);
width = 703;
}
);
unicode = 119;
},
{
glyphname = x;
kernLeft = "20";
kernRight = "20";
lastChange = "2024-04-18 14:55:36 +0000";
layers = (
{
hints = (
{
name = _corner.serif;
options = 1;
origin = (2,2);
scale = (-1,1);
type = Corner;
},
{
name = _corner.serif;
origin = (3,1);
type = Corner;
}
);
layerId = "229FC374-6BB7-493E-A0DB-CDCFAB367F2C";
shapes = (
{
closed = 1;
nodes = (
(309,101,o),
(382,174,o),
(382,263,c),
(322,263,l),
(322,208,o),
(275,161,o),
(220,161,cs),
(163,161,o),
(116,208,o),
(116,263,c),
(56,263,l),
(56,174,o),
(128,101,o),
(220,101,cs)
);
},
{
closed = 1;
nodes = (
(116,0,l),
(116,55,o),
(163,101,o),
(220,101,cs),
(275,101,o),
(322,55,o),
(322,0,c),
(382,0,l),
(382,89,o),
(309,161,o),
(220,161,cs),
(128,161,o),
(56,89,o),
(56,0,c)
);
},
{
closed = 1;
nodes = (
(116,263,l),
(116,984,l),
(56,984,l),
(56,263,l)
);
},
{
closed = 1;
nodes = (
(382,263,l),
(382,984,l),
(322,984,l),
(322,263,l)
);
}
);
width = 438;
}
);
unicode = 120;
},
{
glyphname = y;
kernLeft = "20";
kernRight = "20";
lastChange = "2024-04-18 14:55:36 +0000";
layers = (
{
anchors = (
{
name = top;
pos = (220,1068);
}
);
hints = (
{
name = _corner.serif;
origin = (0,1);
type = Corner;
},
{
name = _corner.serif;
options = 1;
origin = (3,2);
scale = (-1,1);
type = Corner;
}
);
layerId = "229FC374-6BB7-493E-A0DB-CDCFAB367F2C";
shapes = (
{
closed = 1;
nodes = (
(382,-321,l),
(382,984,l),
(322,984,l),
(322,-321,l)
);
},
{
closed = 1;
nodes = (
(309,-482,o),
(382,-410,o),
(382,-321,c),
(322,-321,l),
(322,-375,o),
(275,-422,o),
(218,-422,c),
(218,-482,l)
);
},
{
closed = 1;
nodes = (
(309,0,o),
(382,72,o),
(382,161,c),
(322,161,l),
(322,107,o),
(275,60,o),
(220,60,cs),
(163,60,o),
(116,107,o),
(116,161,c),
(56,161,l),
(56,72,o),
(128,0,o),
(220,0,cs)
);
},
{
closed = 1;
nodes = (
(116,161,l),
(116,984,l),
(56,984,l),
(56,161,l)
);
}
);
width = 438;
}
);
unicode = 121;
},
{
glyphname = z;
kernLeft = "20";
kernRight = "20";
lastChange = "2024-04-18 14:55:36 +0000";
layers = (
{
anchors = (
{
name = top;
pos = (164,1068);
}
);
layerId = "229FC374-6BB7-493E-A0DB-CDCFAB367F2C";
shapes = (
{
closed = 1;
nodes = (
(94,0,l),
(292,984,l),
(230,984,l),
(33,0,l)
);
},
{
closed = 1;
nodes = (
(178,0,l),
(178,60,l),
(77,60,l),
(34,0,l)
);
},
{
closed = 1;
nodes = (
(222,0,o),
(264,20,o),
(292,47,c),
(249,90,l),
(230,71,o),
(206,60,o),
(178,60,c),
(178,0,l)
);
},
{
closed = 1;
nodes = (
(95,912,o),
(119,923,o),
(146,923,c),
(146,984,l),
(102,984,o),
(61,964,o),
(33,936,c),
(75,893,l)
);
},
{
closed = 1;
nodes = (
(247,923,l),
(290,984,l),
(146,984,l),
(146,923,l)
);
}
);
width = 325;
}
);
unicode = 122;
},
{
glyphname = ordfeminine;
kernLeft = "20";
kernRight = "20";
lastChange = "2024-04-18 14:55:36 +0000";
layers = (
{
layerId = "229FC374-6BB7-493E-A0DB-CDCFAB367F2C";
shapes = (
{
closed = 1;
nodes = (
(71,1449,l),
(71,1500,o),
(115,1543,o),
(168,1543,cs),
(219,1543,o),
(263,1500,o),
(263,1449,c),
(301,1449,l),
(301,1522,o),
(242,1582,o),
(168,1582,cs),
(92,1582,o),
(33,1522,o),
(33,1449,c)
);
},
{
closed = 1;
nodes = (
(168,1227,l),
(115,1227,o),
(71,1270,o),
(71,1322,c),
(33,1322,l),
(33,1247,o),
(92,1188,o),
(168,1188,c)
);
},
{
closed = 1;
nodes = (
(71,1322,l),
(71,1449,l),
(33,1449,l),
(33,1322,l)
);
},
{
closed = 1;
nodes = (
(301,1188,l),
(301,1449,l),
(263,1449,l),
(263,1188,l)
);
}
);
width = 334;
}
);
unicode = 170;
userData = {
KernOnSpecialSpacing = {
L = superiors;
R = superiors;
};
};
},
{
glyphname = ordmasculine;
kernLeft = "20";
kernRight = "20";
lastChange = "2024-04-18 14:55:36 +0000";
layers = (
{
layerId = "229FC374-6BB7-493E-A0DB-CDCFAB367F2C";
shapes = (
{
closed = 1;
nodes = (
(71,1444,l),
(71,1494,o),
(115,1538,o),
(168,1538,cs),
(219,1538,o),
(263,1494,o),
(263,1444,c),
(301,1444,l),
(301,1517,o),
(241,1577,o),
(168,1577,cs),
(92,1577,o),
(33,1517,o),
(33,1444,c)
);
},
{
closed = 1;
nodes = (
(241,1184,o),
(301,1244,o),
(301,1317,c),
(263,1317,l),
(263,1266,o),
(219,1222,o),
(168,1222,cs),
(115,1222,o),
(71,1266,o),
(71,1317,c),
(33,1317,l),
(33,1244,o),
(92,1184,o),
(168,1184,cs)
);
},
{
closed = 1;
nodes = (
(71,1317,l),
(71,1444,l),
(33,1444,l),
(33,1317,l)
);
},
{
closed = 1;
nodes = (
(301,1317,l),
(301,1444,l),
(263,1444,l),
(263,1317,l)
);
}
);
width = 334;
}
);
unicode = 186;
userData = {
KernOnSpecialSpacing = {
L = superiors;
R = superiors;
};
};
},
{
glyphname = "Be-cy";
lastChange = "2024-04-18 14:55:36 +0000";
layers = (
{
hints = (
{
name = _corner.serif;
origin = (0,26);
type = Corner;
}
);
layerId = "229FC374-6BB7-493E-A0DB-CDCFAB367F2C";
shapes = (
{
closed = 1;
nodes = (
(319,0,o),
(395,75,o),
(395,168,cs),
(395,1018,ls),
(395,1110,o),
(319,1186,o),
(227,1186,c),
(227,1126,l),
(285,1126,o),
(335,1076,o),
(335,1018,cs),
(335,168,ls),
(335,109,o),
(285,60,o),
(224,60,c),
(116,60,l),
(116,1401,l),
(227,1401,ls),
(285,1401,o),
(335,1352,o),
(335,1293,c),
(395,1293,l),
(395,1386,o),
(319,1461,o),
(227,1461,cs),
(56,1461,l),
(56,0,l),
(224,0,l)
);
}
);
width = 427;
}
);
unicode = 1041;
},
{
glyphname = "De-cy";
lastChange = "2024-04-18 14:55:36 +0000";
layers = (
{
hints = (
{
name = _corner.serif;
origin = (0,0);
type = Corner;
},
{
name = _corner.serif;
options = 1;
origin = (0,7);
scale = (-1,1);
type = Corner;
}
);
layerId = "229FC374-6BB7-493E-A0DB-CDCFAB367F2C";
shapes = (
{
closed = 1;
nodes = (
(51,0,l),
(111,0,l),
(186,1352,ls),
(189,1419,o),
(254,1419,o),
(256,1352,cs),
(329,0,l),
(389,0,l),
(315,1366,ls),
(305,1497,o),
(137,1497,o),
(128,1366,cs)
);
},
{
closed = 1;
nodes = (
(81,0,l),
(365,0,l),
(365,60,l),
(81,60,l)
);
}
);
width = 440;
}
);
unicode = 1044;
},
{
glyphname = "Zhe-cy";
lastChange = "2024-04-18 14:55:36 +0000";
layers = (
{
hints = (
{
name = _corner.serif;
options = 1;
origin = (1,0);
scale = (-1,1);
type = Corner;
},
{
name = _corner.serif;
origin = (5,2);
type = Corner;
}
);
layerId = "229FC374-6BB7-493E-A0DB-CDCFAB367F2C";
shapes = (
{
closed = 1;
nodes = (
(395,0,l),
(395,1461,l),
(335,1461,l),
(335,0,l)
);
},
{
closed = 1;
nodes = (
(673,0,l),
(673,426,l),
(613,426,l),
(613,0,l)
);
},
{
closed = 1;
nodes = (
(395,426,l),
(395,484,o),
(444,534,o),
(505,534,cs),
(564,534,o),
(613,484,o),
(613,426,c),
(673,426,l),
(673,519,o),
(598,594,o),
(505,594,cs),
(410,594,o),
(335,519,o),
(335,426,c)
);
},
{
closed = 1;
nodes = (
(598,534,o),
(673,609,o),
(673,701,c),
(613,701,l),
(613,643,o),
(564,594,o),
(505,594,c),
(505,534,l)
);
},
{
closed = 1;
nodes = (
(673,701,l),
(673,1461,l),
(613,1461,l),
(613,701,l)
);
},
{
closed = 1;
nodes = (
(116,426,l),
(56,426,l),
(56,0,l),
(116,0,l)
);
},
{
closed = 1;
nodes = (
(395,519,o),
(319,594,o),
(224,594,cs),
(131,594,o),
(56,519,o),
(56,426,c),
(116,426,l),
(116,484,o),
(166,534,o),
(224,534,cs),
(285,534,o),
(335,484,o),
(335,426,c),
(395,426,l)
);
},
{
closed = 1;
nodes = (
(224,594,l),
(166,594,o),
(116,643,o),
(116,701,c),
(56,701,l),
(56,609,o),
(131,534,o),
(224,534,c)
);
},
{
closed = 1;
nodes = (
(116,1461,l),
(56,1461,l),
(56,701,l),
(116,701,l)
);
}
);
width = 729;
}
);
unicode = 1046;
},
{
glyphname = "Ii-cy";
lastChange = "2024-04-18 14:55:36 +0000";
layers = (
{
hints = (
{
name = _corner.serif;
options = 1;
origin = (3,0);
scale = (-1,1);
type = Corner;
}
);
layerId = "229FC374-6BB7-493E-A0DB-CDCFAB367F2C";
shapes = (
{
closed = 1;
nodes = (
(93,0,l),
(93,1461,l),
(33,1461,l),
(33,0,l)
);
},
{
closed = 1;
nodes = (
(203,0,l),
(203,60,l),
(36,60,l),
(36,0,l)
);
},
{
closed = 1;
nodes = (
(296,0,o),
(371,75,o),
(371,168,c),
(311,168,l),
(311,109,o),
(262,60,o),
(203,60,c),
(203,0,l)
);
},
{
closed = 1;
nodes = (
(371,0,l),
(371,1461,l),
(311,1461,l),
(311,0,l)
);
}
);
width = 427;
}
);
unicode = 1048;
},
{
glyphname = "Iishort-cy";
lastChange = "2024-04-18 14:55:36 +0000";
layers = (
{
hints = (
{
name = _corner.serif;
options = 1;
origin = (3,0);
scale = (-1,1);
type = Corner;
}
);
layerId = "229FC374-6BB7-493E-A0DB-CDCFAB367F2C";
shapes = (
{
closed = 1;
nodes = (
(93,0,l),
(93,1461,l),
(33,1461,l),
(33,0,l)
);
},
{
closed = 1;
nodes = (
(203,0,l),
(203,60,l),
(36,60,l),
(36,0,l)
);
},
{
closed = 1;
nodes = (
(296,0,o),
(371,75,o),
(371,168,c),
(311,168,l),
(311,109,o),
(262,60,o),
(203,60,c),
(203,0,l)
);
},
{
closed = 1;
nodes = (
(371,0,l),
(371,1461,l),
(311,1461,l),
(311,0,l)
);
},
{
closed = 1;
nodes = (
(278,1635,o),
(340,1696,o),
(340,1772,c),
(297,1772,l),
(297,1720,o),
(254,1678,o),
(203,1678,cs),
(150,1678,o),
(107,1720,o),
(107,1772,c),
(64,1772,l),
(64,1696,o),
(125,1635,o),
(203,1635,cs)
);
}
);
width = 427;
}
);
unicode = 1049;
},
{
glyphname = "Em-cy";
lastChange = "2024-04-18 14:55:36 +0000";
layers = (
{
hints = (
{
name = _corner.serif;
options = 1;
origin = (0,0);
scale = (-1,1);
type = Corner;
},
{
name = _corner.serif;
origin = (1,3);
type = Corner;
}
);
layerId = "229FC374-6BB7-493E-A0DB-CDCFAB367F2C";
shapes = (
{
closed = 1;
nodes = (
(673,0,l),
(673,1461,l),
(613,1461,l),
(613,0,l)
);
},
{
closed = 1;
nodes = (
(116,0,l),
(116,1461,l),
(56,1461,l),
(56,0,l)
);
},
{
closed = 1;
nodes = (
(395,0,l),
(395,1293,l),
(335,1293,l),
(335,0,l)
);
},
{
closed = 1;
nodes = (
(227,1401,l),
(227,1461,l),
(79,1461,l),
(79,1401,l)
);
},
{
closed = 1;
nodes = (
(395,1293,l),
(395,1386,o),
(319,1461,o),
(227,1461,c),
(227,1401,l),
(285,1401,o),
(335,1352,o),
(335,1293,c)
);
},
{
closed = 1;
nodes = (
(395,1293,l),
(395,1352,o),
(444,1401,o),
(505,1401,c),
(505,1461,l),
(410,1461,o),
(335,1386,o),
(335,1293,c)
);
},
{
closed = 1;
nodes = (
(645,1401,l),
(645,1461,l),
(505,1461,l),
(505,1401,l)
);
}
);
width = 729;
}
);
unicode = 1052;
},
{
glyphname = "Pe-cy";
lastChange = "2024-04-18 14:55:36 +0000";
layers = (
{
anchors = (
{
name = top;
pos = (224,1546);
}
);
hints = (
{
name = _corner.serif;
options = 1;
origin = (0,7);
scale = (-1,1);
type = Corner;
},
{
name = _corner.serif;
origin = (0,13);
type = Corner;
}
);
layerId = "229FC374-6BB7-493E-A0DB-CDCFAB367F2C";
shapes = (
{
closed = 1;
nodes = (
(116,0,l),
(116,1401,l),
(227,1401,ls),
(285,1401,o),
(335,1352,o),
(335,1293,cs),
(335,0,l),
(395,0,l),
(395,1293,ls),
(395,1386,o),
(319,1461,o),
(227,1461,cs),
(56,1461,l),
(56,0,l)
);
}
);
width = 451;
}
);
unicode = 1055;
},
{
glyphname = "U-cy";
lastChange = "2024-04-18 14:55:36 +0000";
layers = (
{
anchors = (
{
name = top;
pos = (227,1546);
}
);
hints = (
{
name = _corner.serif;
options = 1;
origin = (1,3);
scale = (-1,1);
type = Corner;
},
{
name = _corner.serif;
origin = (3,2);
type = Corner;
}
);
layerId = "229FC374-6BB7-493E-A0DB-CDCFAB367F2C";
shapes = (
{
closed = 1;
nodes = (
(56,942,o),
(131,867,o),
(227,867,cs),
(319,867,o),
(395,942,o),
(395,1035,c),
(335,1035,l),
(335,977,o),
(285,927,o),
(227,927,cs),
(166,927,o),
(116,977,o),
(116,1035,c),
(56,1035,l)
);
},
{
closed = 1;
nodes = (
(56,1035,l),
(116,1035,l),
(116,1461,l),
(56,1461,l)
);
},
{
closed = 1;
nodes = (
(56,75,o),
(131,0,o),
(227,0,cs),
(319,0,o),
(395,75,o),
(395,168,c),
(335,168,l),
(335,109,o),
(285,60,o),
(227,60,cs),
(166,60,o),
(116,109,o),
(116,168,c),
(56,168,l)
);
},
{
closed = 1;
nodes = (
(335,168,l),
(395,168,l),
(395,1461,l),
(335,1461,l)
);
}
);
width = 451;
}
);
unicode = 1059;
},
{
glyphname = "Ef-cy";
lastChange = "2024-04-18 14:55:36 +0000";
layers = (
{
hints = (
{
name = _corner.serif;
options = 1;
origin = (0,0);
scale = (-1,1);
type = Corner;
},
{
name = _corner.serif;
origin = (0,28);
type = Corner;
}
);
layerId = "229FC374-6BB7-493E-A0DB-CDCFAB367F2C";
shapes = (
{
closed = 1;
nodes = (
(371,0,l),
(371,581,l),
(398,552,o),
(437,534,o),
(482,534,cs),
(574,534,o),
(650,609,o),
(650,701,cs),
(650,1293,ls),
(650,1386,o),
(574,1461,o),
(482,1461,cs),
(422,1461,o),
(371,1429,o),
(341,1384,c),
(313,1429,o),
(261,1461,o),
(200,1461,cs),
(108,1461,o),
(33,1386,o),
(33,1293,cs),
(33,701,ls),
(33,609,o),
(108,534,o),
(200,534,cs),
(246,534,o),
(284,552,o),
(311,581,c),
(311,0,l)
);
},
{
closed = 1;
nodes = (
(142,594,o),
(93,643,o),
(93,701,cs),
(93,1293,ls),
(93,1352,o),
(142,1401,o),
(200,1401,cs),
(262,1401,o),
(311,1352,o),
(311,1293,cs),
(311,701,ls),
(311,643,o),
(262,594,o),
(200,594,cs)
);
},
{
closed = 1;
nodes = (
(421,594,o),
(371,643,o),
(371,701,cs),
(371,1293,ls),
(371,1352,o),
(421,1401,o),
(482,1401,cs),
(540,1401,o),
(590,1352,o),
(590,1293,cs),
(590,701,ls),
(590,643,o),
(540,594,o),
(482,594,cs)
);
}
);
width = 682;
}
);
unicode = 1060;
},
{
glyphname = "Tse-cy";
lastChange = "2024-04-18 14:55:36 +0000";
layers = (
{
hints = (
{
name = _corner.serif;
options = 1;
origin = (0,2);
scale = (-1,1);
type = Corner;
},
{
name = _corner.serif;
origin = (3,1);
type = Corner;
}
);
layerId = "229FC374-6BB7-493E-A0DB-CDCFAB367F2C";
shapes = (
{
closed = 1;
nodes = (
(116,0,l),
(116,1461,l),
(56,1461,l),
(56,0,l)
);
},
{
closed = 1;
nodes = (
(227,0,l),
(227,60,l),
(59,60,l),
(59,0,l)
);
},
{
closed = 1;
nodes = (
(319,0,o),
(395,75,o),
(395,168,c),
(335,168,l),
(335,109,o),
(285,60,o),
(227,60,c),
(227,0,l)
);
},
{
closed = 1;
nodes = (
(395,60,l),
(395,1461,l),
(335,1461,l),
(335,60,l)
);
},
{
closed = 1;
nodes = (
(505,-48,l),
(444,-48,o),
(395,2,o),
(395,60,c),
(335,60,l),
(335,-33,o),
(410,-108,o),
(505,-108,c)
);
}
);
width = 538;
}
);
unicode = 1062;
},
{
glyphname = "Shcha-cy";
lastChange = "2024-04-18 14:55:36 +0000";
layers = (
{
anchors = (
{
name = top;
pos = (364,1546);
}
);
hints = (
{
name = _corner.serif;
options = 1;
origin = (0,26);
scale = (-1,1);
type = Corner;
},
{
name = _corner.serif;
origin = (1,4);
type = Corner;
}
);
layerId = "229FC374-6BB7-493E-A0DB-CDCFAB367F2C";
shapes = (
{
closed = 1;
nodes = (
(285,0,o),
(336,32,o),
(365,77,c),
(394,32,o),
(446,0,o),
(505,0,cs),
(598,0,o),
(673,75,o),
(673,168,c),
(613,168,l),
(613,109,o),
(564,60,o),
(505,60,cs),
(444,60,o),
(395,109,o),
(395,168,cs),
(395,1461,l),
(335,1461,l),
(335,168,ls),
(335,109,o),
(285,60,o),
(227,60,cs),
(166,60,o),
(116,109,o),
(116,168,cs),
(116,1461,l),
(56,1461,l),
(56,168,ls),
(56,75,o),
(131,0,o),
(227,0,cs)
);
},
{
closed = 1;
nodes = (
(784,-48,l),
(723,-48,o),
(673,2,o),
(673,60,cs),
(673,1461,l),
(613,1461,l),
(613,60,ls),
(613,-33,o),
(688,-108,o),
(784,-108,c)
);
}
);
width = 817;
}
);
unicode = 1065;
},
{
glyphname = "Softsign-cy";
lastChange = "2024-04-18 14:55:36 +0000";
layers = (
{
hints = (
{
name = _corner.serif;
options = 1;
origin = (0,11);
scale = (-1,1);
type = Corner;
}
);
layerId = "229FC374-6BB7-493E-A0DB-CDCFAB367F2C";
shapes = (
{
closed = 1;
nodes = (
(319,0,o),
(395,75,o),
(395,168,cs),
(395,760,ls),
(395,852,o),
(319,927,o),
(227,927,cs),
(182,927,o),
(144,910,o),
(116,881,c),
(116,1461,l),
(56,1461,l),
(56,168,ls),
(56,75,o),
(131,0,o),
(227,0,cs)
);
},
{
closed = 1;
nodes = (
(166,60,o),
(116,109,o),
(116,168,cs),
(116,760,ls),
(116,818,o),
(166,867,o),
(227,867,cs),
(285,867,o),
(335,818,o),
(335,760,cs),
(335,168,ls),
(335,109,o),
(285,60,o),
(227,60,cs)
);
}
);
width = 427;
}
);
unicode = 1068;
},
{
glyphname = "Yeru-cy";
lastChange = "2024-04-18 14:55:36 +0000";
layers = (
{
anchors = (
{
name = top;
pos = (562,1546);
}
);
hints = (
{
name = _corner.serif;
options = 1;
origin = (0,11);
scale = (-1,1);
type = Corner;
},
{
name = _corner.serif;
options = 1;
origin = (2,0);
scale = (-1,1);
type = Corner;
},
{
name = _corner.serif;
options = 2;
origin = (2,1);
type = Corner;
}
);
layerId = "229FC374-6BB7-493E-A0DB-CDCFAB367F2C";
shapes = (
{
closed = 1;
nodes = (
(319,0,o),
(395,75,o),
(395,168,cs),
(395,760,ls),
(395,852,o),
(319,927,o),
(227,927,cs),
(182,927,o),
(144,910,o),
(116,881,c),
(116,1461,l),
(56,1461,l),
(56,168,ls),
(56,75,o),
(131,0,o),
(227,0,cs)
);
},
{
closed = 1;
nodes = (
(166,60,o),
(116,109,o),
(116,168,cs),
(116,760,ls),
(116,818,o),
(166,867,o),
(227,867,cs),
(285,867,o),
(335,818,o),
(335,760,cs),
(335,168,ls),
(335,109,o),
(285,60,o),
(227,60,cs)
);
},
{
closed = 1;
nodes = (
(592,0,l),
(592,1461,l),
(532,1461,l),
(532,0,l)
);
}
);
width = 648;
}
);
unicode = 1067;
},
{
glyphname = "Hardsign-cy";
lastChange = "2024-04-18 14:55:36 +0000";
layers = (
{
layerId = "229FC374-6BB7-493E-A0DB-CDCFAB367F2C";
shapes = (
{
closed = 1;
nodes = (
(203,168,l),
(203,1293,ls),
(203,1386,o),
(128,1461,o),
(33,1461,c),
(33,1401,l),
(94,1401,o),
(143,1352,o),
(143,1293,cs),
(143,168,l)
);
},
{
closed = 1;
nodes = (
(407,0,o),
(482,75,o),
(482,168,c),
(422,168,l),
(422,109,o),
(372,60,o),
(314,60,cs),
(253,60,o),
(203,109,o),
(203,168,c),
(143,168,l),
(143,75,o),
(219,0,o),
(314,0,cs)
);
},
{
closed = 1;
nodes = (
(482,168,l),
(482,760,l),
(422,760,l),
(422,168,l)
);
},
{
closed = 1;
nodes = (
(203,760,l),
(203,818,o),
(253,867,o),
(314,867,cs),
(372,867,o),
(422,818,o),
(422,760,c),
(482,760,l),
(482,852,o),
(407,927,o),
(314,927,cs),
(219,927,o),
(143,852,o),
(143,760,c)
);
}
);
width = 515;
}
);
unicode = 1066;
},
{
glyphname = "Ereversed-cy";
lastChange = "2024-04-18 14:55:36 +0000";
layers = (
{
anchors = (
{
name = top;
pos = (201,1546);
}
);
layerId = "229FC374-6BB7-493E-A0DB-CDCFAB367F2C";
shapes = (
{
closed = 1;
nodes = (
(371,168,l),
(371,1293,ls),
(371,1386,o),
(296,1461,o),
(200,1461,cs),
(108,1461,o),
(33,1386,o),
(33,1293,c),
(93,1293,l),
(93,1352,o),
(142,1401,o),
(200,1401,cs),
(262,1401,o),
(311,1352,o),
(311,1293,cs),
(311,168,l)
);
},
{
closed = 1;
nodes = (
(296,0,o),
(371,75,o),
(371,168,c),
(311,168,l),
(311,109,o),
(262,60,o),
(200,60,cs),
(142,60,o),
(93,109,o),
(93,168,c),
(33,168,l),
(33,75,o),
(108,0,o),
(200,0,cs)
);
},
{
closed = 1;
nodes = (
(352,701,l),
(352,761,l),
(188,761,l),
(188,701,l)
);
}
);
width = 404;
}
);
unicode = 1069;
},
{
glyphname = "Yu-cy";
lastChange = "2024-04-18 14:55:36 +0000";
layers = (
{
hints = (
{
name = _corner.serif;
origin = (0,3);
type = Corner;
}
);
layerId = "229FC374-6BB7-493E-A0DB-CDCFAB367F2C";
shapes = (
{
closed = 1;
nodes = (
(116,0,l),
(116,1461,l),
(56,1461,l),
(56,0,l)
);
},
{
closed = 1;
nodes = (
(395,1293,l),
(395,1352,o),
(444,1401,o),
(505,1401,cs),
(564,1401,o),
(613,1352,o),
(613,1293,c),
(673,1293,l),
(673,1386,o),
(598,1461,o),
(505,1461,cs),
(410,1461,o),
(335,1386,o),
(335,1293,c)
);
},
{
closed = 1;
nodes = (
(598,0,o),
(673,75,o),
(673,168,c),
(613,168,l),
(613,109,o),
(564,60,o),
(505,60,cs),
(444,60,o),
(395,109,o),
(395,168,c),
(335,168,l),
(335,75,o),
(410,0,o),
(505,0,cs)
);
},
{
closed = 1;
nodes = (
(395,168,l),
(395,1293,l),
(335,1293,l),
(335,168,l)
);
},
{
closed = 1;
nodes = (
(673,168,l),
(673,1293,l),
(613,1293,l),
(613,168,l)
);
},
{
closed = 1;
nodes = (
(116,168,l),
(116,226,o),
(166,275,o),
(227,275,cs),
(285,275,o),
(335,226,o),
(335,168,c),
(395,168,l),
(395,260,o),
(319,335,o),
(227,335,cs),
(131,335,o),
(56,260,o),
(56,168,c)
);
}
);
width = 706;
}
);
unicode = 1070;
},
{
glyphname = "be-cy";
lastChange = "2024-04-18 14:55:36 +0000";
layers = (
{
layerId = "229FC374-6BB7-493E-A0DB-CDCFAB367F2C";
shapes = (
{
closed = 1;
nodes = (
(93,161,l),
(93,1300,l),
(33,1300,l),
(33,161,l)
);
},
{
closed = 1;
nodes = (
(286,0,o),
(358,72,o),
(358,161,c),
(298,161,l),
(298,107,o),
(251,60,o),
(194,60,cs),
(139,60,o),
(93,107,o),
(93,161,c),
(33,161,l),
(33,72,o),
(105,0,o),
(194,0,cs)
);
},
{
closed = 1;
nodes = (
(358,161,l),
(358,822,l),
(298,822,l),
(298,161,l)
);
},
{
closed = 1;
nodes = (
(358,822,l),
(358,911,o),
(286,984,o),
(194,984,c),
(194,923,l),
(251,923,o),
(298,877,o),
(298,822,c)
);
},
{
closed = 1;
nodes = (
(93,1300,l),
(93,1354,o),
(139,1401,o),
(197,1401,c),
(197,1461,l),
(105,1461,o),
(33,1389,o),
(33,1300,c)
);
}
);
width = 391;
}
);
unicode = 1073;
},
{
glyphname = "ve-cy";
lastChange = "2024-04-18 14:55:36 +0000";
layers = (
{
layerId = "229FC374-6BB7-493E-A0DB-CDCFAB367F2C";
shapes = (
{
closed = 1;
nodes = (
(93,1300,l),
(93,1354,o),
(139,1401,o),
(194,1401,cs),
(251,1401,o),
(298,1354,o),
(298,1300,c),
(358,1300,l),
(358,1389,o),
(286,1461,o),
(194,1461,cs),
(105,1461,o),
(33,1389,o),
(33,1300,c)
);
},
{
closed = 1;
nodes = (
(286,0,o),
(358,72,o),
(358,161,c),
(298,161,l),
(298,107,o),
(251,60,o),
(194,60,cs),
(139,60,o),
(93,107,o),
(93,161,c),
(33,161,l),
(33,72,o),
(105,0,o),
(194,0,cs)
);
},
{
closed = 1;
nodes = (
(93,161,l),
(93,1300,l),
(33,1300,l),
(33,161,l)
);
},
{
closed = 1;
nodes = (
(358,161,l),
(358,822,l),
(298,822,l),
(298,161,l)
);
},
{
closed = 1;
nodes = (
(358,822,l),
(358,911,o),
(286,984,o),
(194,984,c),
(194,923,l),
(251,923,o),
(298,877,o),
(298,822,c)
);
},
{
closed = 1;
nodes = (
(286,923,o),
(358,995,o),
(358,1084,c),
(298,1084,l),
(298,1030,o),
(251,984,o),
(194,984,c),
(194,923,l)
);
},
{
closed = 1;
nodes = (
(358,1084,l),
(358,1300,l),
(298,1300,l),
(298,1084,l)
);
}
);
width = 391;
}
);
unicode = 1074;
},
{
glyphname = "ge-cy";
lastChange = "2024-04-18 14:55:36 +0000";
layers = (
{
hints = (
{
name = _corner.serif;
origin = (0,3);
type = Corner;
}
);
layerId = "229FC374-6BB7-493E-A0DB-CDCFAB367F2C";
shapes = (
{
closed = 1;
nodes = (
(116,0,l),
(116,822,l),
(56,822,l),
(56,0,l)
);
},
{
closed = 1;
nodes = (
(116,822,l),
(116,877,o),
(163,923,o),
(220,923,c),
(220,984,l),
(128,984,o),
(56,911,o),
(56,822,c)
);
}
);
width = 253;
}
);
unicode = 1075;
},
{
glyphname = "de-cy";
lastChange = "2024-04-18 14:55:36 +0000";
layers = (
{
layerId = "229FC374-6BB7-493E-A0DB-CDCFAB367F2C";
shapes = (
{
closed = 1;
nodes = (
(298,822,l),
(298,-317,l),
(358,-317,l),
(358,822,l)
);
},
{
closed = 1;
nodes = (
(105,984,o),
(33,911,o),
(33,822,c),
(93,822,l),
(93,877,o),
(139,923,o),
(197,923,cs),
(251,923,o),
(298,877,o),
(298,822,c),
(358,822,l),
(358,911,o),
(286,984,o),
(197,984,cs)
);
},
{
closed = 1;
nodes = (
(33,822,l),
(33,161,l),
(93,161,l),
(93,822,l)
);
},
{
closed = 1;
nodes = (
(33,161,l),
(33,72,o),
(105,0,o),
(197,0,c),
(197,60,l),
(139,60,o),
(93,107,o),
(93,161,c)
);
},
{
closed = 1;
nodes = (
(298,-317,l),
(298,-371,o),
(251,-418,o),
(194,-418,c),
(194,-478,l),
(286,-478,o),
(358,-406,o),
(358,-317,c)
);
}
);
width = 391;
}
);
unicode = 1076;
},
{
glyphname = "zhe-cy";
lastChange = "2024-04-18 14:55:36 +0000";
layers = (
{
hints = (
{
name = _corner.serif;
origin = (0,32);
type = Corner;
},
{
name = _corner.serif;
options = 2;
origin = (0,33);
scale = (-1,1);
type = Corner;
}
);
layerId = "229FC374-6BB7-493E-A0DB-CDCFAB367F2C";
shapes = (
{
closed = 1;
nodes = (
(93,0,l),
(93,57,o),
(139,104,o),
(194,104,cs),
(237,104,o),
(273,121,o),
(298,149,c),
(298,0,l),
(358,0,l),
(358,149,l),
(383,121,o),
(419,104,o),
(462,104,cs),
(517,104,o),
(563,57,o),
(563,0,c),
(623,0,l),
(623,57,o),
(593,106,o),
(550,134,c),
(593,161,o),
(623,210,o),
(623,265,cs),
(623,984,l),
(563,984,l),
(563,265,ls),
(563,211,o),
(517,164,o),
(462,164,cs),
(405,164,o),
(358,211,o),
(358,265,cs),
(358,1461,l),
(298,1461,l),
(298,265,ls),
(298,211,o),
(251,164,o),
(194,164,cs),
(139,164,o),
(93,211,o),
(93,265,cs),
(93,984,l),
(33,984,l),
(33,265,ls),
(33,210,o),
(63,161,o),
(106,134,c),
(63,106,o),
(33,57,o),
(33,0,c)
);
}
);
width = 656;
}
);
unicode = 1078;
},
{
glyphname = "ze-cy";
lastChange = "2024-04-18 14:55:36 +0000";
layers = (
{
layerId = "229FC374-6BB7-493E-A0DB-CDCFAB367F2C";
shapes = (
{
closed = 1;
nodes = (
(33,-406,o),
(105,-478,o),
(194,-478,cs),
(286,-478,o),
(358,-406,o),
(358,-317,c),
(298,-317,l),
(298,-371,o),
(251,-418,o),
(194,-418,cs),
(139,-418,o),
(93,-371,o),
(93,-317,c),
(33,-317,l)
);
},
{
closed = 1;
nodes = (
(105,984,o),
(33,911,o),
(33,822,c),
(93,822,l),
(93,877,o),
(139,923,o),
(194,923,cs),
(251,923,o),
(298,877,o),
(298,822,c),
(358,822,l),
(358,911,o),
(286,984,o),
(194,984,cs)
);
},
{
closed = 1;
nodes = (
(298,161,l),
(358,161,l),
(358,822,l),
(298,822,l)
);
},
{
closed = 1;
nodes = (
(298,107,o),
(251,60,o),
(194,60,c),
(194,0,l),
(286,0,o),
(358,72,o),
(358,161,c),
(298,161,l)
);
},
{
closed = 1;
nodes = (
(194,0,l),
(251,0,o),
(298,-47,o),
(298,-101,c),
(358,-101,l),
(358,-12,o),
(286,60,o),
(194,60,c)
);
},
{
closed = 1;
nodes = (
(298,-317,l),
(358,-317,l),
(358,-101,l),
(298,-101,l)
);
}
);
width = 391;
}
);
unicode = 1079;
},
{
glyphname = "ii-cy";
lastChange = "2024-04-18 14:55:36 +0000";
layers = (
{
hints = (
{
name = _corner.serif;
options = 1;
origin = (2,0);
scale = (-1,1);
type = Corner;
}
);
layerId = "229FC374-6BB7-493E-A0DB-CDCFAB367F2C";
shapes = (
{
closed = 1;
nodes = (
(286,0,o),
(358,72,o),
(358,161,c),
(298,161,l),
(298,107,o),
(251,60,o),
(197,60,cs),
(139,60,o),
(93,107,o),
(93,161,c),
(33,161,l),
(33,72,o),
(105,0,o),
(197,0,cs)
);
},
{
closed = 1;
nodes = (
(93,161,l),
(93,984,l),
(33,984,l),
(33,161,l)
);
},
{
closed = 1;
nodes = (
(358,0,l),
(358,984,l),
(298,984,l),
(298,0,l)
);
}
);
width = 414;
}
);
unicode = 1080;
},
{
glyphname = "iishort-cy";
lastChange = "2024-04-18 14:55:36 +0000";
layers = (
{
hints = (
{
name = _corner.serif;
options = 1;
origin = (2,0);
scale = (-1,1);
type = Corner;
}
);
layerId = "229FC374-6BB7-493E-A0DB-CDCFAB367F2C";
shapes = (
{
closed = 1;
nodes = (
(286,0,o),
(358,72,o),
(358,161,c),
(298,161,l),
(298,107,o),
(251,60,o),
(197,60,cs),
(139,60,o),
(93,107,o),
(93,161,c),
(33,161,l),
(33,72,o),
(105,0,o),
(197,0,cs)
);
},
{
closed = 1;
nodes = (
(93,161,l),
(93,984,l),
(33,984,l),
(33,161,l)
);
},
{
closed = 1;
nodes = (
(358,0,l),
(358,984,l),
(298,984,l),
(298,0,l)
);
},
{
closed = 1;
nodes = (
(272,1160,o),
(334,1221,o),
(334,1296,c),
(291,1296,l),
(291,1246,o),
(247,1202,o),
(197,1202,cs),
(144,1202,o),
(100,1246,o),
(100,1296,c),
(58,1296,l),
(58,1221,o),
(119,1160,o),
(197,1160,cs)
);
}
);
width = 414;
}
);
unicode = 1081;
},
{
glyphname = "ka-cy";
lastChange = "2024-04-18 14:55:36 +0000";
layers = (
{
hints = (
{
name = _corner.serif;
options = 1;
origin = (0,25);
scale = (-1,1);
type = Corner;
}
);
layerId = "229FC374-6BB7-493E-A0DB-CDCFAB367F2C";
shapes = (
{
closed = 1;
nodes = (
(116,0,l),
(116,149,l),
(142,121,o),
(177,104,o),
(220,104,cs),
(275,104,o),
(322,57,o),
(322,0,c),
(382,0,l),
(382,57,o),
(351,106,o),
(308,134,c),
(351,161,o),
(382,210,o),
(382,265,cs),
(382,984,l),
(322,984,l),
(322,265,ls),
(322,211,o),
(275,164,o),
(220,164,cs),
(163,164,o),
(116,211,o),
(116,265,cs),
(116,1461,l),
(56,1461,l),
(56,0,l)
);
}
);
width = 414;
}
);
unicode = 1082;
},
{
glyphname = "el-cy";
lastChange = "2024-04-18 14:55:36 +0000";
layers = (
{
hints = (
{
name = _corner.serif;
options = 1;
origin = (0,4);
scale = (-1,1);
type = Corner;
},
{
name = _corner.serif;
origin = (0,9);
type = Corner;
}
);
layerId = "229FC374-6BB7-493E-A0DB-CDCFAB367F2C";
shapes = (
{
closed = 1;
nodes = (
(170,942,o),
(260,942,o),
(263,875,cs),
(315,0,l),
(375,0,l),
(320,879,ls),
(310,1019,o),
(119,1019,o),
(108,879,cs),
(50,0,l),
(110,0,l),
(166,875,ls)
);
}
);
width = 425;
}
);
unicode = 1083;
},
{
glyphname = "em-cy";
lastChange = "2024-04-18 14:55:36 +0000";
layers = (
{
hints = (
{
name = _corner.serif;
origin = (0,9);
type = Corner;
},
{
name = _corner.serif;
options = 1;
origin = (1,4);
scale = (-1,1);
type = Corner;
}
);
layerId = "229FC374-6BB7-493E-A0DB-CDCFAB367F2C";
shapes = (
{
closed = 1;
nodes = (
(170,942,o),
(260,942,o),
(262,875,cs),
(315,0,l),
(375,0,l),
(320,879,ls),
(310,1019,o),
(118,1019,o),
(108,879,cs),
(50,0,l),
(110,0,l),
(166,875,ls)
);
},
{
closed = 1;
nodes = (
(435,942,o),
(525,942,o),
(527,875,cs),
(580,0,l),
(640,0,l),
(584,879,ls),
(575,1019,o),
(383,1019,o),
(373,879,cs),
(315,0,l),
(375,0,l),
(431,875,ls)
);
}
);
width = 690;
}
);
unicode = 1084;
},
{
glyphname = "en-cy";
lastChange = "2024-04-18 14:55:36 +0000";
layers = (
{
hints = (
{
name = _corner.serif;
options = 1;
origin = (0,2);
scale = (-1,1);
type = Corner;
},
{
name = _corner.serif;
origin = (2,1);
type = Corner;
}
);
layerId = "229FC374-6BB7-493E-A0DB-CDCFAB367F2C";
shapes = (
{
closed = 1;
nodes = (
(116,0,l),
(116,984,l),
(56,984,l),
(56,0,l)
);
},
{
closed = 1;
nodes = (
(309,346,o),
(382,418,o),
(382,507,c),
(322,507,l),
(322,453,o),
(275,406,o),
(220,406,cs),
(163,406,o),
(116,453,o),
(116,507,c),
(56,507,l),
(56,418,o),
(128,346,o),
(220,346,cs)
);
},
{
closed = 1;
nodes = (
(382,0,l),
(382,984,l),
(322,984,l),
(322,0,l)
);
}
);
width = 438;
}
);
unicode = 1085;
},
{
glyphname = "te-cy";
lastChange = "2024-04-18 14:55:36 +0000";
layers = (
{
hints = (
{
name = _corner.serif;
origin = (0,3);
type = Corner;
}
);
layerId = "229FC374-6BB7-493E-A0DB-CDCFAB367F2C";
shapes = (
{
closed = 1;
nodes = (
(225,0,l),
(225,822,l),
(165,822,l),
(165,0,l)
);
},
{
closed = 1;
nodes = (
(225,822,l),
(225,877,o),
(272,923,o),
(329,923,c),
(329,984,l),
(237,984,o),
(165,911,o),
(165,822,c)
);
},
{
closed = 1;
nodes = (
(33,923,l),
(358,923,l),
(358,984,l),
(33,984,l)
);
}
);
width = 391;
}
);
unicode = 1090;
},
{
glyphname = "ef-cy";
lastChange = "2024-04-18 14:55:36 +0000";
layers = (
{
hints = (
{
name = _corner.serif;
options = 1;
origin = (0,0);
scale = (-1,1);
type = Corner;
},
{
name = _corner.serif;
origin = (0,44);
type = Corner;
}
);
layerId = "229FC374-6BB7-493E-A0DB-CDCFAB367F2C";
shapes = (
{
closed = 1;
nodes = (
(358,-478,l),
(358,822,ls),
(358,877,o),
(405,923,o),
(459,923,cs),
(517,923,o),
(563,877,o),
(563,822,cs),
(563,161,ls),
(563,107,o),
(517,60,o),
(459,60,c),
(459,0,l),
(551,0,o),
(623,72,o),
(623,161,cs),
(623,822,ls),
(623,911,o),
(551,984,o),
(459,984,cs),
(405,984,o),
(356,953,o),
(328,910,c),
(301,953,o),
(252,984,o),
(197,984,cs),
(105,984,o),
(33,911,o),
(33,822,cs),
(33,161,ls),
(33,72,o),
(105,0,o),
(197,0,c),
(197,60,l),
(139,60,o),
(93,107,o),
(93,161,cs),
(93,822,ls),
(93,877,o),
(139,923,o),
(197,923,cs),
(251,923,o),
(298,877,o),
(298,822,cs),
(298,-478,l)
);
}
);
width = 656;
}
);
unicode = 1092;
},
{
glyphname = "ha-cy";
lastChange = "2024-04-18 14:55:36 +0000";
layers = (
{
hints = (
{
name = _corner.serif;
options = 1;
origin = (2,2);
scale = (-1,1);
type = Corner;
},
{
name = _corner.serif;
origin = (3,1);
type = Corner;
}
);
layerId = "229FC374-6BB7-493E-A0DB-CDCFAB367F2C";
shapes = (
{
closed = 1;
nodes = (
(309,101,o),
(382,174,o),
(382,263,c),
(322,263,l),
(322,208,o),
(275,161,o),
(220,161,cs),
(163,161,o),
(116,208,o),
(116,263,c),
(56,263,l),
(56,174,o),
(128,101,o),
(220,101,cs)
);
},
{
closed = 1;
nodes = (
(116,0,l),
(116,55,o),
(163,101,o),
(220,101,cs),
(275,101,o),
(322,55,o),
(322,0,c),
(382,0,l),
(382,89,o),
(309,161,o),
(220,161,cs),
(128,161,o),
(56,89,o),
(56,0,c)
);
},
{
closed = 1;
nodes = (
(116,263,l),
(116,984,l),
(56,984,l),
(56,263,l)
);
},
{
closed = 1;
nodes = (
(382,263,l),
(382,984,l),
(322,984,l),
(322,263,l)
);
}
);
width = 438;
}
);
unicode = 1093;
},
{
glyphname = "che-cy";
lastChange = "2024-04-18 14:55:36 +0000";
layers = (
{
hints = (
{
name = _corner.serif;
options = 1;
origin = (1,2);
scale = (-1,1);
type = Corner;
},
{
name = _corner.serif;
origin = (2,1);
type = Corner;
}
);
layerId = "229FC374-6BB7-493E-A0DB-CDCFAB367F2C";
shapes = (
{
closed = 1;
nodes = (
(309,101,o),
(382,174,o),
(382,263,c),
(322,263,l),
(322,208,o),
(275,161,o),
(220,161,cs),
(163,161,o),
(116,208,o),
(116,263,c),
(56,263,l),
(56,174,o),
(128,101,o),
(220,101,cs)
);
},
{
closed = 1;
nodes = (
(116,263,l),
(116,984,l),
(56,984,l),
(56,263,l)
);
},
{
closed = 1;
nodes = (
(382,0,l),
(382,984,l),
(322,984,l),
(322,0,l)
);
}
);
width = 438;
}
);
unicode = 1095;
userData = {
KernOnName = "che-cy";
};
},
{
glyphname = "tse-cy";
lastChange = "2024-04-18 14:55:36 +0000";
layers = (
{
hints = (
{
name = _corner.serif;
options = 1;
origin = (1,2);
scale = (-1,1);
type = Corner;
},
{
name = _corner.serif;
origin = (2,1);
type = Corner;
}
);
layerId = "229FC374-6BB7-493E-A0DB-CDCFAB367F2C";
shapes = (
{
closed = 1;
nodes = (
(309,0,o),
(382,72,o),
(382,161,c),
(322,161,l),
(322,107,o),
(275,60,o),
(220,60,cs),
(163,60,o),
(116,107,o),
(116,161,c),
(56,161,l),
(56,72,o),
(128,0,o),
(220,0,cs)
);
},
{
closed = 1;
nodes = (
(116,161,l),
(116,984,l),
(56,984,l),
(56,161,l)
);
},
{
closed = 1;
nodes = (
(382,161,l),
(382,984,l),
(322,984,l),
(322,161,l)
);
},
{
closed = 1;
nodes = (
(382,-101,l),
(382,-12,o),
(309,60,o),
(220,60,c),
(220,0,l),
(275,0,o),
(322,-47,o),
(322,-101,c)
);
}
);
width = 438;
}
);
unicode = 1094;
},
{
glyphname = "sha-cy";
lastChange = "2024-04-18 14:55:36 +0000";
layers = (
{
hints = (
{
name = _corner.serif;
options = 1;
origin = (2,2);
scale = (-1,1);
type = Corner;
},
{
name = _corner.serif;
origin = (4,1);
type = Corner;
}
);
layerId = "229FC374-6BB7-493E-A0DB-CDCFAB367F2C";
shapes = (
{
closed = 1;
nodes = (
(575,0,o),
(647,72,o),
(647,161,c),
(587,161,l),
(587,107,o),
(540,60,o),
(485,60,cs),
(428,60,o),
(382,107,o),
(382,161,c),
(322,161,l),
(322,72,o),
(394,0,o),
(485,0,cs)
);
},
{
closed = 1;
nodes = (
(309,0,o),
(382,72,o),
(382,161,c),
(322,161,l),
(322,107,o),
(275,60,o),
(220,60,cs),
(163,60,o),
(116,107,o),
(116,161,c),
(56,161,l),
(56,72,o),
(128,0,o),
(220,0,cs)
);
},
{
closed = 1;
nodes = (
(116,161,l),
(116,984,l),
(56,984,l),
(56,161,l)
);
},
{
closed = 1;
nodes = (
(382,161,l),
(382,984,l),
(322,984,l),
(322,161,l)
);
},
{
closed = 1;
nodes = (
(647,161,l),
(647,984,l),
(587,984,l),
(587,161,l)
);
}
);
width = 703;
}
);
unicode = 1096;
},
{
glyphname = "shcha-cy";
lastChange = "2024-04-18 14:55:36 +0000";
layers = (
{
hints = (
{
name = _corner.serif;
options = 1;
origin = (2,2);
scale = (-1,1);
type = Corner;
},
{
name = _corner.serif;
origin = (4,1);
type = Corner;
}
);
layerId = "229FC374-6BB7-493E-A0DB-CDCFAB367F2C";
shapes = (
{
closed = 1;
nodes = (
(575,0,o),
(647,72,o),
(647,161,c),
(587,161,l),
(587,107,o),
(540,60,o),
(485,60,cs),
(428,60,o),
(382,107,o),
(382,161,c),
(322,161,l),
(322,72,o),
(394,0,o),
(485,0,cs)
);
},
{
closed = 1;
nodes = (
(309,0,o),
(382,72,o),
(382,161,c),
(322,161,l),
(322,107,o),
(275,60,o),
(220,60,cs),
(163,60,o),
(116,107,o),
(116,161,c),
(56,161,l),
(56,72,o),
(128,0,o),
(220,0,cs)
);
},
{
closed = 1;
nodes = (
(116,161,l),
(116,984,l),
(56,984,l),
(56,161,l)
);
},
{
closed = 1;
nodes = (
(382,161,l),
(382,984,l),
(322,984,l),
(322,161,l)
);
},
{
closed = 1;
nodes = (
(647,161,l),
(647,984,l),
(587,984,l),
(587,161,l)
);
},
{
closed = 1;
nodes = (
(647,-101,l),
(647,-12,o),
(575,60,o),
(485,60,c),
(485,0,l),
(540,0,o),
(587,-47,o),
(587,-101,c)
);
}
);
width = 703;
}
);
unicode = 1097;
userData = {
KernOnName = "shcha-cy";
};
},
{
glyphname = "softsign-cy";
lastChange = "2024-04-18 14:55:36 +0000";
layers = (
{
anchors = (
{
name = bottom;
pos = (220,-84);
}
);
hints = (
{
name = _corner.serif;
options = 1;
origin = (1,3);
scale = (-1,1);
type = Corner;
}
);
layerId = "229FC374-6BB7-493E-A0DB-CDCFAB367F2C";
shapes = (
{
closed = 1;
nodes = (
(56,72,o),
(128,0,o),
(220,0,cs),
(309,0,o),
(382,72,o),
(382,161,c),
(322,161,l),
(322,107,o),
(275,60,o),
(220,60,cs),
(163,60,o),
(116,107,o),
(116,161,c),
(56,161,l)
);
},
{
closed = 1;
nodes = (
(56,161,l),
(116,161,l),
(116,984,l),
(56,984,l)
);
},
{
closed = 1;
nodes = (
(221,161,l),
(382,161,l),
(382,221,l),
(221,221,l)
);
}
);
width = 414;
}
);
unicode = 1100;
},
{
glyphname = "yeru-cy";
lastChange = "2024-04-18 14:55:36 +0000";
layers = (
{
hints = (
{
name = _corner.serif;
options = 1;
origin = (1,3);
scale = (-1,1);
type = Corner;
},
{
name = _corner.serif;
options = 1;
origin = (3,1);
scale = (-1,1);
type = Corner;
},
{
name = _corner.serif;
options = 2;
origin = (3,2);
type = Corner;
}
);
layerId = "229FC374-6BB7-493E-A0DB-CDCFAB367F2C";
shapes = (
{
closed = 1;
nodes = (
(56,72,o),
(128,0,o),
(220,0,cs),
(309,0,o),
(382,72,o),
(382,161,c),
(322,161,l),
(322,107,o),
(275,60,o),
(220,60,cs),
(163,60,o),
(116,107,o),
(116,161,c),
(56,161,l)
);
},
{
closed = 1;
nodes = (
(56,161,l),
(116,161,l),
(116,984,l),
(56,984,l)
);
},
{
closed = 1;
nodes = (
(221,161,l),
(382,161,l),
(382,221,l),
(221,221,l)
);
},
{
closed = 1;
nodes = (
(486,0,l),
(546,0,l),
(546,984,l),
(486,984,l)
);
}
);
width = 602;
}
);
unicode = 1099;
},
{
glyphname = "hardsign-cy";
lastChange = "2024-04-18 14:55:36 +0000";
layers = (
{
layerId = "229FC374-6BB7-493E-A0DB-CDCFAB367F2C";
shapes = (
{
closed = 1;
nodes = (
(134,72,o),
(206,0,o),
(298,0,cs),
(387,0,o),
(459,72,o),
(459,161,c),
(399,161,l),
(399,107,o),
(353,60,o),
(298,60,cs),
(241,60,o),
(194,107,o),
(194,161,c),
(134,161,l)
);
},
{
closed = 1;
nodes = (
(134,161,l),
(194,161,l),
(194,822,l),
(134,822,l)
);
},
{
closed = 1;
nodes = (
(299,161,l),
(459,161,l),
(459,221,l),
(299,221,l)
);
},
{
closed = 1;
nodes = (
(194,822,l),
(194,911,o),
(122,984,o),
(33,984,c),
(33,923,l),
(87,923,o),
(134,877,o),
(134,822,c)
);
}
);
width = 492;
}
);
unicode = 1098;
},
{
glyphname = "ereversed-cy";
lastChange = "2024-04-18 14:55:36 +0000";
layers = (
{
layerId = "229FC374-6BB7-493E-A0DB-CDCFAB367F2C";
shapes = (
{
closed = 1;
nodes = (
(358,911,o),
(286,984,o),
(194,984,cs),
(105,984,o),
(33,911,o),
(33,822,c),
(93,822,l),
(93,877,o),
(139,923,o),
(194,923,cs),
(251,923,o),
(298,877,o),
(298,822,c),
(358,822,l)
);
},
{
closed = 1;
nodes = (
(286,0,o),
(358,72,o),
(358,161,c),
(298,161,l),
(298,107,o),
(251,60,o),
(194,60,c),
(194,0,l)
);
},
{
closed = 1;
nodes = (
(358,822,l),
(298,822,l),
(298,161,l),
(358,161,l)
);
},
{
closed = 1;
nodes = (
(194,221,l),
(194,161,l),
(347,161,l),
(347,221,l)
);
}
);
width = 391;
}
);
unicode = 1101;
},
{
glyphname = "yu-cy";
lastChange = "2024-04-18 14:55:36 +0000";
layers = (
{
hints = (
{
name = _corner.serif;
options = 1;
origin = (0,2);
scale = (-1,1);
type = Corner;
},
{
name = _corner.serif;
options = 2;
origin = (0,3);
type = Corner;
}
);
layerId = "229FC374-6BB7-493E-A0DB-CDCFAB367F2C";
shapes = (
{
closed = 1;
nodes = (
(116,0,l),
(116,984,l),
(56,984,l),
(56,0,l)
);
},
{
closed = 1;
nodes = (
(382,822,l),
(382,877,o),
(428,923,o),
(485,923,cs),
(540,923,o),
(587,877,o),
(587,822,c),
(647,822,l),
(647,911,o),
(575,984,o),
(485,984,cs),
(394,984,o),
(322,911,o),
(322,822,c)
);
},
{
closed = 1;
nodes = (
(575,0,o),
(647,72,o),
(647,161,c),
(587,161,l),
(587,107,o),
(540,60,o),
(485,60,cs),
(428,60,o),
(382,107,o),
(382,161,c),
(322,161,l),
(322,72,o),
(394,0,o),
(485,0,cs)
);
},
{
closed = 1;
nodes = (
(382,161,l),
(382,822,l),
(322,822,l),
(322,161,l)
);
},
{
closed = 1;
nodes = (
(647,161,l),
(647,822,l),
(587,822,l),
(587,161,l)
);
},
{
closed = 1;
nodes = (
(309,101,o),
(382,174,o),
(382,263,c),
(322,263,l),
(322,208,o),
(275,161,o),
(220,161,cs),
(163,161,o),
(116,208,o),
(116,263,c),
(56,263,l),
(56,174,o),
(128,101,o),
(220,101,cs)
);
}
);
width = 679;
}
);
unicode = 1102;
},
{
glyphname = "ya-cy";
lastChange = "2024-04-18 14:55:36 +0000";
layers = (
{
hints = (
{
name = _corner.serif;
options = 1;
origin = (0,16);
scale = (-1,1);
type = Corner;
}
);
layerId = "229FC374-6BB7-493E-A0DB-CDCFAB367F2C";
shapes = (
{
closed = 1;
nodes = (
(95,0,l),
(95,57,o),
(142,104,o),
(197,104,c),
(197,164,l),
(139,164,o),
(93,211,o),
(93,265,cs),
(93,822,ls),
(93,877,o),
(139,923,o),
(197,923,cs),
(251,923,o),
(298,877,o),
(298,822,cs),
(298,0,l),
(358,0,l),
(358,822,ls),
(358,911,o),
(286,984,o),
(197,984,cs),
(105,984,o),
(33,911,o),
(33,822,cs),
(33,265,ls),
(33,208,o),
(63,159,o),
(109,134,c),
(63,106,o),
(35,57,o),
(35,0,c)
);
}
);
width = 414;
}
);
unicode = 1103;
},
{
glyphname = zero;
kernLeft = "20";
kernRight = "20";
lastChange = "2024-04-18 14:55:36 +0000";
layers = (
{
layerId = "229FC374-6BB7-493E-A0DB-CDCFAB367F2C";
shapes = (
{
closed = 1;
nodes = (
(93,1293,l),
(93,1352,o),
(142,1401,o),
(203,1401,cs),
(262,1401,o),
(311,1352,o),
(311,1293,c),
(371,1293,l),
(371,1386,o),
(296,1461,o),
(203,1461,cs),
(108,1461,o),
(33,1386,o),
(33,1293,c)
);
},
{
closed = 1;
nodes = (
(296,0,o),
(371,75,o),
(371,168,c),
(311,168,l),
(311,109,o),
(262,60,o),
(203,60,cs),
(142,60,o),
(93,109,o),
(93,168,c),
(33,168,l),
(33,75,o),
(108,0,o),
(203,0,cs)
);
},
{
closed = 1;
nodes = (
(93,168,l),
(93,1293,l),
(33,1293,l),
(33,168,l)
);
},
{
closed = 1;
nodes = (
(371,168,l),
(371,1293,l),
(311,1293,l),
(311,168,l)
);
}
);
width = 404;
}
);
unicode = 48;
},
{
glyphname = one;
kernLeft = "20";
kernRight = "20";
lastChange = "2024-04-18 14:55:36 +0000";
layers = (
{
hints = (
{
name = _corner.serif;
options = 1;
origin = (1,0);
scale = (-1,1);
type = Corner;
}
);
layerId = "229FC374-6BB7-493E-A0DB-CDCFAB367F2C";
shapes = (
{
closed = 1;
nodes = (
(33,1401,l),
(91,1401,o),
(140,1352,o),
(140,1293,c),
(200,1293,l),
(200,1386,o),
(125,1461,o),
(33,1461,c)
);
},
{
closed = 1;
nodes = (
(200,0,l),
(200,1293,l),
(140,1293,l),
(140,0,l)
);
}
);
width = 257;
}
);
unicode = 49;
},
{
glyphname = two;
kernLeft = "20";
kernRight = "20";
lastChange = "2024-04-18 14:55:36 +0000";
layers = (
{
layerId = "229FC374-6BB7-493E-A0DB-CDCFAB367F2C";
shapes = (
{
closed = 1;
nodes = (
(93,1293,l),
(93,1352,o),
(142,1401,o),
(203,1401,cs),
(262,1401,o),
(311,1352,o),
(311,1293,c),
(371,1293,l),
(371,1386,o),
(296,1461,o),
(203,1461,cs),
(108,1461,o),
(33,1386,o),
(33,1293,c)
);
},
{
closed = 1;
nodes = (
(371,0,l),
(371,60,l),
(36,60,l),
(36,0,l)
);
},
{
closed = 1;
nodes = (
(96,60,l),
(96,118,o),
(145,168,o),
(203,168,c),
(203,228,l),
(111,228,o),
(36,153,o),
(36,60,c)
);
},
{
closed = 1;
nodes = (
(296,168,o),
(371,243,o),
(371,335,c),
(311,335,l),
(311,277,o),
(262,228,o),
(203,228,c),
(203,168,l)
);
},
{
closed = 1;
nodes = (
(371,335,l),
(371,1293,l),
(311,1293,l),
(311,335,l)
);
}
);
width = 404;
}
);
unicode = 50;
},
{
glyphname = three;
kernLeft = "20";
kernRight = "20";
lastChange = "2024-04-18 14:55:36 +0000";
layers = (
{
layerId = "229FC374-6BB7-493E-A0DB-CDCFAB367F2C";
shapes = (
{
closed = 1;
nodes = (
(93,1293,l),
(93,1352,o),
(142,1401,o),
(203,1401,cs),
(262,1401,o),
(311,1352,o),
(311,1293,c),
(371,1293,l),
(371,1386,o),
(296,1461,o),
(203,1461,cs),
(108,1461,o),
(33,1386,o),
(33,1293,c)
);
},
{
closed = 1;
nodes = (
(371,168,l),
(371,1018,l),
(311,1018,l),
(311,168,l)
);
},
{
closed = 1;
nodes = (
(371,1018,l),
(371,1110,o),
(296,1186,o),
(203,1186,c),
(203,1126,l),
(262,1126,o),
(311,1076,o),
(311,1018,c)
);
},
{
closed = 1;
nodes = (
(296,1126,o),
(371,1201,o),
(371,1293,c),
(311,1293,l),
(311,1235,o),
(262,1186,o),
(203,1186,c),
(203,1126,l)
);
},
{
closed = 1;
nodes = (
(296,0,o),
(371,75,o),
(371,168,c),
(311,168,l),
(311,109,o),
(262,60,o),
(203,60,cs),
(142,60,o),
(93,109,o),
(93,168,c),
(33,168,l),
(33,75,o),
(108,0,o),
(203,0,cs)
);
}
);
width = 404;
}
);
unicode = 51;
},
{
glyphname = four;
kernLeft = "20";
kernRight = "20";
lastChange = "2024-04-18 14:55:36 +0000";
layers = (
{
hints = (
{
name = _corner.serif;
options = 1;
origin = (2,0);
scale = (-1,1);
type = Corner;
}
);
layerId = "229FC374-6BB7-493E-A0DB-CDCFAB367F2C";
shapes = (
{
closed = 1;
nodes = (
(296,534,o),
(371,609,o),
(371,701,c),
(311,701,l),
(311,643,o),
(262,594,o),
(203,594,cs),
(142,594,o),
(93,643,o),
(93,701,c),
(33,701,l),
(33,609,o),
(108,534,o),
(203,534,cs)
);
},
{
closed = 1;
nodes = (
(93,701,l),
(93,1461,l),
(33,1461,l),
(33,701,l)
);
},
{
closed = 1;
nodes = (
(371,0,l),
(371,1461,l),
(311,1461,l),
(311,0,l)
);
}
);
width = 427;
}
);
unicode = 52;
},
{
glyphname = five;
kernLeft = "20";
kernRight = "20";
lastChange = "2024-04-18 14:55:36 +0000";
layers = (
{
layerId = "229FC374-6BB7-493E-A0DB-CDCFAB367F2C";
shapes = (
{
closed = 1;
nodes = (
(293,0,o),
(368,75,o),
(368,168,cs),
(368,1126,ls),
(368,1218,o),
(293,1293,o),
(200,1293,cs),
(158,1293,o),
(121,1275,o),
(93,1247,c),
(93,1401,l),
(308,1401,l),
(308,1461,l),
(33,1461,l),
(33,1126,l),
(93,1126,l),
(93,1184,o),
(142,1233,o),
(200,1233,cs),
(259,1233,o),
(308,1184,o),
(308,1126,cs),
(308,168,ls),
(308,109,o),
(259,60,o),
(200,60,cs),
(168,60,o),
(138,73,o),
(116,96,c),
(74,53,l),
(105,20,o),
(151,0,o),
(200,0,cs)
);
}
);
width = 401;
}
);
unicode = 53;
},
{
glyphname = six;
kernLeft = "20";
kernRight = "20";
lastChange = "2024-04-18 14:55:36 +0000";
layers = (
{
layerId = "229FC374-6BB7-493E-A0DB-CDCFAB367F2C";
shapes = (
{
closed = 1;
nodes = (
(93,168,l),
(93,226,o),
(142,275,o),
(200,275,cs),
(262,275,o),
(311,226,o),
(311,168,c),
(371,168,l),
(371,260,o),
(296,335,o),
(200,335,cs),
(108,335,o),
(33,260,o),
(33,168,c)
);
},
{
closed = 1;
nodes = (
(296,0,o),
(371,75,o),
(371,168,c),
(311,168,l),
(311,109,o),
(262,60,o),
(200,60,cs),
(142,60,o),
(93,109,o),
(93,168,c),
(33,168,l),
(33,75,o),
(108,0,o),
(200,0,cs)
);
},
{
closed = 1;
nodes = (
(93,168,l),
(93,1293,l),
(33,1293,l),
(33,168,l)
);
},
{
closed = 1;
nodes = (
(93,1293,l),
(93,1352,o),
(142,1401,o),
(200,1401,c),
(200,1461,l),
(108,1461,o),
(33,1386,o),
(33,1293,c)
);
}
);
width = 404;
}
);
unicode = 54;
},
{
glyphname = seven;
kernLeft = "20";
kernRight = "20";
lastChange = "2024-04-18 14:55:36 +0000";
layers = (
{
hints = (
{
name = _corner.serif;
options = 1;
origin = (3,2);
scale = (-1,1);
type = Corner;
}
);
layerId = "229FC374-6BB7-493E-A0DB-CDCFAB367F2C";
shapes = (
{
closed = 1;
nodes = (
(33,1461,l),
(33,1401,l),
(368,1401,l),
(368,1461,l)
);
},
{
closed = 1;
nodes = (
(308,1401,l),
(308,1343,o),
(259,1293,o),
(200,1293,c),
(200,1233,l),
(293,1233,o),
(368,1308,o),
(368,1401,c)
);
},
{
closed = 1;
nodes = (
(108,1293,o),
(33,1218,o),
(33,1126,c),
(93,1126,l),
(93,1184,o),
(142,1233,o),
(200,1233,c),
(200,1293,l)
);
},
{
closed = 1;
nodes = (
(33,1126,l),
(33,0,l),
(93,0,l),
(93,1126,l)
);
}
);
width = 401;
}
);
unicode = 55;
},
{
glyphname = eight;
kernLeft = "20";
kernRight = "20";
lastChange = "2024-04-18 14:55:36 +0000";
layers = (
{
layerId = "229FC374-6BB7-493E-A0DB-CDCFAB367F2C";
shapes = (
{
closed = 1;
nodes = (
(296,0,o),
(371,75,o),
(371,168,cs),
(371,1018,ls),
(371,1075,o),
(339,1127,o),
(294,1156,c),
(339,1185,o),
(371,1236,o),
(371,1293,cs),
(371,1386,o),
(296,1461,o),
(203,1461,cs),
(108,1461,o),
(33,1386,o),
(33,1293,cs),
(33,1236,o),
(65,1185,o),
(109,1156,c),
(65,1127,o),
(33,1075,o),
(33,1018,cs),
(33,168,ls),
(33,75,o),
(108,0,o),
(203,0,cs)
);
},
{
closed = 1;
nodes = (
(142,60,o),
(93,109,o),
(93,168,cs),
(93,1018,ls),
(93,1076,o),
(142,1126,o),
(203,1126,cs),
(262,1126,o),
(311,1076,o),
(311,1018,cs),
(311,168,ls),
(311,109,o),
(262,60,o),
(203,60,cs)
);
},
{
closed = 1;
nodes = (
(142,1186,o),
(93,1235,o),
(93,1293,cs),
(93,1352,o),
(142,1401,o),
(203,1401,cs),
(262,1401,o),
(311,1352,o),
(311,1293,cs),
(311,1235,o),
(262,1186,o),
(203,1186,cs)
);
}
);
width = 404;
}
);
unicode = 56;
},
{
glyphname = nine;
kernLeft = "20";
kernRight = "20";
lastChange = "2024-04-18 14:55:36 +0000";
layers = (
{
layerId = "229FC374-6BB7-493E-A0DB-CDCFAB367F2C";
shapes = (
{
closed = 1;
nodes = (
(93,1293,l),
(93,1352,o),
(142,1401,o),
(203,1401,cs),
(262,1401,o),
(311,1352,o),
(311,1293,c),
(371,1293,l),
(371,1386,o),
(296,1461,o),
(203,1461,cs),
(108,1461,o),
(33,1386,o),
(33,1293,c)
);
},
{
closed = 1;
nodes = (
(296,0,o),
(371,75,o),
(371,168,c),
(311,168,l),
(311,109,o),
(262,60,o),
(203,60,c),
(203,0,l)
);
},
{
closed = 1;
nodes = (
(371,168,l),
(371,1293,l),
(311,1293,l),
(311,168,l)
);
},
{
closed = 1;
nodes = (
(296,1126,o),
(371,1201,o),
(371,1293,c),
(311,1293,l),
(311,1235,o),
(262,1186,o),
(203,1186,cs),
(142,1186,o),
(93,1235,o),
(93,1293,c),
(33,1293,l),
(33,1201,o),
(108,1126,o),
(203,1126,cs)
);
}
);
width = 404;
}
);
unicode = 57;
},
{
glyphname = onesuperior;
kernLeft = "20";
kernRight = "20";
lastChange = "2024-04-18 14:55:36 +0000";
layers = (
{
layerId = "229FC374-6BB7-493E-A0DB-CDCFAB367F2C";
shapes = (
{
closed = 1;
nodes = (
(33,1722,l),
(85,1722,o),
(130,1677,o),
(130,1625,c),
(168,1625,l),
(168,1700,o),
(108,1761,o),
(33,1761,c)
);
},
{
closed = 1;
nodes = (
(168,1162,l),
(168,1625,l),
(130,1625,l),
(130,1162,l)
);
}
);
width = 201;
}
);
unicode = 185;
userData = {
KernOnSpecialSpacing = {
L = superiors;
R = superiors;
};
};
},
{
glyphname = twosuperior;
kernLeft = "20";
kernRight = "20";
lastChange = "2024-04-18 14:55:36 +0000";
layers = (
{
layerId = "229FC374-6BB7-493E-A0DB-CDCFAB367F2C";
shapes = (
{
closed = 1;
nodes = (
(71,1625,l),
(71,1678,o),
(116,1722,o),
(171,1722,cs),
(223,1722,o),
(268,1678,o),
(268,1625,c),
(307,1625,l),
(307,1700,o),
(246,1761,o),
(171,1761,cs),
(93,1761,o),
(33,1700,o),
(33,1625,c)
);
},
{
closed = 1;
nodes = (
(307,1162,l),
(307,1201,l),
(35,1201,l),
(35,1162,l)
);
},
{
closed = 1;
nodes = (
(74,1201,l),
(74,1253,o),
(118,1298,o),
(171,1298,c),
(171,1336,l),
(96,1336,o),
(35,1276,o),
(35,1201,c)
);
},
{
closed = 1;
nodes = (
(246,1298,o),
(307,1358,o),
(307,1434,c),
(268,1434,l),
(268,1380,o),
(223,1336,o),
(171,1336,c),
(171,1298,l)
);
},
{
closed = 1;
nodes = (
(307,1434,l),
(307,1625,l),
(268,1625,l),
(268,1434,l)
);
}
);
width = 340;
}
);
unicode = 178;
userData = {
KernOnSpecialSpacing = {
L = superiors;
R = superiors;
};
};
},
{
glyphname = threesuperior;
kernLeft = "20";
kernRight = "20";
lastChange = "2024-04-18 14:55:36 +0000";
layers = (
{
layerId = "229FC374-6BB7-493E-A0DB-CDCFAB367F2C";
shapes = (
{
closed = 1;
nodes = (
(71,1625,l),
(71,1678,o),
(116,1722,o),
(171,1722,cs),
(223,1722,o),
(268,1678,o),
(268,1625,c),
(307,1625,l),
(307,1700,o),
(246,1761,o),
(171,1761,cs),
(93,1761,o),
(33,1700,o),
(33,1625,c)
);
},
{
closed = 1;
nodes = (
(307,1298,l),
(307,1393,l),
(268,1393,l),
(268,1298,l)
);
},
{
closed = 1;
nodes = (
(307,1393,l),
(307,1467,o),
(246,1528,o),
(171,1528,c),
(171,1489,l),
(223,1489,o),
(268,1445,o),
(268,1393,c)
);
},
{
closed = 1;
nodes = (
(246,1489,o),
(307,1550,o),
(307,1625,c),
(268,1625,l),
(268,1573,o),
(223,1528,o),
(171,1528,c),
(171,1489,l)
);
},
{
closed = 1;
nodes = (
(246,1162,o),
(307,1223,o),
(307,1298,c),
(268,1298,l),
(268,1244,o),
(223,1201,o),
(171,1201,cs),
(116,1201,o),
(71,1244,o),
(71,1298,c),
(33,1298,l),
(33,1223,o),
(93,1162,o),
(171,1162,cs)
);
}
);
width = 340;
}
);
unicode = 179;
userData = {
KernOnSpecialSpacing = {
L = superiors;
R = superiors;
};
};
},
{
glyphname = .notdef;
lastChange = "2024-04-18 14:55:36 +0000";
layers = (
{
layerId = "229FC374-6BB7-493E-A0DB-CDCFAB367F2C";
shapes = (
{
closed = 1;
nodes = (
(221,610,o),
(278,663,o),
(278,731,cs),
(278,798,o),
(221,851,o),
(154,851,cs),
(87,851,o),
(33,798,o),
(33,731,cs),
(33,663,o),
(87,610,o),
(154,610,cs)
);
},
{
closed = 1;
nodes = (
(112,655,o),
(78,688,o),
(78,731,cs),
(78,773,o),
(112,806,o),
(154,806,cs),
(196,806,o),
(233,773,o),
(233,731,cs),
(233,688,o),
(196,655,o),
(154,655,cs)
);
},
{
closed = 1;
nodes = (
(390,610,o),
(410,618,o),
(424,632,c),
(393,663,l),
(387,658,o),
(376,655,o),
(368,655,cs),
(348,655,o),
(328,672,o),
(328,691,cs),
(328,711,o),
(348,728,o),
(368,728,cs),
(376,728,o),
(387,725,o),
(393,719,c),
(424,750,l),
(410,764,o),
(390,773,o),
(368,773,cs),
(323,773,o),
(283,736,o),
(283,691,cs),
(283,646,o),
(323,610,o),
(368,610,cs)
);
},
{
closed = 1;
nodes = (
(486,610,l),
(486,691,ls),
(486,711,o),
(502,728,o),
(525,728,cs),
(545,728,o),
(561,711,o),
(561,691,cs),
(561,610,l),
(606,610,l),
(606,691,ls),
(606,736,o),
(567,773,o),
(525,773,cs),
(508,773,o),
(497,770,o),
(486,764,c),
(486,851,l),
(441,851,l),
(441,610,l)
);
},
{
closed = 1;
nodes = (
(699,655,l),
(680,655,o),
(663,672,o),
(663,691,cs),
(663,711,o),
(680,728,o),
(699,728,cs),
(719,728,o),
(739,711,o),
(739,691,cs),
(739,610,l),
(783,610,l),
(783,691,ls),
(783,736,o),
(744,773,o),
(699,773,cs),
(654,773,o),
(618,736,o),
(618,691,cs),
(618,646,o),
(654,610,o),
(699,610,c)
);
},
{
closed = 1;
nodes = (
(845,610,l),
(845,641,l),
(854,632,o),
(868,632,o),
(882,632,cs),
(890,632,o),
(899,632,o),
(907,635,c),
(916,629,o),
(918,618,o),
(918,610,c),
(963,610,l),
(963,629,o),
(958,646,o),
(944,660,c),
(958,677,o),
(963,694,o),
(963,714,cs),
(963,773,l),
(918,773,l),
(918,714,ls),
(918,694,o),
(901,677,o),
(882,677,cs),
(862,677,o),
(845,694,o),
(845,714,cs),
(845,851,l),
(800,851,l),
(800,610,l)
);
},
{
closed = 1;
nodes = (
(1101,610,o),
(1138,646,o),
(1138,691,cs),
(1138,736,o),
(1101,773,o),
(1056,773,cs),
(1011,773,o),
(975,736,o),
(975,691,cs),
(975,646,o),
(1011,610,o),
(1056,610,cs)
);
},
{
closed = 1;
nodes = (
(1036,655,o),
(1020,672,o),
(1020,691,cs),
(1020,711,o),
(1036,728,o),
(1056,728,cs),
(1076,728,o),
(1093,711,o),
(1093,691,cs),
(1093,672,o),
(1076,655,o),
(1056,655,cs)
);
},
{
closed = 1;
nodes = (
(1225,610,o),
(1236,610,o),
(1244,613,c),
(1298,773,l),
(1253,773,l),
(1216,663,l),
(1177,773,l),
(1135,773,l),
(1188,613,l),
(1197,610,o),
(1205,610,o),
(1216,610,cs)
);
}
);
width = 1330;
}
);
},
{
glyphname = period;
kernLeft = "20";
kernRight = "20";
lastChange = "2024-04-18 14:55:36 +0000";
layers = (
{
layerId = "229FC374-6BB7-493E-A0DB-CDCFAB367F2C";
shapes = (
{
closed = 1;
nodes = (
(93,0,l),
(93,60,l),
(33,60,l),
(33,0,l)
);
}
);
width = 125;
}
);
unicode = 46;
userData = {
KernOnSpecialSpacing = {
L = period;
R = period;
};
};
},
{
glyphname = comma;
kernLeft = "20";
kernRight = "20";
lastChange = "2024-04-18 14:55:36 +0000";
layers = (
{
layerId = "229FC374-6BB7-493E-A0DB-CDCFAB367F2C";
shapes = (
{
closed = 1;
nodes = (
(110,-93,o),
(131,-46,o),
(131,3,cs),
(131,60,l),
(71,60,l),
(71,3,ls),
(71,-29,o),
(56,-61,o),
(33,-84,c),
(76,-126,l)
);
}
);
width = 164;
}
);
unicode = 44;
userData = {
KernOnSpecialSpacing = {
L = period;
R = period;
};
};
},
{
glyphname = colon;
kernLeft = "20";
kernRight = "20";
lastChange = "2024-04-18 14:55:36 +0000";
layers = (
{
layerId = "229FC374-6BB7-493E-A0DB-CDCFAB367F2C";
shapes = (
{
closed = 1;
nodes = (
(93,819,l),
(93,879,l),
(33,879,l),
(33,819,l)
);
},
{
closed = 1;
nodes = (
(93,0,l),
(93,60,l),
(33,60,l),
(33,0,l)
);
}
);
width = 125;
}
);
unicode = 58;
userData = {
KernOnSpecialSpacing = {
L = "spaced-off";
R = "spaced-off";
};
};
},
{
glyphname = semicolon;
kernLeft = "20";
kernRight = "20";
lastChange = "2024-04-18 14:55:36 +0000";
layers = (
{
layerId = "229FC374-6BB7-493E-A0DB-CDCFAB367F2C";
shapes = (
{
closed = 1;
nodes = (
(110,-93,o),
(131,-46,o),
(131,3,cs),
(131,60,l),
(71,60,l),
(71,3,ls),
(71,-29,o),
(56,-61,o),
(33,-84,c),
(76,-126,l)
);
},
{
closed = 1;
nodes = (
(131,819,l),
(131,879,l),
(71,879,l),
(71,819,l)
);
}
);
width = 164;
}
);
unicode = 59;
userData = {
KernOnSpecialSpacing = {
L = "spaced-off";
R = "spaced-off";
};
};
},
{
glyphname = ellipsis;
kernLeft = "20";
kernRight = "20";
lastChange = "2024-04-18 14:55:36 +0000";
layers = (
{
layerId = "229FC374-6BB7-493E-A0DB-CDCFAB367F2C";
shapes = (
{
closed = 1;
nodes = (
(382,0,l),
(382,60,l),
(322,60,l),
(322,0,l)
);
},
{
closed = 1;
nodes = (
(93,0,l),
(93,60,l),
(33,60,l),
(33,0,l)
);
},
{
closed = 1;
nodes = (
(238,0,l),
(238,60,l),
(178,60,l),
(178,0,l)
);
}
);
width = 414;
}
);
unicode = 8230;
},
{
glyphname = exclam;
kernLeft = "20";
kernRight = "20";
lastChange = "2024-04-18 14:55:36 +0000";
layers = (
{
layerId = "229FC374-6BB7-493E-A0DB-CDCFAB367F2C";
shapes = (
{
closed = 1;
nodes = (
(93,203,l),
(93,1461,l),
(33,1461,l),
(33,203,l)
);
},
{
closed = 1;
nodes = (
(93,0,l),
(93,60,l),
(33,60,l),
(33,0,l)
);
}
);
width = 125;
}
);
unicode = 33;
userData = {
KernOnSpecialSpacing = {
L = "spaced-off";
};
};
},
{
glyphname = exclamdown;
kernLeft = "20";
kernRight = "20";
lastChange = "2024-04-18 14:55:36 +0000";
layers = (
{
layerId = "229FC374-6BB7-493E-A0DB-CDCFAB367F2C";
shapes = (
{
closed = 1;
nodes = (
(93,0,l),
(93,1259,l),
(33,1259,l),
(33,0,l)
);
},
{
closed = 1;
nodes = (
(93,1401,l),
(93,1461,l),
(33,1461,l),
(33,1401,l)
);
}
);
width = 125;
}
);
unicode = 161;
userData = {
KernOnSpecialSpacing = {
R = "spaced-off";
};
};
},
{
glyphname = question;
kernLeft = "20";
kernRight = "20";
lastChange = "2024-04-18 14:55:36 +0000";
layers = (
{
layerId = "229FC374-6BB7-493E-A0DB-CDCFAB367F2C";
shapes = (
{
closed = 1;
nodes = (
(93,1293,l),
(93,1352,o),
(142,1401,o),
(203,1401,cs),
(262,1401,o),
(311,1352,o),
(311,1293,c),
(371,1293,l),
(371,1386,o),
(296,1461,o),
(203,1461,cs),
(108,1461,o),
(33,1386,o),
(33,1293,c)
);
},
{
closed = 1;
nodes = (
(234,0,l),
(234,60,l),
(174,60,l),
(174,0,l)
);
},
{
closed = 1;
nodes = (
(234,203,l),
(234,538,l),
(174,538,l),
(174,203,l)
);
},
{
closed = 1;
nodes = (
(296,478,o),
(371,553,o),
(371,646,c),
(311,646,l),
(311,587,o),
(262,538,o),
(203,538,c),
(203,478,l)
);
},
{
closed = 1;
nodes = (
(371,646,l),
(371,1293,l),
(311,1293,l),
(311,646,l)
);
}
);
width = 404;
}
);
unicode = 63;
userData = {
KernOnSpecialSpacing = {
L = "spaced-off";
};
};
},
{
glyphname = questiondown;
kernLeft = "20";
kernRight = "20";
lastChange = "2024-04-18 14:55:36 +0000";
layers = (
{
layerId = "229FC374-6BB7-493E-A0DB-CDCFAB367F2C";
shapes = (
{
closed = 1;
nodes = (
(296,0,o),
(371,75,o),
(371,168,c),
(311,168,l),
(311,109,o),
(262,60,o),
(200,60,cs),
(142,60,o),
(93,109,o),
(93,168,c),
(33,168,l),
(33,75,o),
(108,0,o),
(200,0,cs)
);
},
{
closed = 1;
nodes = (
(93,168,l),
(93,815,l),
(33,815,l),
(33,168,l)
);
},
{
closed = 1;
nodes = (
(93,815,l),
(93,875,o),
(142,923,o),
(200,923,c),
(200,984,l),
(108,984,o),
(33,908,o),
(33,815,c)
);
},
{
closed = 1;
nodes = (
(230,923,l),
(230,1259,l),
(170,1259,l),
(170,923,l)
);
},
{
closed = 1;
nodes = (
(230,1401,l),
(230,1461,l),
(170,1461,l),
(170,1401,l)
);
}
);
width = 404;
}
);
unicode = 191;
userData = {
KernOnSpecialSpacing = {
R = "spaced-off";
};
};
},
{
glyphname = bullet;
kernLeft = "20";
kernRight = "20";
lastChange = "2024-04-18 14:55:36 +0000";
layers = (
{
layerId = "229FC374-6BB7-493E-A0DB-CDCFAB367F2C";
shapes = (
{
closed = 1;
nodes = (
(128,432,o),
(153,457,o),
(153,492,cs),
(153,526,o),
(128,552,o),
(93,552,cs),
(58,552,o),
(33,526,o),
(33,492,cs),
(33,457,o),
(58,432,o),
(93,432,cs)
);
}
);
width = 186;
}
);
unicode = 8226;
userData = {
KernOnSpecialSpacing = {
L = NoKerning;
R = NoKerning;
};
};
},
{
glyphname = asterisk;
kernLeft = "20";
kernRight = "20";
lastChange = "2024-04-18 14:55:36 +0000";
layers = (
{
layerId = "229FC374-6BB7-493E-A0DB-CDCFAB367F2C";
shapes = (
{
closed = 1;
nodes = (
(335,1468,l),
(321,1507,l),
(36,1454,l),
(51,1415,l)
);
},
{
closed = 1;
nodes = (
(231,1328,l),
(178,1612,l),
(139,1597,l),
(192,1313,l)
);
},
{
closed = 1;
nodes = (
(296,1361,l),
(312,1399,l),
(74,1562,l),
(57,1524,l)
);
},
{
closed = 1;
nodes = (
(122,1336,l),
(285,1574,l),
(248,1592,l),
(84,1353,l)
);
}
);
width = 372;
}
);
unicode = 42;
userData = {
KernOnSpecialSpacing = {
L = quotes;
R = quotes;
};
};
},
{
glyphname = numbersign;
kernLeft = "20";
kernRight = "20";
lastChange = "2024-04-18 14:55:36 +0000";
layers = (
{
layerId = "229FC374-6BB7-493E-A0DB-CDCFAB367F2C";
shapes = (
{
closed = 1;
nodes = (
(295,0,l),
(784,1461,l),
(724,1461,l),
(235,0,l)
);
},
{
closed = 1;
nodes = (
(610,597,l),
(630,657,l),
(135,657,l),
(116,597,l)
);
},
{
closed = 1;
nodes = (
(93,0,l),
(582,1461,l),
(522,1461,l),
(33,0,l)
);
},
{
closed = 1;
nodes = (
(674,804,l),
(693,864,l),
(201,864,l),
(182,804,l)
);
}
);
width = 816;
}
);
unicode = 35;
},
{
glyphname = slash;
kernLeft = "20";
kernRight = "20";
lastChange = "2024-04-18 14:55:36 +0000";
layers = (
{
layerId = "229FC374-6BB7-493E-A0DB-CDCFAB367F2C";
shapes = (
{
closed = 1;
nodes = (
(93,0,l),
(582,1461,l),
(522,1461,l),
(33,0,l)
);
}
);
width = 614;
}
);
unicode = 47;
userData = {
KernOnSpecialSpacing = {
L = slash;
R = slash;
};
};
},
{
glyphname = backslash;
kernLeft = "20";
kernRight = "20";
lastChange = "2024-04-18 14:55:36 +0000";
layers = (
{
layerId = "229FC374-6BB7-493E-A0DB-CDCFAB367F2C";
shapes = (
{
closed = 1;
nodes = (
(582,0,l),
(93,1461,l),
(33,1461,l),
(522,0,l)
);
}
);
width = 614;
}
);
unicode = 92;
userData = {
KernOnSpecialSpacing = {
L = "spaced-off";
R = "spaced-off";
};
};
},
{
glyphname = hyphen;
kernLeft = "20";
kernRight = "20";
lastChange = "2024-04-18 14:55:36 +0000";
layers = (
{
layerId = "229FC374-6BB7-493E-A0DB-CDCFAB367F2C";
shapes = (
{
closed = 1;
nodes = (
(230,701,l),
(230,761,l),
(33,761,l),
(33,701,l)
);
}
);
width = 263;
}
);
unicode = 45;
userData = {
KernOnSpecialSpacing = {
L = hyphen;
R = hyphen;
};
};
},
{
glyphname = endash;
kernLeft = "20";
kernRight = "20";
lastChange = "2024-04-18 14:55:36 +0000";
layers = (
{
layerId = "229FC374-6BB7-493E-A0DB-CDCFAB367F2C";
shapes = (
{
closed = 1;
nodes = (
(371,701,l),
(371,761,l),
(33,761,l),
(33,701,l)
);
}
);
width = 404;
}
);
unicode = 8211;
userData = {
KernOnSpecialSpacing = {
L = dashes;
R = dashes;
};
};
},
{
glyphname = emdash;
kernLeft = "20";
kernRight = "20";
lastChange = "2024-04-18 14:55:36 +0000";
layers = (
{
layerId = "229FC374-6BB7-493E-A0DB-CDCFAB367F2C";
shapes = (
{
closed = 1;
nodes = (
(558,701,l),
(558,761,l),
(33,761,l),
(33,701,l)
);
}
);
width = 591;
}
);
unicode = 8212;
userData = {
KernOnSpecialSpacing = {
L = dashes;
R = dashes;
};
};
},
{
glyphname = parenleft;
kernLeft = "20";
kernRight = "20";
lastChange = "2024-04-18 14:55:36 +0000";
layers = (
{
layerId = "229FC374-6BB7-493E-A0DB-CDCFAB367F2C";
shapes = (
{
closed = 1;
nodes = (
(215,60,l),
(148,60,o),
(93,115,o),
(93,180,cs),
(93,1281,ls),
(93,1346,o),
(148,1401,o),
(215,1401,c),
(215,1461,l),
(114,1461,o),
(33,1380,o),
(33,1281,cs),
(33,180,ls),
(33,81,o),
(114,0,o),
(215,0,c)
);
}
);
width = 248;
}
);
unicode = 40;
userData = {
KernOnSpecialSpacing = {
R = parenthesis;
};
};
},
{
glyphname = parenright;
kernLeft = "20";
kernRight = "20";
lastChange = "2024-04-18 14:55:36 +0000";
layers = (
{
layerId = "229FC374-6BB7-493E-A0DB-CDCFAB367F2C";
shapes = (
{
closed = 1;
nodes = (
(135,0,o),
(215,81,o),
(215,180,cs),
(215,1281,ls),
(215,1380,o),
(135,1461,o),
(33,1461,c),
(33,1401,l),
(100,1401,o),
(155,1346,o),
(155,1281,cs),
(155,180,ls),
(155,115,o),
(100,60,o),
(33,60,c),
(33,0,l)
);
}
);
width = 248;
}
);
unicode = 41;
userData = {
KernOnSpecialSpacing = {
L = parenthesis;
};
};
},
{
glyphname = braceleft;
kernLeft = "20";
kernRight = "20";
lastChange = "2024-04-18 14:55:36 +0000";
layers = (
{
layerId = "229FC374-6BB7-493E-A0DB-CDCFAB367F2C";
shapes = (
{
closed = 1;
nodes = (
(338,60,l),
(270,60,o),
(215,115,o),
(215,180,cs),
(215,1281,ls),
(215,1346,o),
(270,1401,o),
(338,1401,c),
(338,1461,l),
(236,1461,o),
(155,1380,o),
(155,1281,cs),
(155,763,l),
(33,763,l),
(33,703,l),
(155,703,l),
(155,180,ls),
(155,81,o),
(236,0,o),
(338,0,c)
);
}
);
width = 371;
}
);
unicode = 123;
userData = {
KernOnSpecialSpacing = {
R = parenthesis;
};
};
},
{
glyphname = braceright;
kernLeft = "20";
kernRight = "20";
lastChange = "2024-04-18 14:55:36 +0000";
layers = (
{
layerId = "229FC374-6BB7-493E-A0DB-CDCFAB367F2C";
shapes = (
{
closed = 1;
nodes = (
(135,0,o),
(215,81,o),
(215,180,cs),
(215,703,l),
(338,703,l),
(338,763,l),
(215,763,l),
(215,1281,ls),
(215,1380,o),
(135,1461,o),
(33,1461,c),
(33,1401,l),
(100,1401,o),
(155,1346,o),
(155,1281,cs),
(155,180,ls),
(155,115,o),
(100,60,o),
(33,60,c),
(33,0,l)
);
}
);
width = 371;
}
);
unicode = 125;
userData = {
KernOnSpecialSpacing = {
L = parenthesis;
};
};
},
{
glyphname = bracketleft;
kernLeft = "20";
kernRight = "20";
lastChange = "2024-04-18 14:55:36 +0000";
layers = (
{
layerId = "229FC374-6BB7-493E-A0DB-CDCFAB367F2C";
shapes = (
{
closed = 1;
nodes = (
(93,0,l),
(93,1461,l),
(33,1461,l),
(33,0,l)
);
},
{
closed = 1;
nodes = (
(330,0,l),
(330,60,l),
(33,60,l),
(33,0,l)
);
},
{
closed = 1;
nodes = (
(330,1401,l),
(330,1461,l),
(33,1461,l),
(33,1401,l)
);
}
);
width = 362;
}
);
unicode = 91;
userData = {
KernOnSpecialSpacing = {
L = NoKerning;
R = parenthesis;
};
};
},
{
glyphname = bracketright;
kernLeft = "20";
kernRight = "20";
lastChange = "2024-04-18 14:55:36 +0000";
layers = (
{
layerId = "229FC374-6BB7-493E-A0DB-CDCFAB367F2C";
shapes = (
{
closed = 1;
nodes = (
(330,0,l),
(330,1461,l),
(270,1461,l),
(270,0,l)
);
},
{
closed = 1;
nodes = (
(330,0,l),
(330,60,l),
(33,60,l),
(33,0,l)
);
},
{
closed = 1;
nodes = (
(330,1401,l),
(330,1461,l),
(33,1461,l),
(33,1401,l)
);
}
);
width = 362;
}
);
unicode = 93;
userData = {
KernOnSpecialSpacing = {
L = parenthesis;
R = NoKerning;
};
};
},
{
glyphname = guillemetleft;
kernLeft = "20";
kernRight = "20";
lastChange = "2024-04-18 14:55:36 +0000";
layers = (
{
layerId = "229FC374-6BB7-493E-A0DB-CDCFAB367F2C";
shapes = (
{
closed = 1;
nodes = (
(132,462,o),
(213,543,o),
(213,642,c),
(153,642,l),
(153,577,o),
(98,522,o),
(33,522,c),
(33,462,l)
);
},
{
closed = 1;
nodes = (
(213,342,l),
(213,441,o),
(132,522,o),
(33,522,c),
(33,462,l),
(98,462,o),
(153,407,o),
(153,342,c)
);
},
{
closed = 1;
nodes = (
(313,345,l),
(313,412,o),
(288,473,o),
(246,520,c),
(191,492,l),
(229,455,o),
(253,402,o),
(253,345,c)
);
},
{
closed = 1;
nodes = (
(288,510,o),
(313,574,o),
(313,642,c),
(253,642,l),
(253,582,o),
(229,532,o),
(191,492,c),
(246,464,l)
);
}
);
width = 346;
}
);
unicode = 171;
userData = {
KernOnSpecialSpacing = {
L = quotes;
R = quotes;
};
};
},
{
glyphname = guillemetright;
kernLeft = "20";
kernRight = "20";
lastChange = "2024-04-18 14:55:36 +0000";
layers = (
{
layerId = "229FC374-6BB7-493E-A0DB-CDCFAB367F2C";
shapes = (
{
closed = 1;
nodes = (
(313,522,l),
(248,522,o),
(193,577,o),
(193,642,c),
(133,642,l),
(133,543,o),
(213,462,o),
(313,462,c)
);
},
{
closed = 1;
nodes = (
(93,345,l),
(93,402,o),
(117,455,o),
(156,492,c),
(101,520,l),
(58,473,o),
(33,412,o),
(33,345,c)
);
},
{
closed = 1;
nodes = (
(193,342,l),
(193,407,o),
(248,462,o),
(313,462,c),
(313,522,l),
(213,522,o),
(133,441,o),
(133,342,c)
);
},
{
closed = 1;
nodes = (
(156,492,l),
(117,532,o),
(93,582,o),
(93,642,c),
(33,642,l),
(33,574,o),
(58,510,o),
(101,464,c)
);
}
);
width = 346;
}
);
unicode = 187;
userData = {
KernOnSpecialSpacing = {
L = quotes;
R = quotes;
};
};
},
{
glyphname = guilsinglleft;
kernLeft = "20";
kernRight = "20";
lastChange = "2024-04-18 14:55:36 +0000";
layers = (
{
layerId = "229FC374-6BB7-493E-A0DB-CDCFAB367F2C";
shapes = (
{
closed = 1;
nodes = (
(132,462,o),
(213,543,o),
(213,642,c),
(153,642,l),
(153,577,o),
(98,522,o),
(33,522,c),
(33,462,l)
);
},
{
closed = 1;
nodes = (
(213,342,l),
(213,441,o),
(132,522,o),
(33,522,c),
(33,462,l),
(98,462,o),
(153,407,o),
(153,342,c)
);
}
);
width = 246;
}
);
unicode = 8249;
userData = {
KernOnSpecialSpacing = {
L = quotes;
R = quotes;
};
};
},
{
glyphname = guilsinglright;
kernLeft = "20";
kernRight = "20";
lastChange = "2024-04-18 14:55:36 +0000";
layers = (
{
layerId = "229FC374-6BB7-493E-A0DB-CDCFAB367F2C";
shapes = (
{
closed = 1;
nodes = (
(213,522,l),
(148,522,o),
(93,577,o),
(93,642,c),
(33,642,l),
(33,543,o),
(114,462,o),
(213,462,c)
);
},
{
closed = 1;
nodes = (
(93,342,l),
(93,407,o),
(148,462,o),
(213,462,c),
(213,522,l),
(114,522,o),
(33,441,o),
(33,342,c)
);
}
);
width = 246;
}
);
unicode = 8250;
userData = {
KernOnSpecialSpacing = {
L = quotes;
R = quotes;
};
};
},
{
glyphname = quotesingle;
kernLeft = "20";
kernRight = "20";
lastChange = "2024-04-18 14:55:36 +0000";
layers = (
{
layerId = "229FC374-6BB7-493E-A0DB-CDCFAB367F2C";
shapes = (
{
closed = 1;
nodes = (
(93,1271,l),
(93,1654,l),
(33,1654,l),
(33,1271,l)
);
}
);
width = 125;
}
);
unicode = 39;
userData = {
KernOnSpecialSpacing = {
L = quotes;
R = quotes;
};
};
},
{
glyphname = at;
kernLeft = "20";
kernRight = "20";
lastChange = "2024-04-18 14:55:36 +0000";
layers = (
{
layerId = "229FC374-6BB7-493E-A0DB-CDCFAB367F2C";
shapes = (
{
closed = 1;
nodes = (
(93,731,l),
(93,968,o),
(286,1162,o),
(525,1162,cs),
(763,1162,o),
(957,968,o),
(957,731,c),
(1017,731,l),
(1017,1000,o),
(795,1222,o),
(525,1222,cs),
(255,1222,o),
(33,1000,o),
(33,731,c)
);
},
{
closed = 1;
nodes = (
(525,-179,l),
(286,-179,o),
(93,15,o),
(93,253,c),
(33,253,l),
(33,-17,o),
(255,-239,o),
(525,-239,c)
);
},
{
closed = 1;
nodes = (
(93,253,l),
(93,731,l),
(33,731,l),
(33,253,l)
);
},
{
closed = 1;
nodes = (
(525,102,l),
(441,102,o),
(373,170,o),
(373,253,c),
(328,253,l),
(328,146,o),
(415,56,o),
(525,56,c)
);
},
{
closed = 1;
nodes = (
(373,253,l),
(373,731,l),
(328,731,l),
(328,253,l)
);
},
{
closed = 1;
nodes = (
(373,731,l),
(373,813,o),
(441,881,o),
(525,881,cs),
(608,881,o),
(676,813,o),
(676,731,c),
(722,731,l),
(722,837,o),
(632,927,o),
(525,927,cs),
(415,927,o),
(328,837,o),
(328,731,c)
);
},
{
closed = 1;
nodes = (
(1017,-239,l),
(1017,731,l),
(957,731,l),
(957,-239,l)
);
},
{
closed = 1;
nodes = (
(676,-239,l),
(722,-239,l),
(722,731,l),
(676,731,l)
);
}
);
width = 1049;
}
);
unicode = 64;
userData = {
KernOnSpecialSpacing = {
L = symbols;
R = symbols;
};
};
},
{
glyphname = ampersand;
kernLeft = "20";
kernRight = "20";
lastChange = "2024-04-18 14:55:36 +0000";
layers = (
{
layerId = "229FC374-6BB7-493E-A0DB-CDCFAB367F2C";
shapes = (
{
closed = 1;
nodes = (
(33,222,o),
(255,0,o),
(525,0,cs),
(795,0,o),
(1017,222,o),
(1017,492,c),
(957,492,l),
(957,254,o),
(763,60,o),
(525,60,cs),
(286,60,o),
(93,254,o),
(93,492,c),
(33,492,l)
);
},
{
closed = 1;
nodes = (
(953,0,l),
(1017,0,l),
(902,206,l),
(848,185,l)
);
},
{
closed = 1;
nodes = (
(255,986,o),
(30,764,o),
(33,495,cs),
(33,222,o),
(255,0,o),
(525,0,c),
(525,60,l),
(286,60,o),
(93,254,o),
(93,495,cs),
(93,732,o),
(286,926,o),
(525,926,c),
(525,986,l)
);
},
{
closed = 1;
nodes = (
(671,926,o),
(791,1046,o),
(791,1195,cs),
(791,1342,o),
(671,1461,o),
(525,1461,cs),
(376,1461,o),
(256,1342,o),
(256,1195,cs),
(256,1046,o),
(376,926,o),
(525,926,cs)
);
},
{
closed = 1;
nodes = (
(410,986,o),
(316,1080,o),
(316,1195,cs),
(316,1307,o),
(410,1401,o),
(525,1401,cs),
(637,1401,o),
(731,1307,o),
(731,1195,cs),
(731,1080,o),
(637,986,o),
(525,986,cs)
);
}
);
width = 1049;
}
);
unicode = 38;
userData = {
KernOnSpecialSpacing = {
L = symbols;
R = symbols;
};
};
},
{
glyphname = section;
kernLeft = "20";
kernRight = "20";
lastChange = "2024-04-18 14:55:36 +0000";
layers = (
{
layerId = "229FC374-6BB7-493E-A0DB-CDCFAB367F2C";
shapes = (
{
closed = 1;
nodes = (
(609,360,o),
(775,525,o),
(775,731,cs),
(775,936,o),
(609,1102,o),
(404,1102,cs),
(199,1102,o),
(33,936,o),
(33,731,cs),
(33,525,o),
(199,360,o),
(404,360,cs)
);
},
{
closed = 1;
nodes = (
(607,-104,o),
(770,59,o),
(770,261,cs),
(770,371,o),
(716,471,o),
(635,527,c),
(620,469,l),
(674,415,o),
(709,342,o),
(709,261,cs),
(709,96,o),
(569,-44,o),
(404,-44,cs),
(322,-44,o),
(246,-9,o),
(190,45,c),
(146,3,l),
(213,-65,o),
(303,-104,o),
(404,-104,cs)
);
},
{
closed = 1;
nodes = (
(236,420,o),
(93,562,o),
(93,731,cs),
(93,899,o),
(236,1041,o),
(404,1041,cs),
(572,1041,o),
(715,899,o),
(715,731,cs),
(715,562,o),
(572,420,o),
(404,420,cs)
);
},
{
closed = 1;
nodes = (
(185,997,l),
(132,1048,o),
(99,1120,o),
(99,1200,cs),
(99,1366,o),
(239,1505,o),
(404,1505,cs),
(485,1505,o),
(561,1470,o),
(617,1416,c),
(663,1458,l),
(595,1526,o),
(505,1565,o),
(404,1565,cs),
(202,1565,o),
(39,1402,o),
(39,1200,cs),
(39,1092,o),
(92,995,o),
(168,939,c)
);
}
);
width = 807;
}
);
unicode = 167;
userData = {
KernOnSpecialSpacing = {
R = symbols;
};
};
},
{
glyphname = copyright;
kernLeft = "20";
kernRight = "20";
lastChange = "2024-04-18 14:55:36 +0000";
layers = (
{
layerId = "229FC374-6BB7-493E-A0DB-CDCFAB367F2C";
shapes = (
{
closed = 1;
nodes = (
(93,731,l),
(93,968,o),
(286,1162,o),
(525,1162,cs),
(763,1162,o),
(957,968,o),
(957,731,c),
(1017,731,l),
(1017,1000,o),
(795,1222,o),
(525,1222,cs),
(255,1222,o),
(33,1000,o),
(33,731,c)
);
},
{
closed = 1;
nodes = (
(795,-239,o),
(1017,-17,o),
(1017,253,c),
(957,253,l),
(957,15,o),
(763,-179,o),
(525,-179,cs),
(286,-179,o),
(93,15,o),
(93,253,c),
(33,253,l),
(33,-17,o),
(255,-239,o),
(525,-239,cs)
);
},
{
closed = 1;
nodes = (
(93,253,l),
(93,731,l),
(33,731,l),
(33,253,l)
);
},
{
closed = 1;
nodes = (
(632,56,o),
(722,146,o),
(722,253,c),
(676,253,l),
(676,170,o),
(608,102,o),
(525,102,cs),
(441,102,o),
(373,170,o),
(373,253,c),
(328,253,l),
(328,146,o),
(415,56,o),
(525,56,cs)
);
},
{
closed = 1;
nodes = (
(373,253,l),
(373,731,l),
(328,731,l),
(328,253,l)
);
},
{
closed = 1;
nodes = (
(373,731,l),
(373,813,o),
(441,881,o),
(525,881,cs),
(608,881,o),
(676,813,o),
(676,731,c),
(722,731,l),
(722,837,o),
(632,927,o),
(525,927,cs),
(415,927,o),
(328,837,o),
(328,731,c)
);
},
{
closed = 1;
nodes = (
(1017,253,l),
(1017,731,l),
(957,731,l),
(957,253,l)
);
}
);
width = 1049;
}
);
unicode = 169;
userData = {
KernOnSpecialSpacing = {
R = symbols;
};
};
},
{
glyphname = registered;
kernLeft = "20";
kernRight = "20";
lastChange = "2024-04-18 14:55:36 +0000";
layers = (
{
layerId = "229FC374-6BB7-493E-A0DB-CDCFAB367F2C";
shapes = (
{
closed = 1;
nodes = (
(472,882,o),
(597,1007,o),
(597,1161,cs),
(597,1633,ls),
(597,1787,o),
(472,1912,o),
(318,1912,cs),
(161,1912,o),
(33,1787,o),
(33,1633,cs),
(33,1161,ls),
(33,1007,o),
(161,882,o),
(318,882,cs)
);
},
{
closed = 1;
nodes = (
(451,1123,l),
(451,1198,ls),
(451,1247,o),
(422,1291,o),
(381,1314,c),
(422,1337,o),
(451,1381,o),
(451,1430,c),
(412,1430,l),
(412,1378,o),
(368,1333,o),
(315,1333,c),
(315,1295,l),
(368,1295,o),
(412,1250,o),
(412,1198,cs),
(412,1123,l)
);
},
{
closed = 1;
nodes = (
(183,926,o),
(78,1033,o),
(78,1162,cs),
(78,1633,ls),
(78,1762,o),
(183,1868,o),
(318,1868,cs),
(447,1868,o),
(553,1762,o),
(553,1633,cs),
(553,1161,ls),
(553,1032,o),
(447,926,o),
(318,926,cs)
);
},
{
closed = 1;
nodes = (
(216,1123,l),
(216,1630,ls),
(216,1683,o),
(260,1727,o),
(315,1727,cs),
(368,1727,o),
(412,1683,o),
(412,1630,cs),
(412,1430,l),
(451,1430,l),
(451,1630,ls),
(451,1705,o),
(391,1765,o),
(315,1765,cs),
(238,1765,o),
(178,1705,o),
(178,1630,cs),
(178,1123,l)
);
}
);
width = 630;
}
);
unicode = 174;
userData = {
KernOnSpecialSpacing = {
L = superiors;
};
};
},
{
glyphname = degree;
kernLeft = "20";
kernRight = "20";
lastChange = "2024-04-18 14:55:36 +0000";
layers = (
{
layerId = "229FC374-6BB7-493E-A0DB-CDCFAB367F2C";
shapes = (
{
closed = 1;
nodes = (
(254,1159,o),
(317,1223,o),
(317,1300,cs),
(317,1625,ls),
(317,1702,o),
(254,1765,o),
(176,1765,cs),
(96,1765,o),
(33,1702,o),
(33,1625,cs),
(33,1300,ls),
(33,1223,o),
(96,1159,o),
(176,1159,cs)
);
},
{
closed = 1;
nodes = (
(118,1198,o),
(71,1245,o),
(71,1300,cs),
(71,1625,ls),
(71,1681,o),
(118,1727,o),
(176,1727,cs),
(231,1727,o),
(278,1681,o),
(278,1625,cs),
(278,1300,ls),
(278,1245,o),
(231,1198,o),
(176,1198,cs)
);
}
);
width = 349;
}
);
unicode = 176;
userData = {
KernOnSpecialSpacing = {
L = superiors;
R = superiors;
};
};
},
{
glyphname = bar;
kernLeft = "20";
kernRight = "20";
lastChange = "2024-04-18 14:55:36 +0000";
layers = (
{
layerId = "229FC374-6BB7-493E-A0DB-CDCFAB367F2C";
shapes = (
{
closed = 1;
nodes = (
(93,-183,l),
(93,1644,l),
(33,1644,l),
(33,-183,l)
);
}
);
width = 125;
}
);
unicode = 124;
userData = {
KernOnSpecialSpacing = {
L = NoKerning;
R = NoKerning;
};
};
},
{
glyphname = dagger;
lastChange = "2024-04-18 14:55:36 +0000";
layers = (
{
layerId = "229FC374-6BB7-493E-A0DB-CDCFAB367F2C";
shapes = (
{
closed = 1;
nodes = (
(214,745,l),
(214,1644,l),
(154,1644,l),
(154,745,l)
);
},
{
closed = 1;
nodes = (
(339,1302,l),
(339,1362,l),
(33,1362,l),
(33,1302,l)
);
}
);
width = 372;
}
);
unicode = 8224;
},
{
glyphname = cent;
kernLeft = "20";
kernRight = "20";
lastChange = "2024-04-18 14:55:36 +0000";
layers = (
{
layerId = "229FC374-6BB7-493E-A0DB-CDCFAB367F2C";
shapes = (
{
closed = 1;
nodes = (
(93,1060,l),
(93,1115,o),
(139,1162,o),
(197,1162,cs),
(251,1162,o),
(298,1115,o),
(298,1060,c),
(358,1060,l),
(358,1149,o),
(286,1222,o),
(197,1222,cs),
(105,1222,o),
(33,1149,o),
(33,1060,c)
);
},
{
closed = 1;
nodes = (
(227,0,l),
(227,257,l),
(167,257,l),
(167,0,l)
);
},
{
closed = 1;
nodes = (
(286,239,o),
(358,311,o),
(358,400,c),
(298,400,l),
(298,345,o),
(251,299,o),
(197,299,cs),
(139,299,o),
(93,345,o),
(93,400,c),
(33,400,l),
(33,311,o),
(105,239,o),
(197,239,cs)
);
},
{
closed = 1;
nodes = (
(93,400,l),
(93,1060,l),
(33,1060,l),
(33,400,l)
);
},
{
closed = 1;
nodes = (
(227,1204,l),
(227,1461,l),
(167,1461,l),
(167,1204,l)
);
}
);
width = 391;
}
);
unicode = 162;
userData = {
KernOnSpecialSpacing = {
L = symbols;
R = symbols;
};
};
},
{
glyphname = dollar;
kernLeft = "20";
kernRight = "20";
lastChange = "2024-04-18 14:55:36 +0000";
layers = (
{
layerId = "229FC374-6BB7-493E-A0DB-CDCFAB367F2C";
shapes = (
{
closed = 1;
nodes = (
(233,-183,l),
(233,3,l),
(313,18,o),
(371,86,o),
(371,168,cs),
(371,1018,ls),
(371,1110,o),
(296,1186,o),
(203,1186,cs),
(142,1186,o),
(93,1235,o),
(93,1293,cs),
(93,1352,o),
(142,1401,o),
(203,1401,cs),
(262,1401,o),
(311,1352,o),
(311,1293,c),
(371,1293,l),
(371,1375,o),
(313,1444,o),
(233,1458,c),
(233,1644,l),
(173,1644,l),
(173,1458,l),
(92,1444,o),
(33,1375,o),
(33,1293,cs),
(33,1201,o),
(108,1126,o),
(203,1126,cs),
(262,1126,o),
(311,1076,o),
(311,1018,cs),
(311,168,ls),
(311,109,o),
(262,60,o),
(203,60,cs),
(142,60,o),
(93,109,o),
(93,168,cs),
(93,1018,l),
(33,1018,l),
(33,168,ls),
(33,87,o),
(92,18,o),
(173,3,c),
(173,-183,l)
);
}
);
width = 404;
}
);
unicode = 36;
userData = {
KernOnSpecialSpacing = {
L = symbols;
R = symbols;
};
};
},
{
glyphname = euro;
kernLeft = "20";
kernRight = "20";
lastChange = "2024-04-18 14:55:36 +0000";
layers = (
{
layerId = "229FC374-6BB7-493E-A0DB-CDCFAB367F2C";
shapes = (
{
closed = 1;
nodes = (
(275,553,l),
(275,613,l),
(33,613,l),
(33,553,l)
);
},
{
closed = 1;
nodes = (
(275,848,l),
(275,908,l),
(33,908,l),
(33,848,l)
);
},
{
closed = 1;
nodes = (
(159,0,l),
(159,1293,l),
(99,1293,l),
(99,0,l)
);
},
{
closed = 1;
nodes = (
(270,0,l),
(270,60,l),
(103,60,l),
(103,0,l)
);
},
{
closed = 1;
nodes = (
(362,0,o),
(438,75,o),
(438,168,c),
(378,168,l),
(378,109,o),
(328,60,o),
(270,60,c),
(270,0,l)
);
},
{
closed = 1;
nodes = (
(159,1293,l),
(159,1352,o),
(209,1401,o),
(270,1401,cs),
(328,1401,o),
(378,1352,o),
(378,1293,c),
(438,1293,l),
(438,1386,o),
(362,1461,o),
(270,1461,cs),
(174,1461,o),
(99,1386,o),
(99,1293,c)
);
}
);
width = 470;
}
);
unicode = 8364;
userData = {
KernOnSpecialSpacing = {
L = symbols;
R = symbols;
};
};
},
{
glyphname = sterling;
kernLeft = "20";
kernRight = "20";
lastChange = "2024-04-18 14:55:36 +0000";
layers = (
{
layerId = "229FC374-6BB7-493E-A0DB-CDCFAB367F2C";
shapes = (
{
closed = 1;
nodes = (
(371,0,l),
(371,60,l),
(93,60,l),
(93,462,l),
(203,462,l),
(203,522,l),
(93,522,l),
(93,1293,ls),
(93,1352,o),
(142,1401,o),
(203,1401,cs),
(262,1401,o),
(311,1352,o),
(311,1293,c),
(371,1293,l),
(371,1386,o),
(296,1461,o),
(203,1461,cs),
(108,1461,o),
(33,1386,o),
(33,1293,cs),
(33,0,l)
);
}
);
width = 404;
}
);
unicode = 163;
userData = {
KernOnSpecialSpacing = {
L = symbols;
R = symbols;
};
};
},
{
glyphname = yen;
kernLeft = "20";
kernRight = "20";
lastChange = "2024-04-18 14:55:36 +0000";
layers = (
{
layerId = "229FC374-6BB7-493E-A0DB-CDCFAB367F2C";
shapes = (
{
closed = 1;
nodes = (
(371,235,l),
(371,295,l),
(33,295,l),
(33,235,l)
);
},
{
closed = 1;
nodes = (
(371,470,l),
(371,530,l),
(33,530,l),
(33,470,l)
);
},
{
closed = 1;
nodes = (
(233,0,l),
(233,523,l),
(174,523,l),
(174,0,l)
);
},
{
closed = 1;
nodes = (
(296,470,o),
(371,545,o),
(371,637,c),
(311,637,l),
(311,579,o),
(262,530,o),
(203,530,cs),
(142,530,o),
(93,579,o),
(93,637,c),
(33,637,l),
(33,545,o),
(108,470,o),
(203,470,cs)
);
},
{
closed = 1;
nodes = (
(93,637,l),
(93,1461,l),
(33,1461,l),
(33,637,l)
);
},
{
closed = 1;
nodes = (
(371,637,l),
(371,1461,l),
(311,1461,l),
(311,637,l)
);
}
);
width = 404;
}
);
unicode = 165;
userData = {
KernOnSpecialSpacing = {
L = symbols;
R = symbols;
};
};
},
{
glyphname = plus;
kernLeft = "20";
kernRight = "20";
lastChange = "2024-04-18 14:55:36 +0000";
layers = (
{
layerId = "229FC374-6BB7-493E-A0DB-CDCFAB367F2C";
shapes = (
{
closed = 1;
nodes = (
(234,560,l),
(234,903,l),
(174,903,l),
(174,560,l)
);
},
{
closed = 1;
nodes = (
(377,701,l),
(377,761,l),
(33,761,l),
(33,701,l)
);
}
);
width = 409;
}
);
unicode = 43;
userData = {
KernOnSpecialSpacing = {
L = math;
R = math;
};
};
},
{
glyphname = multiply;
kernLeft = "20";
kernRight = "20";
lastChange = "2024-04-18 14:55:36 +0000";
layers = (
{
layerId = "229FC374-6BB7-493E-A0DB-CDCFAB367F2C";
shapes = (
{
closed = 1;
nodes = (
(318,833,l),
(275,875,l),
(33,632,l),
(75,590,l)
);
},
{
closed = 1;
nodes = (
(318,630,l),
(75,874,l),
(33,831,l),
(275,589,l)
);
}
);
width = 350;
}
);
unicode = 215;
userData = {
KernOnSpecialSpacing = {
L = math;
R = math;
};
};
},
{
glyphname = equal;
kernLeft = "20";
kernRight = "20";
lastChange = "2024-04-18 14:55:36 +0000";
layers = (
{
layerId = "229FC374-6BB7-493E-A0DB-CDCFAB367F2C";
shapes = (
{
closed = 1;
nodes = (
(377,776,l),
(377,836,l),
(33,836,l),
(33,776,l)
);
},
{
closed = 1;
nodes = (
(377,625,l),
(377,685,l),
(33,685,l),
(33,625,l)
);
}
);
width = 409;
}
);
unicode = 61;
userData = {
KernOnSpecialSpacing = {
L = math;
R = math;
};
};
},
{
glyphname = percent;
kernLeft = "20";
kernRight = "20";
lastChange = "2024-04-18 14:55:36 +0000";
layers = (
{
layerId = "229FC374-6BB7-493E-A0DB-CDCFAB367F2C";
shapes = (
{
closed = 1;
nodes = (
(239,0,l),
(728,1461,l),
(675,1461,l),
(186,0,l)
);
},
{
closed = 1;
nodes = (
(266,697,o),
(334,764,o),
(334,846,cs),
(334,1312,ls),
(334,1394,o),
(266,1461,o),
(185,1461,cs),
(100,1461,o),
(33,1394,o),
(33,1312,cs),
(33,846,ls),
(33,764,o),
(100,697,o),
(185,697,cs)
);
},
{
closed = 1;
nodes = (
(815,0,o),
(883,67,o),
(883,149,cs),
(883,615,ls),
(883,697,o),
(815,764,o),
(734,764,cs),
(649,764,o),
(582,697,o),
(582,615,cs),
(582,149,ls),
(582,67,o),
(649,0,o),
(734,0,cs)
);
},
{
closed = 1;
nodes = (
(129,748,o),
(84,793,o),
(84,846,cs),
(84,1312,ls),
(84,1365,o),
(129,1410,o),
(185,1410,cs),
(237,1410,o),
(283,1365,o),
(283,1312,cs),
(283,846,ls),
(283,793,o),
(237,748,o),
(185,748,cs)
);
},
{
closed = 1;
nodes = (
(678,51,o),
(633,96,o),
(633,149,cs),
(633,615,ls),
(633,668,o),
(678,713,o),
(734,713,cs),
(786,713,o),
(832,668,o),
(832,615,cs),
(832,149,ls),
(832,96,o),
(786,51,o),
(734,51,cs)
);
}
);
width = 915;
}
);
unicode = 37;
userData = {
KernOnSpecialSpacing = {
L = "spaced-off";
};
};
},
{
glyphname = dieresiscomb;
kernLeft = "20";
kernRight = "20";
lastChange = "2024-04-18 14:55:36 +0000";
layers = (
{
anchors = (
{
name = _top;
pos = (123,984);
}
);
layerId = "229FC374-6BB7-493E-A0DB-CDCFAB367F2C";
shapes = (
{
closed = 1;
nodes = (
(200,1119,o),
(213,1132,o),
(213,1149,cs),
(213,1167,o),
(200,1179,o),
(183,1179,cs),
(166,1179,o),
(153,1167,o),
(153,1149,cs),
(153,1132,o),
(166,1119,o),
(183,1119,c)
);
},
{
closed = 1;
nodes = (
(80,1119,o),
(93,1132,o),
(93,1149,cs),
(93,1167,o),
(80,1179,o),
(62,1179,cs),
(46,1179,o),
(33,1167,o),
(33,1149,cs),
(33,1132,o),
(46,1119,o),
(62,1119,c)
);
}
);
width = 246;
}
);
unicode = 776;
userData = {
KernOnSpecialSpacing = {
L = NoKerning;
R = NoKerning;
};
};
},
{
glyphname = dotaccentcomb;
kernLeft = "20";
kernRight = "20";
lastChange = "2024-04-18 14:55:36 +0000";
layers = (
{
anchors = (
{
name = _top;
pos = (62,984);
}
);
layerId = "229FC374-6BB7-493E-A0DB-CDCFAB367F2C";
shapes = (
{
closed = 1;
nodes = (
(80,1119,o),
(92,1132,o),
(92,1149,cs),
(92,1167,o),
(80,1179,o),
(62,1179,cs),
(45,1179,o),
(33,1167,o),
(33,1149,cs),
(33,1132,o),
(45,1119,o),
(62,1119,c)
);
}
);
width = 125;
}
);
unicode = 775;
userData = {
KernOnSpecialSpacing = {
L = NoKerning;
R = NoKerning;
};
};
},
{
glyphname = gravecomb;
kernLeft = "20";
kernRight = "20";
lastChange = "2024-04-18 14:55:36 +0000";
layers = (
{
anchors = (
{
name = _top;
pos = (121,984);
}
);
layerId = "229FC374-6BB7-493E-A0DB-CDCFAB367F2C";
shapes = (
{
closed = 1;
nodes = (
(209,984,l),
(89,1321,l),
(33,1321,l),
(166,984,l)
);
}
);
width = 242;
}
);
unicode = 768;
userData = {
KernOnSpecialSpacing = {
L = NoKerning;
R = NoKerning;
};
};
},
{
glyphname = acutecomb;
kernLeft = "20";
kernRight = "20";
lastChange = "2024-04-18 14:55:36 +0000";
layers = (
{
anchors = (
{
name = _top;
pos = (121,984);
}
);
layerId = "229FC374-6BB7-493E-A0DB-CDCFAB367F2C";
shapes = (
{
closed = 1;
nodes = (
(75,984,l),
(209,1321,l),
(153,1321,l),
(33,984,l)
);
}
);
width = 242;
}
);
unicode = 769;
userData = {
KernOnSpecialSpacing = {
L = NoKerning;
R = NoKerning;
};
};
},
{
glyphname = circumflexcomb;
kernLeft = "20";
kernRight = "20";
lastChange = "2024-04-18 14:55:36 +0000";
layers = (
{
anchors = (
{
name = _top;
pos = (144,984);
}
);
layerId = "229FC374-6BB7-493E-A0DB-CDCFAB367F2C";
shapes = (
{
closed = 1;
nodes = (
(255,1137,l),
(215,1137,o),
(174,1154,o),
(144,1182,c),
(111,1144,l),
(151,1106,o),
(204,1088,o),
(255,1088,c)
);
},
{
closed = 1;
nodes = (
(84,1088,o),
(138,1106,o),
(177,1144,c),
(144,1182,l),
(115,1154,o),
(73,1137,o),
(33,1137,c),
(33,1088,l)
);
}
);
width = 288;
}
);
unicode = 770;
userData = {
KernOnSpecialSpacing = {
L = NoKerning;
R = NoKerning;
};
};
},
{
glyphname = ringcomb;
kernLeft = "20";
kernRight = "20";
lastChange = "2024-04-18 14:55:36 +0000";
layers = (
{
anchors = (
{
name = _top;
pos = (176,984);
}
);
layerId = "229FC374-6BB7-493E-A0DB-CDCFAB367F2C";
shapes = (
{
closed = 1;
nodes = (
(254,1047,o),
(317,1110,o),
(317,1188,cs),
(317,1265,o),
(254,1328,o),
(176,1328,cs),
(96,1328,o),
(33,1265,o),
(33,1188,cs),
(33,1110,o),
(96,1047,o),
(176,1047,cs)
);
},
{
closed = 1;
nodes = (
(120,1089,o),
(75,1134,o),
(75,1188,cs),
(75,1241,o),
(120,1286,o),
(176,1286,cs),
(229,1286,o),
(274,1241,o),
(274,1188,cs),
(274,1134,o),
(229,1089,o),
(176,1089,cs)
);
}
);
width = 349;
}
);
unicode = 778;
userData = {
KernOnSpecialSpacing = {
L = NoKerning;
R = NoKerning;
};
};
},
{
glyphname = tildecomb;
kernLeft = "20";
kernRight = "20";
lastChange = "2024-04-18 14:55:36 +0000";
layers = (
{
anchors = (
{
name = _top;
pos = (214,984);
}
);
layerId = "229FC374-6BB7-493E-A0DB-CDCFAB367F2C";
shapes = (
{
closed = 1;
nodes = (
(84,1151,o),
(109,1165,o),
(137,1168,cs),
(159,1169,o),
(182,1164,o),
(203,1149,cs),
(231,1129,o),
(267,1121,o),
(299,1127,cs),
(337,1131,o),
(372,1153,o),
(396,1184,c),
(360,1207,l),
(346,1185,o),
(320,1172,o),
(294,1169,cs),
(272,1167,o),
(247,1172,o),
(226,1187,cs),
(197,1207,o),
(164,1212,o),
(132,1208,cs),
(94,1204,o),
(57,1186,o),
(33,1152,c),
(69,1128,l)
);
}
);
width = 429;
}
);
unicode = 771;
userData = {
KernOnSpecialSpacing = {
L = NoKerning;
R = NoKerning;
};
};
},
{
glyphname = cedillacomb;
kernLeft = "20";
kernRight = "20";
lastChange = "2024-04-18 14:55:36 +0000";
layers = (
{
anchors = (
{
name = _bottom;
pos = (127,0);
}
);
layerId = "229FC374-6BB7-493E-A0DB-CDCFAB367F2C";
shapes = (
{
closed = 1;
nodes = (
(137,-361,o),
(200,-298,o),
(200,-218,cs),
(200,-140,o),
(137,-77,o),
(60,-77,c),
(60,-119,l),
(113,-119,o),
(158,-165,o),
(158,-218,cs),
(158,-273,o),
(113,-319,o),
(60,-319,c),
(60,-361,l)
);
},
{
closed = 1;
nodes = (
(60,-361,l),
(60,-319,l),
(33,-319,l),
(33,-361,l)
);
},
{
closed = 1;
nodes = (
(75,-119,l),
(75,12,l),
(33,12,l),
(33,-119,l)
);
}
);
width = 233;
}
);
unicode = 807;
userData = {
KernOnSpecialSpacing = {
L = NoKerning;
R = NoKerning;
};
};
},
{
glyphname = hungarumlaut;
kernLeft = "20";
kernRight = "20";
lastChange = "2024-04-18 14:55:36 +0000";
layers = (
{
anchors = (
{
name = _top;
pos = (268,984);
}
);
layerId = "229FC374-6BB7-493E-A0DB-CDCFAB367F2C";
shapes = (
{
closed = 1;
nodes = (
(370,984,l),
(503,1344,l),
(443,1344,l),
(310,984,l)
);
},
{
closed = 1;
nodes = (
(93,984,l),
(226,1344,l),
(166,1344,l),
(33,984,l)
);
}
);
width = 536;
}
);
unicode = 733;
},
{
glyphname = caron;
kernLeft = "20";
kernRight = "20";
lastChange = "2024-04-18 14:55:36 +0000";
layers = (
{
anchors = (
{
name = _top;
pos = (144,984);
}
);
layerId = "229FC374-6BB7-493E-A0DB-CDCFAB367F2C";
shapes = (
{
closed = 1;
nodes = (
(174,1117,o),
(215,1134,o),
(255,1134,c),
(255,1182,l),
(204,1182,o),
(151,1165,o),
(111,1127,c),
(144,1088,l)
);
},
{
closed = 1;
nodes = (
(177,1127,l),
(138,1165,o),
(84,1182,o),
(33,1182,c),
(33,1134,l),
(73,1134,o),
(115,1117,o),
(144,1088,c)
);
}
);
width = 288;
}
);
unicode = 711;
},
{
glyphname = breve;
kernLeft = "20";
kernRight = "20";
lastChange = "2024-04-18 14:55:36 +0000";
layers = (
{
anchors = (
{
name = _top;
pos = (172,984);
}
);
layerId = "229FC374-6BB7-493E-A0DB-CDCFAB367F2C";
shapes = (
{
closed = 1;
nodes = (
(247,1059,o),
(309,1120,o),
(309,1196,c),
(266,1196,l),
(266,1145,o),
(223,1102,o),
(172,1102,cs),
(119,1102,o),
(75,1145,o),
(75,1196,c),
(33,1196,l),
(33,1120,o),
(94,1059,o),
(172,1059,cs)
);
}
);
width = 341;
}
);
unicode = 728;
},
{
glyphname = macron;
kernLeft = "20";
kernRight = "20";
lastChange = "2024-04-18 14:55:36 +0000";
layers = (
{
anchors = (
{
name = _top;
pos = (190,984);
}
);
layerId = "229FC374-6BB7-493E-A0DB-CDCFAB367F2C";
shapes = (
{
closed = 1;
nodes = (
(351,1129,l),
(351,1181,l),
(33,1181,l),
(33,1129,l)
);
}
);
width = 383;
}
);
unicode = 175;
},
